<?xml version="1.0" encoding="UTF-8" standalone="no"?>
<svg width="110px" height="50px" viewBox="0 0 110 50" version="1.1" xmlns="http://www.w3.org/2000/svg" xmlns:xlink="http://www.w3.org/1999/xlink" xmlns:sketch="http://www.bohemiancoding.com/sketch/ns">
    <!-- Generator: Sketch 3.3.3 (12081) - http://www.bohemiancoding.com/sketch -->
    <title>Slice 1</title>
    <desc>Created with Sketch.</desc>
    <defs></defs>
    <g id="Page-1" stroke="none" stroke-width="1" fill="none" fill-rule="evenodd" sketch:type="MSPage">
        <g id="net-logo" sketch:type="MSLayerGroup" transform="translate(-0.000000, 0.000000)" fill="#999999">
            <path d="M2.52825,48.96875 L2.52825,42.94375 C3.38825,42.71525 4.2145,42.434 5.06375,42.28625 C6.1385,42.09925 6.47725,41.5075 6.46975,40.46125 C6.4315,35.131 6.4415,29.80025 6.43625,24.46975 C6.43425,22.42925 6.395,20.3875 6.4525,18.3485 C6.48275,17.27325 6.11025,16.7495 5.0085,16.6115 C3.40125,16.41 1.8095,16.08475 0.115,15.796 L0.115,10.63525 C3.0765,10.30875 6.04475,9.98 9.0135,9.656 C9.9235,9.55675 10.853,9.55425 11.741,9.359 C12.83,9.12 13.48775,9.394 13.72925,10.52375 C13.77825,10.75325 13.94025,10.95875 13.96225,11.00175 C16.46525,10.2435 18.83475,9.32175 21.29,8.82625 C25.72125,7.9315 30.098,8.44575 34.24725,10.24625 C39.8,12.6555 42.685,17.07825 42.934,23.02 C43.17075,28.674 43.01225,34.345 43.026,40.0085 C43.03075,41.88875 43.0495,41.91425 44.84525,42.36525 C45.6045,42.556 46.362,42.75425 47.13475,42.95275 L47.13475,48.95725 L28.4755,48.95725 C28.4755,47.08275 28.44325,45.2255 28.5145,43.37225 C28.524,43.127 29.025,42.78475 29.35775,42.685 C32.4785,41.74875 32.2085,42.452 32.2125,38.847 C32.218,34.058 32.219,29.26875 32.212,24.4795 C32.20575,20.15075 29.92375,17.75025 25.56975,17.59275 C24.419,17.55125 23.22625,17.641 22.109,17.9065 C19.34775,18.56275 17.55625,20.581 17.4945,23.40875 C17.36725,29.23625 17.42525,35.0675 17.39675,40.897 C17.39275,41.72625 17.85775,42.01325 18.58725,42.22575 C21.122,42.965 21.11425,42.9905 21.11425,45.673 L21.11425,48.969 C14.86775,48.96875 8.77025,48.96875 2.52825,48.96875 L2.52825,48.96875 Z" id="Shape" sketch:type="MSShapeGroup"></path>
            <path d="M82.47175,38.43225 C82.47175,40.51725 82.4945,42.42775 82.448,44.33675 C82.44075,44.63525 82.19175,45.05025 81.932,45.20325 C73.539,50.13975 64.71075,51.5625 55.51525,47.8705 C49.29925,45.37525 46.079,40.615 46.2025,33.76675 C46.25725,30.72775 46.211,27.687 46.21225,24.647 C46.2155,17.21 49.5625,12.396 56.57175,9.88475 C61.8835,7.9815 67.27,7.8905 72.6095,9.70375 C78.21375,11.60675 81.82025,15.46275 82.46325,21.419 C82.866,25.1475 82.53825,28.955 82.53825,32.85775 L57.38275,32.85775 C56.661,37.26 59.64225,40.81525 64.20175,41.139 C66.96275,41.33475 69.45175,40.5895 71.75625,39.06375 C72.301,38.703 73.03625,38.4745 73.68975,38.45975 C76.55525,38.3955 79.42275,38.43225 82.47175,38.43225 L82.47175,38.43225 Z M57.328,24.48325 L71.79575,24.48325 C72.207,22.145 71.1825,19.78525 69.208,18.669 C66.61775,17.2045 63.87025,17.1965 61.1375,18.15825 C58.5465,19.07 57.10125,21.527 57.328,24.48325 L57.328,24.48325 Z" id="Shape" sketch:type="MSShapeGroup"></path>
            <path d="M83.24875,17.4295 L83.24875,9.32025 L86.82125,9.32025 L86.82125,1.3675 C90.58825,0.9535 94.20275,0.556 98.0045,0.13825 L98.0045,9.26825 L108.197,9.26825 L108.197,17.42925 C107.123,17.42925 106.06,17.429 104.99675,17.42925 C103.04,17.4295 101.08225,17.468 99.127,17.4135 C98.24025,17.38875 97.99775,17.70325 98.00175,18.564 C98.0305,25.01675 98.0065,31.46975 98.01975,37.92275 C98.02425,39.954 98.85925,40.7335 100.876,40.6025 C101.4895,40.5625 102.1105,40.4125 102.6955,40.2165 C103.35075,39.997 103.95625,39.4685 104.60625,39.42575 C106.338,39.31225 108.08175,39.38725 109.9665,39.38725 C109.9665,41.77225 109.98775,44.0485 109.93825,46.32325 C109.9325,46.587 109.58775,46.9635 109.3115,47.08325 C104.4485,49.19175 99.43625,50.00125 94.2215,48.623 C89.73875,47.4385 87.085,44.27525 86.9915,39.618 C86.8545,32.79325 86.92225,25.9645 86.9035,19.137 C86.899,17.4335 86.90175,17.43325 85.2385,17.42975 C84.6195,17.4285 84,17.4295 83.24875,17.4295 L83.24875,17.4295 Z" id="Shape" sketch:type="MSShapeGroup"></path>
        </g>
    </g>
</svg>