<?xml version="1.0" encoding="UTF-8" standalone="no"?>
<svg width="160px" height="55px" viewBox="0 0 160 55" version="1.1" xmlns="http://www.w3.org/2000/svg" xmlns:xlink="http://www.w3.org/1999/xlink" xmlns:sketch="http://www.bohemiancoding.com/sketch/ns">
    <title>engadget</title>
    <description>Created with Sketch (http://www.bohemiancoding.com/sketch)</description>
    <defs></defs>
    <g id="Page-1" stroke="none" stroke-width="1" fill="none" fill-rule="evenodd" sketch:type="MSPage">
        <g id="engadget" sketch:type="MSLayerGroup" fill="#999999">
            <path d="M52.450785,39.6761538 C52.4540614,42.1211077 52.4608874,44.5657846 52.4589761,47.0104615 C52.4587031,47.6584615 52.4281229,48.3064615 52.4180205,48.9544615 C52.3866212,50.9563385 51.3332423,52.3168615 49.723686,53.2988308 C48.7967235,53.8645846 47.7782935,54.1600615 46.6809556,54.1273846 C46.5321502,54.1226769 46.3623208,54.0645231 46.2312628,54.2021538 L39.5896246,54.2021538 C39.6805461,53.2741846 39.6079181,52.3434462 39.6324915,51.4140923 C39.6412287,51.0856615 39.7400683,51.0180923 40.0409556,51.0158769 C41.9459386,51.0009231 43.8506485,50.9701846 45.7550853,50.9364 C46.1927645,50.9286462 46.6353584,50.9264308 47.0599317,50.7962769 C48.3789761,50.3922462 49.3594539,48.9292615 49.2529693,47.556 C49.2354949,47.3311385 49.0965188,47.3776615 48.974744,47.3768308 C48.2020478,47.3699077 47.4293515,47.3665846 46.6566553,47.3643692 C44.9651877,47.3588308 43.2731741,47.3959385 41.5822526,47.3167385 C41.3081229,47.3037231 41.0585666,47.2234154 40.8101024,47.1367385 C38.7871672,46.4286462 37.3305119,45.0980308 36.5040273,43.0809231 C36.3336519,42.6649846 36.2339932,42.2365846 36.2350853,41.7827077 C36.2369966,41.0820923 36.1553584,40.3817538 36.2132423,39.6803077 C37.2554266,39.6786462 38.2976109,39.6769846 39.3397952,39.6756 C39.3739249,40.3493538 39.3463481,41.0156308 39.6341297,41.6694462 C40.1881229,42.9283385 41.0921502,43.7737846 42.4177474,43.9662462 C44.5720137,44.2791692 46.7494881,44.1130154 48.9179522,44.0977846 C49.2005461,44.0958462 49.1893515,43.9272 49.1904437,43.7275385 C49.1969966,42.3769846 49.2087372,41.0264308 49.2188396,39.6761538 C50.2959727,39.6758769 51.3733788,39.6761538 52.450785,39.6761538 L52.450785,39.6761538 Z" id="Shape" sketch:type="MSShapeGroup"></path>
            <path d="M3.50935154,40.5695077 C3.60901024,42.4224 4.39180887,43.5068308 5.95959044,43.9889538 C6.23590444,44.0742462 6.51221843,44.0656615 6.78935154,44.0659385 C8.68122867,44.0684308 10.5728328,44.0706462 12.4647099,44.0534769 C12.7776109,44.0507077 12.8772696,44.1307385 12.8696246,44.4575077 C12.8502389,45.2946462 12.8617065,46.1331692 12.8791809,46.9705846 C12.8843686,47.2189846 12.8081911,47.3001231 12.5638225,47.2976308 C10.1660068,47.2702154 7.76682594,47.3394462 5.3709215,47.2198154 C2.76013652,47.0891077 0.604232082,45.1329231 0.140887372,42.5201538 C0.129419795,42.4550769 0.137064846,42.3836308 0.0595221843,42.3528923 L0.0595221843,41.3789538 C0.163276451,41.2978154 0.1621843,41.2166769 0.0595221843,41.1352615 L0.0595221843,40.9729846 C0.101023891,40.9524923 0.172559727,40.9380923 0.178566553,40.9095692 C0.197406143,40.8220615 0.117952218,40.8228923 0.0595221843,40.8109846 L0.0595221843,40.6487077 C0.133788396,40.6057846 0.139249147,40.5373846 0.127235495,40.4623385 C0.121501706,40.4421231 0.122047782,40.4221846 0.128600683,40.4025231 C0.937337884,40.4033538 1.74580205,40.4069538 2.55453925,40.4036308 C2.88354949,40.4019692 3.21337884,40.3814769 3.50935154,40.5695077 L3.50935154,40.5695077 Z" id="Shape" sketch:type="MSShapeGroup"></path>
            <path id="Shape" sketch:type="MSShapeGroup" d="M0.128327645,40.4022462 C0.121774744,40.4219077 0.121501706,40.4418462 0.126962457,40.4620615 C0.103754266,40.4678769 0.0810921502,40.4759077 0.0592491468,40.4861538 L0.0592491468,36.9149538 C0.0854607509,36.9141231 0.111399317,36.9135692 0.137610922,36.9130154 C0.134334471,38.0760923 0.131331058,39.2391692 0.128327645,40.4022462 L0.128327645,40.4022462 Z"></path>
            <path id="Shape" sketch:type="MSShapeGroup" d="M0.0592491468,40.8107077 C0.117679181,40.8226154 0.196860068,40.8217846 0.178293515,40.9092923 C0.172286689,40.9380923 0.100750853,40.9522154 0.0592491468,40.9727077 L0.0592491468,40.8107077 L0.0592491468,40.8107077 Z"></path>
            <path id="Shape" sketch:type="MSShapeGroup" d="M0.0592491468,41.1352615 C0.161911263,41.2166769 0.163003413,41.2978154 0.0592491468,41.3789538 L0.0592491468,41.1352615 L0.0592491468,41.1352615 Z"></path>
            <path id="Shape" sketch:type="MSShapeGroup" d="M0.0592491468,40.4861538 C0.0810921502,40.4759077 0.103754266,40.4681538 0.126962457,40.4620615 C0.138703072,40.5371077 0.133515358,40.6055077 0.0592491468,40.6484308 L0.0592491468,40.4861538 L0.0592491468,40.4861538 Z"></path>
            <path d="M158.337747,31.9702154 C157.884505,31.9702154 157.43099,31.9627385 156.97802,31.9735385 C156.75058,31.9793538 156.658567,31.9176 156.64,31.6597846 C156.548532,30.4067077 156.611331,29.1489231 156.502389,27.8955692 C156.318089,25.7732308 155.869215,23.7129231 155.16041,21.7096615 C154.193857,18.9764308 152.810922,16.4772 151.001229,14.2277538 C148.85843,11.5637538 146.33256,9.3492 143.396041,7.62009231 C140.323549,5.81095385 137.027167,4.62987692 133.53884,3.9888 C132.176655,3.73846154 130.796451,3.63184615 129.414881,3.56870769 C128.550444,3.52910769 127.684642,3.51110769 126.819386,3.49283077 C126.619522,3.48867692 126.493379,3.46209231 126.495563,3.20981538 C126.505392,2.25 126.503208,1.28963077 126.496655,0.329815385 C126.495017,0.1116 126.589215,0.0576 126.786621,0.0559384615 C129.93529,0.0304615385 133.059932,0.236769231 136.135973,0.981969231 C141.076041,2.17855385 145.529556,4.37316923 149.435085,7.66938462 C152.287235,10.0766769 154.643549,12.9154154 156.462526,16.2085846 C158.167918,19.2954462 159.23959,22.5966462 159.758908,26.0853231 C159.909352,27.0974769 160.00901,28.1187692 160.022389,29.1461538 C160.033038,29.9561538 160.055973,30.7664308 160.088191,31.5756 C160.100205,31.8738462 159.99727,31.9868308 159.697201,31.9738154 C159.245051,31.9536 158.79099,31.9682769 158.337747,31.9682769 L158.337747,31.9702154 L158.337747,31.9702154 Z" id="Shape" sketch:type="MSShapeGroup"></path>
            <path d="M106.87372,39.6753231 C106.873993,42.5819077 106.933515,45.4901538 106.85843,48.3948 C106.780068,51.4221231 104.917406,53.5331077 101.995085,53.9955692 C101.106075,54.1362462 100.186485,54.0958154 99.2808191,54.1057846 C97.6543345,54.1237846 96.0278498,54.1121538 94.4016382,54.1265538 C94.1318771,54.1290462 94.0234812,54.0609231 94.0297611,53.7679385 C94.0466894,52.9435385 94.0488737,52.1183077 94.0327645,51.2939077 C94.0270307,51.0012 94.1313311,50.9380615 94.4013652,50.9355692 C96.3475768,50.9181231 98.2935154,50.886 100.239454,50.8541538 C101.051741,50.8408615 101.825802,50.7118154 102.485461,50.1624 C103.328874,49.4601231 103.577065,48.5022462 103.663891,47.4671077 C103.685188,47.2123385 103.489147,47.2765846 103.359181,47.2763077 C102.185939,47.2721538 101.012969,47.2785231 99.839727,47.2735385 C98.7601365,47.2688308 97.679727,47.2223077 96.6012287,47.2536 C95.4490102,47.2868308 94.4619795,46.8465231 93.5404778,46.2345231 C92.1812969,45.3317538 91.1980887,44.1063692 90.7593174,42.5004923 C90.5078498,41.5791692 90.6367235,40.6204615 90.6296246,39.6769846 C91.4694881,39.6761538 92.3090785,39.6775385 93.149215,39.6733846 C93.4656655,39.6717231 93.6865529,39.7373538 93.6098294,40.1438769 C93.5792491,40.3067077 93.5612287,40.5099692 93.8023208,40.5678462 C94.0939249,42.4207385 95.1817065,43.5996 96.988942,43.9355077 C97.9874403,44.1210462 99.0077816,44.0501538 100.019659,44.0496 C101.072491,44.0487692 102.125324,44.0374154 103.178157,44.0376923 C103.498976,44.0376923 103.638771,43.938 103.617474,43.5680308 C103.58198,42.9488308 103.61529,42.3254769 103.619659,41.7040615 C103.829898,41.4661846 103.830171,40.8871385 103.620478,40.6476 C103.621024,40.3507385 103.621843,40.0533231 103.622662,39.7564615 C103.81215,39.6902769 104.006007,39.6703385 104.207509,39.6717231 C105.095973,39.6780923 105.98471,39.6750462 106.87372,39.6753231 L106.87372,39.6753231 Z" id="Shape" sketch:type="MSShapeGroup"></path>
            <path d="M149.19099,31.9696615 C148.764505,31.9696615 148.336109,31.9472308 147.911263,31.9765846 C147.568055,32.0004 147.450648,31.9037538 147.456109,31.5354462 C147.473038,30.4277538 147.447099,29.3206154 147.31959,28.2165231 C146.991399,25.3730769 145.980341,22.7910462 144.327099,20.4928615 C140.946348,15.7932 136.362321,13.1089846 130.694881,12.3042462 C129.410239,12.1220308 128.115768,12.1297846 126.823208,12.1397538 C126.501843,12.1422462 126.411741,12.0406154 126.418294,11.7227077 C126.437133,10.8171692 126.425392,9.9108 126.4243,9.00470769 C126.4243,8.82553846 126.397816,8.66713846 126.676314,8.66436923 C130.09802,8.63196923 133.457201,8.97978462 136.664573,10.296 C142.245461,12.5864308 146.479454,16.3586769 149.055563,21.9323077 C150.182935,24.3714462 150.773515,26.9493231 150.822662,29.6496 C150.834403,30.2981538 150.848874,30.9475385 150.891741,31.5944308 C150.912491,31.9104 150.804096,31.9898769 150.51058,31.9738154 C150.072082,31.9502769 149.630853,31.9677231 149.19099,31.9677231 L149.19099,31.9696615 L149.19099,31.9696615 Z" id="Shape" sketch:type="MSShapeGroup"></path>
            <path d="M72.2970648,36.4281231 C71.9625939,32.3966769 74.3290102,29.5247077 77.7228669,28.8434769 C78.2025939,28.7471077 78.7033447,28.7388 79.1950853,28.7282769 C81.1142662,28.6870154 83.0337201,28.6031077 84.9537201,28.6504615 C85.2939249,28.6587692 85.4094198,28.5798462 85.4042321,28.2087692 C85.3755631,26.2074462 85.3873038,24.2058462 85.3564505,22.2045231 C85.3507167,21.8143385 85.4741297,21.7320923 85.8285324,21.7423385 C86.6678498,21.7664308 87.5085324,21.7597846 88.3483959,21.7445538 C88.6260751,21.7395692 88.7169966,21.8243077 88.7148123,22.1120308 C88.691058,25.4791385 88.6752218,28.8462462 88.6643003,32.2133538 C88.6602048,33.4570154 88.6754949,34.7004 88.6787713,35.9443385 C88.6790444,36.1055077 88.6604778,36.2666769 88.6503754,36.4278462 C87.5601365,36.4281231 86.4701706,36.4284 85.3796587,36.4289538 C85.3758362,35.0520923 85.3643686,33.6757846 85.374198,32.2989231 C85.3763823,32.0012308 85.3258703,31.8791077 84.9900341,31.8832615 C83.1006143,31.9059692 81.2103754,31.9278462 79.3212287,31.9433538 C77.5216382,31.9583077 75.7998635,33.7480615 75.8086007,35.3810769 C75.8105119,35.7302769 75.7580887,36.0794769 75.7305119,36.4289538 L72.2970648,36.4281231 L72.2970648,36.4281231 Z" id="Shape" sketch:type="MSShapeGroup"></path>
            <path d="M124.854608,36.6779077 C124.655563,37.4970462 124.328737,38.2527692 123.75372,38.8750154 C122.865256,39.8359385 121.768191,40.3404923 120.469625,40.4105538 C117.871672,40.5504 115.270717,40.4473846 112.671672,40.5130154 C112.293242,40.5224308 112.242457,40.6628308 112.267031,40.9954154 C112.399181,42.7763077 113.734334,44.0634462 115.501706,44.0695385 C117.38157,44.0753538 119.261706,44.0731385 121.141297,44.0512615 C121.478498,44.0473846 121.573788,44.1498462 121.57215,44.4774462 C121.568055,45.3156923 121.588259,46.1542154 121.612833,46.9921846 C121.619386,47.2176 121.559044,47.3023385 121.325324,47.2992923 C118.92587,47.2688308 116.523686,47.3505231 114.126689,47.2236923 C111.600546,47.0904923 109.473038,45.2772 108.929966,42.8660308 C108.867713,42.5907692 108.818294,42.3060923 108.815017,42.0250154 C108.794812,40.2405231 108.785256,38.4554769 108.893379,36.6726462 C109.217747,36.5829231 109.549488,36.5887385 109.881775,36.5901231 C110.66785,36.5928923 111.454198,36.5912308 112.240273,36.5915077 C112.246826,36.7798154 112.268123,36.9689538 112.256382,37.1561538 C112.241911,37.3876615 112.296792,37.4926154 112.559181,37.4901231 C114.595222,37.4701846 116.631536,37.4571692 118.66785,37.458 C119.587713,37.4582769 120.445051,37.3148308 121.099249,36.5773846 C121.773379,36.5820923 122.447509,36.5765538 123.121092,36.594 C123.699659,36.6081231 124.283413,36.5156308 124.854608,36.6779077 L124.854608,36.6779077 Z" id="Shape" sketch:type="MSShapeGroup"></path>
            <path d="M85.3796587,36.4292308 C86.4698976,36.4286769 87.5598635,36.4284 88.6503754,36.4281231 C88.7426621,36.8285538 88.6896928,37.2353538 88.6875085,37.6382769 C88.6817747,38.7468 88.6266212,39.8561538 88.6536519,40.9635692 C88.6716724,41.7187385 88.4868259,42.4019077 88.1826621,43.0704 C87.4886007,44.5970769 86.4688055,45.8296615 85.0192491,46.6737231 C84.4461433,47.0074154 83.839727,47.2372615 83.1691468,47.2527692 C81.3701024,47.2937538 79.5661433,47.3937231 77.774198,47.214 C75.2313993,46.9595077 72.8540614,44.7228 72.3522184,42.2147077 C72.2053242,41.4808615 72.2296246,40.7353846 72.2380887,39.9935077 C72.2511945,38.8052308 72.196314,37.6152923 72.2973379,36.4281231 C73.4419113,36.4284 74.5864846,36.4286769 75.731058,36.4292308 C75.6868259,37.9290462 75.7395222,39.4280308 75.767372,40.9272923 C75.7935836,42.3301846 77.0825939,43.6920923 78.4412287,43.8150462 C79.5863481,43.9186154 80.7314676,43.8444 81.8754949,43.8801231 C83.3621843,43.9266462 84.2815017,43.1390769 84.9149488,41.8696615 C85.236041,41.2255385 85.3403413,40.5382154 85.3534471,39.834 C85.3752901,38.6994462 85.3722867,37.5640615 85.3796587,36.4292308 L85.3796587,36.4292308 Z" id="Shape" sketch:type="MSShapeGroup"></path>
            <path d="M106.87372,39.6753231 C105.98471,39.6750462 105.095973,39.6780923 104.206962,39.6717231 C104.005734,39.6703385 103.811877,39.69 103.622116,39.7564615 C103.615017,38.2303385 103.625939,36.7042154 103.595631,35.1786462 C103.55959,33.3553846 102.665392,32.2576615 100.902662,31.9555385 C99.4798635,31.7118462 98.0327645,31.7248615 96.6042321,31.9087385 C95.2117406,32.0876308 93.9339249,33.4273846 93.8476451,34.7372308 C93.7198635,36.6790154 93.7441638,38.6238462 93.8017747,40.5681231 C93.5606826,40.5102462 93.5787031,40.3069846 93.6092833,40.1441538 C93.6860068,39.7376308 93.4653925,39.672 93.1486689,39.6736615 C92.3088055,39.6778154 91.469215,39.6764308 90.6290785,39.6772615 C90.5498976,39.2217231 90.5905802,38.7620308 90.5903072,38.3051077 C90.5886689,36.9537231 90.6047782,35.6026154 90.6208874,34.2515077 C90.6484642,31.9915385 91.7897611,30.4734462 93.6379522,29.4067385 C94.494198,28.9124308 95.4195222,28.6501846 96.42157,28.6485231 C98.2869625,28.6460308 100.168191,28.4701846 102.012287,28.7360308 C104.573379,29.1051692 106.273857,30.8719385 106.760956,33.1537846 C106.849966,33.5711077 106.838771,34.0141846 106.842867,34.4459077 C106.860068,36.1888615 106.86471,37.9323692 106.87372,39.6753231 L106.87372,39.6753231 Z" id="Shape" sketch:type="MSShapeGroup"></path>
            <path d="M52.450785,39.6761538 C51.3733788,39.6761538 50.2959727,39.6758769 49.2188396,39.6758769 C49.2081911,38.1480923 49.2191126,36.6200308 49.1814334,35.0930769 C49.1407509,33.4362462 48.1294198,32.2856308 46.5242321,32.0411077 C45.2278498,31.8433846 43.9254608,31.8644308 42.617884,31.9486154 C40.8491468,32.0627077 39.5246416,33.4127077 39.41843,35.2160308 C39.331058,36.7022769 39.3894881,38.1893538 39.3400683,39.6756 C38.297884,39.6769846 37.2556997,39.6786462 36.2135154,39.6803077 C36.1283276,38.6016923 36.1845734,37.5216923 36.182116,36.4425231 C36.1804778,35.6859692 36.2372696,34.9288615 36.2227986,34.1731385 C36.1930375,32.6212615 36.8909215,31.4116615 37.9612287,30.4056 C39.1500341,29.2879385 40.5763823,28.7255077 42.2124232,28.7282769 C43.9841638,28.7316 45.7561775,28.6764923 47.527099,28.7894769 C49.9604096,28.9445538 52.2820478,31.3471385 52.3956314,33.8015077 C52.4857338,35.7593538 52.4674403,37.7174769 52.450785,39.6761538 L52.450785,39.6761538 Z" id="Shape" sketch:type="MSShapeGroup"></path>
            <path d="M30.8636177,38.1342462 C30.7718771,37.5715385 30.8521502,37.0008 30.7959044,36.4378154 C30.5974061,34.4461846 29.665256,32.9563385 27.8572014,32.0779385 C27.4394539,31.8752308 26.9870307,31.8184615 26.5343345,31.8159692 C24.9482594,31.8071077 23.3619113,31.8223385 21.7758362,31.8112615 C21.4200683,31.8087692 21.2991126,31.9156615 21.3037543,32.2964308 C21.3217747,33.8092615 21.3037543,35.3223692 21.2988396,36.8354769 C20.3920819,36.8349231 19.4850512,36.8426769 18.5785666,36.8285538 C18.3317406,36.8246769 18.1116724,36.8637231 17.9060751,36.9966462 C17.9008874,36.1858154 17.891058,35.3755385 17.8913311,34.5649846 C17.8921502,32.6996308 17.9017065,30.8337231 17.8976109,28.9683692 C17.8970648,28.7210769 17.9432082,28.6092 18.2225256,28.6128 C21.3408874,28.6493538 24.4682594,28.5059077 27.5746075,28.7687077 C30.3279181,29.0016 32.3251877,30.5122154 33.5178157,33.0781846 C34.0502389,34.2238154 34.1812969,35.4298154 34.1605461,36.6701538 C33.2592491,36.6707077 32.3574061,36.6815077 31.4563823,36.6665538 C31.0774061,36.6604615 30.9389761,36.8138769 30.9389761,37.1932615 C30.9389761,37.5059077 31.0369966,37.8337846 30.8636177,38.1342462 L30.8636177,38.1342462 Z" id="Shape" sketch:type="MSShapeGroup"></path>
            <path d="M112.240273,36.5912308 C111.454198,36.5909538 110.66785,36.5926154 109.881775,36.5898462 C109.549488,36.5884615 109.217747,36.5826462 108.893379,36.6723692 C108.853788,35.3891077 108.794539,34.0850769 109.023891,32.8342154 C109.367372,30.9602769 110.657474,29.7999692 112.323276,29.0439692 C112.861706,28.7994462 113.421433,28.6546154 114.022662,28.6465846 C115.90198,28.6219385 117.781843,28.5923077 119.659795,28.6557231 C121.729693,28.7257846 123.244778,29.7548308 124.239181,31.5695077 C125.121911,33.1803692 125.225666,34.9036615 124.854608,36.6776308 C124.283413,36.5153538 123.699659,36.6078462 123.121092,36.5931692 C122.447509,36.576 121.773106,36.5812615 121.099249,36.5765538 C121.693379,35.8452 121.700751,34.9787077 121.60628,34.1113846 C121.486143,33.0081231 120.370239,31.8151385 119.160137,31.8547385 C117.656246,31.9037538 116.149898,31.8508615 114.645461,31.8852 C113.364915,31.9145538 112.377065,32.9358462 112.31372,34.2443077 C112.276041,35.0260615 112.264027,35.8089231 112.240273,36.5912308 L112.240273,36.5912308 Z" id="Shape" sketch:type="MSShapeGroup"></path>
            <path d="M70.3082594,41.7040615 C70.3576792,42.2958462 70.1157679,42.8211692 69.9230034,43.3517538 C69.476041,44.5824 68.8169283,45.6599077 67.7212287,46.4197846 C66.8966553,46.9913538 66.0013652,47.3062154 64.9987713,47.3048308 C63.0804096,47.3023385 61.1620478,47.3175692 59.243959,47.3034462 C56.8204778,47.2857231 54.7606826,45.6036923 54.2582935,43.2130154 C54.1217747,42.5625231 54.0887372,41.8884923 54.1043003,41.2177846 C54.2369966,40.8198462 54.3759727,40.4235692 54.3934471,39.9971077 C54.3994539,39.8533846 54.3672355,39.7091077 54.589215,39.6722769 C55.527099,39.5169231 56.4619795,39.6595385 57.3982253,39.6756 C57.5358362,39.6780923 57.6008191,39.7309846 57.5325597,39.8760923 C57.38157,40.1956615 57.3583618,40.5509538 57.3034812,40.8890769 C57.2592491,41.1612923 57.1243686,41.5165846 57.5063481,41.7040615 C57.6079181,43.1468308 58.8972014,44.0520923 60.0283959,44.0631692 C61.4517406,44.0772923 62.8750853,44.0916923 64.298157,44.0601231 C64.5119454,44.0551385 64.7085324,44.0091692 64.9083959,43.9133538 C65.9825256,43.3982769 66.5725597,42.5068615 66.8709898,41.3786769 C67.2237543,41.3293846 67.0902389,41.0483077 67.1150853,40.8456 C67.1358362,40.6777846 67.0918771,40.5520615 66.8876451,40.5667385 C66.8931058,40.2427385 66.8982935,39.9187385 66.9037543,39.5944615 C68.0630717,39.6279692 69.2256655,39.5102769 70.3819795,39.6756 C70.4087372,40.2455077 70.3833447,40.8129231 70.3115358,41.3786769 C70.2023208,41.3919692 70.0950171,41.4238154 70.1073038,41.5589538 C70.1168601,41.6647385 70.2126962,41.6954769 70.3082594,41.7040615 L70.3082594,41.7040615 Z" id="Shape" sketch:type="MSShapeGroup"></path>
            <path d="M140.553447,31.9289538 C140.140068,31.9289538 139.726143,31.9142769 139.313857,31.9342154 C139.029352,31.9480615 138.959727,31.8336923 138.950171,31.5598154 C138.915222,30.5617846 138.964369,29.5568308 138.770785,28.5698769 C138.274403,26.0365846 136.929693,24.0549231 134.889829,22.5492923 C132.907577,21.0860308 130.660478,20.4399692 128.225529,20.4100615 C127.772287,20.4042462 127.319317,20.3812615 126.866075,20.3820923 C126.654198,20.3826462 126.549898,20.3289231 126.551809,20.0877231 C126.559181,19.1819077 126.553993,18.2758154 126.546348,17.3697231 C126.54471,17.1587077 126.598498,17.0382462 126.836314,17.0426769 C129.582253,17.0952923 132.288874,17.3378769 134.788532,18.6496615 C138.451058,20.5715077 140.91959,23.4692308 141.886689,27.5879077 C142.203959,28.9395692 142.159454,30.3247385 142.199863,31.7010462 C142.206416,31.9275692 142.067986,31.9264615 141.912901,31.9259077 C141.459659,31.9242462 141.006416,31.9253538 140.553174,31.9253538 C140.553447,31.9264615 140.553447,31.9278462 140.553447,31.9289538 L140.553447,31.9289538 Z" id="Shape" sketch:type="MSShapeGroup"></path>
            <path d="M0.20668942,35.1254769 C0.205051195,34.3174154 0.163276451,33.5043692 0.318361775,32.7073846 C0.4821843,31.8638769 0.898293515,31.1369538 1.48505119,30.5282769 C2.59576792,29.376 3.90880546,28.6568308 5.54430034,28.6410462 C7.28955631,28.6238769 9.03399317,28.6080923 10.7792491,28.6416 C12.9220478,28.6828615 14.4791809,29.7080308 15.5145392,31.5642462 C16.4095563,33.1687385 16.4890102,34.8967385 16.1356997,36.6687692 C15.9871672,36.5408308 15.81843,36.5048308 15.6226621,36.5056615 C14.5621843,36.5114769 13.5014334,36.5045538 12.4412287,36.5020615 C12.8712628,35.8875692 12.9474403,35.1913846 12.9299659,34.4616923 C12.9004778,33.2335385 11.7984983,31.7832923 10.3044369,31.8575077 C8.92395904,31.9261846 7.53501706,31.9248 6.15453925,31.8550154 C4.75030717,31.7838462 3.63767918,33.0380308 3.56587031,34.1565231 C2.64245734,33.9878769 1.71030717,34.1138769 0.78334471,34.0748308 C0.617610922,34.0679077 0.575290102,34.1493231 0.528600683,34.3055077 C0.444505119,34.5849231 0.544982935,34.9476923 0.20668942,35.1254769 L0.20668942,35.1254769 Z" id="Shape" sketch:type="MSShapeGroup"></path>
            <path d="M70.3814334,39.6753231 C69.2251195,39.51 68.0625256,39.6276923 66.9032082,39.5941846 C66.9032082,39.3111692 66.8830034,39.0259385 66.9097611,38.7456923 C66.9318771,38.5144615 66.8742662,38.4311077 66.6383618,38.4413538 C66.2394539,38.4585231 65.8391809,38.4457846 65.439727,38.4518769 C63.6819113,38.4790154 61.9230034,38.4842769 60.1660068,38.5438154 C58.6558362,38.5953231 57.8064164,39.3554769 57.5503072,40.8159692 C57.4995222,41.1053538 57.5189078,41.4077538 57.505802,41.7037846 C57.1238225,41.5160308 57.2587031,41.1610154 57.3029352,40.8888 C57.3578157,40.5504 57.3812969,40.1953846 57.5320137,39.8758154 C57.600273,39.7309846 57.5352901,39.6778154 57.3976792,39.6753231 C56.4614334,39.6592615 55.5265529,39.5169231 54.5886689,39.672 C54.3666894,39.7088308 54.3989078,39.8531077 54.392901,39.9968308 C54.3754266,40.4232923 54.2364505,40.8198462 54.1037543,41.2175077 C53.8318089,37.5435692 56.4892833,35.7036923 59.12,35.5367077 C61.4189761,35.3910462 63.7247782,35.4683077 66.0275768,35.4447692 C66.9264164,35.4356308 66.9275085,35.4375692 66.8720819,34.5314769 C66.8425939,34.0496308 66.6574744,33.6173538 66.443686,33.1956 C66.7093515,33.0615692 66.9883959,33.0189231 67.2862799,33.0139385 C68.1979522,32.9978769 69.1068942,33.0507692 70.0163823,33.0928615 C70.3754266,33.9186462 70.3352901,34.8067385 70.363959,35.6732308 C70.4084642,37.0063385 70.3795222,38.3413846 70.3814334,39.6753231 L70.3814334,39.6753231 Z" id="Shape" sketch:type="MSShapeGroup"></path>
            <path d="M126.560273,37.6424308 C126.471536,36.7125231 126.511672,35.7795692 126.508123,34.8485538 C126.496109,31.6462154 126.504573,28.4436 126.488191,25.2409846 C126.48628,24.8856923 126.573379,24.7749231 126.930512,24.7876615 C127.809147,24.8186769 128.689147,24.8170154 129.568328,24.8064923 C129.843823,24.8031692 129.94157,24.8870769 129.944573,25.1714769 C129.955495,26.2113231 130.007645,27.2514462 130.001092,28.2910154 C129.998635,28.6640308 130.116587,28.7324308 130.453242,28.7268923 C131.559044,28.7097231 132.665119,28.7357538 133.770648,28.7266154 C134.043413,28.7244 134.14471,28.7983385 134.139249,29.088 C134.122594,29.9121231 134.121502,30.7368 134.139795,31.5609231 C134.146621,31.8611077 134.064164,31.9563692 133.759454,31.95 C132.667304,31.9275692 131.574334,31.9466769 130.482184,31.9223077 C130.132696,31.9145538 130.005734,31.9909846 130.009556,32.3803385 C130.0243,33.9881538 130.001638,35.5962462 129.989898,37.2043385 C129.988805,37.3513846 129.967782,37.4984308 129.955768,37.6457538 C128.824027,37.6443692 127.692287,37.6435385 126.560273,37.6424308 L126.560273,37.6424308 Z" id="Shape" sketch:type="MSShapeGroup"></path>
            <path d="M12.4412287,36.5017846 C13.5017065,36.5042769 14.5624573,36.5112 15.6226621,36.5053846 C15.81843,36.5045538 15.9871672,36.5405538 16.1356997,36.6684923 C15.5475768,38.8683692 13.9691468,40.3152923 11.6155631,40.4227385 C9.06976109,40.5390462 6.52395904,40.4443385 3.97924915,40.5110769 C3.82143345,40.5152308 3.65761092,40.4825538 3.5090785,40.5697846 C3.2131058,40.3817538 2.88327645,40.4025231 2.55399317,40.4036308 C1.74552901,40.4069538 0.936791809,40.4033538 0.128054608,40.4025231 C0.13105802,39.2394462 0.134061433,38.0763692 0.137337884,36.9132923 C0.161911263,36.3173538 0.102389078,35.7180923 0.206416382,35.1254769 C0.544709898,34.9476923 0.444232082,34.5849231 0.528327645,34.3049538 C0.575017065,34.1487692 0.617337884,34.0673538 0.783071672,34.0742769 C1.71030717,34.1133231 2.6421843,33.9873231 3.56559727,34.1559692 C3.60273038,35.1581538 3.43426621,36.1556308 3.50389078,37.1600308 C3.52,37.3918154 3.55085324,37.4906769 3.81105802,37.4884615 C5.83535836,37.4696308 7.85993174,37.4640923 9.88423208,37.4585538 C10.8532423,37.4555077 11.774471,37.3303385 12.4412287,36.5017846 L12.4412287,36.5017846 Z" id="Shape" sketch:type="MSShapeGroup"></path>
            <path d="M126.560273,37.6424308 C127.692287,37.6435385 128.824027,37.6446462 129.955768,37.6460308 C130.026758,38.1984923 129.955768,38.7517846 129.962867,39.3045231 C129.975973,40.3047692 129.980614,41.3052923 130.008737,42.3049846 C130.034676,43.2321231 130.85215,44.0390769 131.769556,44.0540308 C132.449147,44.0653846 133.129283,44.0659385 133.808874,44.0515385 C134.038771,44.0468308 134.102116,44.1216 134.09884,44.3495077 C134.087099,45.2281846 134.094744,46.1071385 134.093379,46.9858154 C134.093106,47.1292615 134.132969,47.3017846 133.894881,47.2945846 C132.711263,47.2599692 131.519727,47.3951077 130.345666,47.1644308 C128.572287,46.8155077 126.866621,45.0977538 126.606962,43.3044 C126.483823,42.4550769 126.513857,41.5764 126.540614,40.7132308 C126.568191,39.8334462 126.490102,38.9578154 126.509488,38.0799692 C126.513038,37.9326462 126.488464,37.7817231 126.560273,37.6424308 L126.560273,37.6424308 Z" id="Shape" sketch:type="MSShapeGroup"></path>
            <path d="M70.0169283,33.0931385 C69.1074403,33.0510462 68.1984983,32.9981538 67.2868259,33.0142154 C66.988942,33.0194769 66.7098976,33.0618462 66.4442321,33.1958769 C65.745802,32.2692923 64.8275768,31.8555692 63.6731741,31.8719077 C61.7799317,31.8990462 59.8858703,31.8677538 57.9923549,31.8796615 C57.6805461,31.8818769 57.5806143,31.8037846 57.5885324,31.4778462 C57.6087372,30.6531692 57.6,29.8276615 57.5822526,29.0029846 C57.5765188,28.7354769 57.6248464,28.6247077 57.9240956,28.6285846 C60.043686,28.6587692 62.1657338,28.5859385 64.2823208,28.7388 C66.9070307,28.9290462 68.8731741,30.1095692 69.8932423,32.6669538 C69.9478498,32.8037538 69.9762457,32.9508 70.0169283,33.0931385 L70.0169283,33.0931385 Z" id="Shape" sketch:type="MSShapeGroup"></path>
            <path d="M17.9060751,36.9966462 C18.1116724,36.8637231 18.3320137,36.8246769 18.5785666,36.8285538 C19.4850512,36.8429538 20.3920819,36.8349231 21.2988396,36.8354769 C21.3094881,38.5116923 21.323959,40.1876308 21.3296928,41.8638462 C21.3354266,43.5276 21.3220478,45.1913538 21.3422526,46.8542769 C21.3468942,47.2225846 21.2286689,47.3114769 20.8854608,47.3026154 C19.992628,47.2799077 19.0987031,47.2909846 18.2053242,47.2959692 C18.0065529,47.2970769 17.8817747,47.2729846 17.8828669,47.0168308 C17.8954266,43.6768615 17.8997952,40.3366154 17.9060751,36.9966462 L17.9060751,36.9966462 Z" id="Shape" sketch:type="MSShapeGroup"></path>
            <path d="M30.8636177,38.1342462 C31.0369966,37.8337846 30.9389761,37.5056308 30.9389761,37.1935385 C30.9389761,36.8141538 31.0771331,36.6604615 31.4563823,36.6668308 C32.3576792,36.6817846 33.2592491,36.6709846 34.1605461,36.6704308 C34.2353584,36.8518154 34.2102389,37.044 34.210785,37.2312 C34.21843,40.4504308 34.2195222,43.6696615 34.2350853,46.8888923 C34.2364505,47.1979385 34.1709215,47.3120308 33.8419113,47.3037231 C32.9356997,47.2801846 32.0283959,47.2904308 31.1216382,47.2987385 C30.8890102,47.3009538 30.7874403,47.2361538 30.7901706,46.9783385 C30.8193857,44.0302154 30.8404096,41.0823692 30.8636177,38.1342462 L30.8636177,38.1342462 Z" id="Shape" sketch:type="MSShapeGroup"></path>
            <path id="Shape" sketch:type="MSShapeGroup" d="M70.3082594,41.7040615 C70.2124232,41.6957538 70.116587,41.6647385 70.1067577,41.5592308 C70.094198,41.4240923 70.2015017,41.3919692 70.3109898,41.3789538 C70.3101706,41.4869538 70.3090785,41.5955077 70.3082594,41.7040615 L70.3082594,41.7040615 Z"></path>
            <path id="Shape" sketch:type="MSShapeGroup" d="M103.619386,41.7043385 C103.619659,41.3523692 103.619932,40.9998462 103.620205,40.6478769 C103.829625,40.8871385 103.829352,41.4661846 103.619386,41.7043385 L103.619386,41.7043385 Z"></path>
            <path id="Shape" sketch:type="MSShapeGroup" d="M66.8707167,41.3784 C66.8764505,41.1075692 66.8819113,40.8372923 66.8876451,40.5664615 C67.0916041,40.5517846 67.1355631,40.6772308 67.1150853,40.8453231 C67.0896928,41.0480308 67.2234812,41.3291077 66.8707167,41.3784 L66.8707167,41.3784 Z"></path>
        </g>
    </g>
</svg>