<?xml version="1.0" encoding="UTF-8" standalone="no"?>
<svg width="160px" height="15px" viewBox="0 0 160 15" version="1.1" xmlns="http://www.w3.org/2000/svg" xmlns:xlink="http://www.w3.org/1999/xlink" xmlns:sketch="http://www.bohemiancoding.com/sketch/ns">
    <title>cgsociety</title>
    <description>Created with Sketch (http://www.bohemiancoding.com/sketch)</description>
    <defs></defs>
    <g id="Page-1" stroke="none" stroke-width="1" fill="none" fill-rule="evenodd" sketch:type="MSPage">
        <path d="M151.514839,14.391 L151.514839,8.375 L159.936,0.156 L157.25729,0.156 L150.519742,6.762 L143.782194,0.156 L141.103484,0.156 L149.525677,8.375 L149.525677,14.391 L151.514839,14.391 L151.514839,14.391 Z M131.38271,14.391 L133.371871,14.391 L133.371871,1.729 L140.798968,1.729 L140.798968,0.156 L123.955613,0.156 L123.955613,1.729 L131.38271,1.729 L131.38271,14.391 L131.38271,14.391 Z M108.430452,14.391 L122.940903,14.391 L122.940903,12.818 L110.419613,12.818 L110.419613,7.844 L122.372129,7.844 L122.372129,6.271 L110.419613,6.271 L110.419613,1.729 L122.859355,1.729 L122.859355,0.156 L108.430452,0.156 L108.430452,14.391 L108.430452,14.391 Z M102.890323,14.391 L104.879484,14.391 L104.879484,0.156 L102.890323,0.156 L102.890323,14.391 L102.890323,14.391 Z M82.3122581,9.22 C82.3122581,12.818 83.5705806,14.548 87.547871,14.548 L95.0565161,14.548 C99.1762581,14.548 100.028903,13.152 100.028903,10.577 L100.028903,9.612 L98.1615484,9.612 L98.1615484,10.498 C98.1615484,12.425 97.3904516,12.975 94.7117419,12.975 L87.7512258,12.975 C85.8436129,12.975 84.3014194,12.425 84.3014194,9.947 L84.3014194,4.6 C84.3014194,2.123 85.8436129,1.572 87.7512258,1.572 L94.6508387,1.572 C96.4779355,1.572 98.020129,1.69 98.020129,4.108 L98.020129,4.757 L99.7646452,4.757 L99.7646452,3.538 C99.7646452,1.631 98.7705806,0 95.1587097,0 L87.547871,0 C83.5705806,0 82.3122581,1.729 82.3122581,5.327 L82.3122581,9.22 L82.3122581,9.22 Z M61.4699355,9.22 C61.4699355,12.818 62.7282581,14.548 66.7065806,14.548 L75.1690323,14.548 C79.1463226,14.548 80.4046452,12.818 80.4046452,9.22 L80.4046452,5.327 C80.4046452,1.729 79.1463226,0 75.1690323,0 L66.7065806,0 C62.7282581,0 61.4699355,1.729 61.4699355,5.327 L61.4699355,9.22 L61.4699355,9.22 Z M78.4154839,9.946 C78.4154839,12.425 76.8732903,12.974 74.9656774,12.974 L66.9089032,12.974 C65.0012903,12.974 63.4590968,12.424 63.4590968,9.946 L63.4590968,4.6 C63.4590968,2.123 65.0012903,1.572 66.9089032,1.572 L74.9656774,1.572 C76.8732903,1.572 78.4154839,2.124 78.4154839,4.6 L78.4154839,9.946 L78.4154839,9.946 Z M42.6776774,10.95 C42.6776774,14.055 45.2356129,14.548 48.1372903,14.548 L53.6567742,14.548 C56.5997419,14.548 59.5623226,14.292 59.5623226,10.793 L59.5623226,9.869 C59.5623226,7.451 57.9396129,6.369 54.0634839,6.369 L48.1775484,6.369 C45.0725161,6.369 44.5254194,5.799 44.5254194,4.107 C44.5254194,1.768 45.8849032,1.571 49.7197419,1.571 L51.8307097,1.571 C57.0467097,1.571 57.2903226,1.984 57.3305806,4.246 L59.1979355,4.246 L59.1979355,3.755 C59.1979355,1.219 57.9592258,0 53.028129,0 L48.7463226,0 C44.6472258,0 42.6580645,0.727 42.6580645,3.971 C42.6580645,7.746 44.6472258,8.099 50.7148387,8.099 L54.4898065,8.099 C56.9651613,8.099 57.696,8.552 57.696,10.341 C57.696,12.385 56.8433548,12.975 53.9612903,12.975 L47.7925161,12.975 C45.316129,12.975 44.5450323,12.307 44.5450323,10.912 L44.5450323,9.908 L42.6776774,9.908 L42.6776774,10.95 L42.6776774,10.95 Z M21.1458065,9.396 C21.1458065,13.564 23.5612903,14.547 27.620129,14.547 L33.0384516,14.547 C38.112,14.547 40.3034839,14.35 40.3034839,10.261 L40.3034839,6.211 L30.1976774,6.211 L30.1976774,9.16 L35.7987097,9.16 L35.7987097,9.573 C35.7987097,10.949 34.6219355,11.126 33.444129,11.126 L28.6348387,11.126 C26.3618065,11.126 25.7734194,10.595 25.7734194,8.157 L25.7734194,6.387 C25.7734194,3.949 26.3618065,3.418 28.6348387,3.418 L33.5256774,3.418 C34.9667097,3.418 35.7987097,3.595 35.7987097,5.011 L40.2229677,5.011 L40.2229677,4.561 C40.2229677,1.789 39.5127742,0 34.3979355,0 L27.620129,0 C23.5612903,0 21.1458065,0.982 21.1458065,5.149 L21.1458065,9.396 L21.1458065,9.396 Z M0,9.396 C0,13.564 2.41548387,14.547 6.47329032,14.547 L13.7393548,14.547 C18.2647742,14.547 19.1576774,12.66 19.1576774,10.261 L19.1576774,8.925 L14.651871,8.925 C14.651871,10.695 14.043871,10.891 12.0144516,10.891 L7.20412903,10.891 C5.07354839,10.891 4.62658065,10.105 4.62658065,8.04 L4.62658065,6.507 C4.62658065,4.737 5.07354839,3.655 7.44774194,3.655 L12.3592258,3.655 C13.6980645,3.655 14.4691613,3.951 14.4691613,4.973 L14.4691613,5.367 L18.9749677,5.367 C19.0152258,1.336 18.1832258,0 11.7708387,0 L6.47329032,0 C2.41548387,0 0,0.982 0,5.149 L0,9.396 L0,9.396 Z" id="Shape" fill="#999999" sketch:type="MSShapeGroup"></path>
    </g>
</svg>