<?xml version="1.0" encoding="UTF-8" standalone="no"?>
<svg width="160px" height="15px" viewBox="0 0 160 15" version="1.1" xmlns="http://www.w3.org/2000/svg" xmlns:xlink="http://www.w3.org/1999/xlink" xmlns:sketch="http://www.bohemiancoding.com/sketch/ns">
    <!-- Generator: Sketch 3.3.3 (12081) - http://www.bohemiancoding.com/sketch -->
    <title>Slice 1</title>
    <desc>Created with Sketch.</desc>
    <defs></defs>
    <g id="Page-1" stroke="none" stroke-width="1" fill="none" fill-rule="evenodd" sketch:type="MSPage">
        <g id="featuredon-cgsociety" sketch:type="MSLayerGroup" transform="translate(26.666667, 2.500000)" fill="#999999">
            <g id="Page-1" sketch:type="MSShapeGroup">
                <path d="M101.009893,9.594 L101.009893,5.58333333 L106.624,0.104 L104.838193,0.104 L100.346495,4.508 L95.854796,0.104 L94.0689893,0.104 L99.6837847,5.58333333 L99.6837847,9.594 L101.009893,9.594 L101.009893,9.594 Z M87.5884733,9.594 L88.9145807,9.594 L88.9145807,1.15266667 L93.8659787,1.15266667 L93.8659787,0.104 L82.6370753,0.104 L82.6370753,1.15266667 L87.5884733,1.15266667 L87.5884733,9.594 L87.5884733,9.594 Z M72.286968,9.594 L81.960602,9.594 L81.960602,8.54533333 L73.6130753,8.54533333 L73.6130753,5.22933333 L81.5814193,5.22933333 L81.5814193,4.18066667 L73.6130753,4.18066667 L73.6130753,1.15266667 L81.9062367,1.15266667 L81.9062367,0.104 L72.286968,0.104 L72.286968,9.594 L72.286968,9.594 Z M68.5935487,9.594 L69.919656,9.594 L69.919656,0.104 L68.5935487,0.104 L68.5935487,9.594 L68.5935487,9.594 Z M54.8748387,6.14666667 C54.8748387,8.54533333 55.7137204,9.69866667 58.3652473,9.69866667 L63.3710107,9.69866667 C66.1175054,9.69866667 66.6859353,8.768 66.6859353,7.05133333 L66.6859353,6.408 L65.4410323,6.408 L65.4410323,6.99866667 C65.4410323,8.28333333 64.9269677,8.65 63.1411613,8.65 L58.5008172,8.65 C57.2290753,8.65 56.2009463,8.28333333 56.2009463,6.63133333 L56.2009463,3.06666667 C56.2009463,1.41533333 57.2290753,1.048 58.5008172,1.048 L63.1005591,1.048 C64.3186237,1.048 65.3467527,1.12666667 65.3467527,2.73866667 L65.3467527,3.17133333 L66.5097635,3.17133333 L66.5097635,2.35866667 C66.5097635,1.08733333 65.8470537,0 63.4391398,0 L58.3652473,0 C55.7137204,0 54.8748387,1.15266667 54.8748387,3.55133333 L54.8748387,6.14666667 L54.8748387,6.14666667 Z M40.979957,6.14666667 C40.979957,8.54533333 41.8188387,9.69866667 44.4710537,9.69866667 L50.1126882,9.69866667 C52.7642151,9.69866667 53.6030968,8.54533333 53.6030968,6.14666667 L53.6030968,3.55133333 C53.6030968,1.15266667 52.7642151,0 50.1126882,0 L44.4710537,0 C41.8188387,0 40.979957,1.15266667 40.979957,3.55133333 L40.979957,6.14666667 L40.979957,6.14666667 Z M52.2769893,6.63066667 C52.2769893,8.28333333 51.2488602,8.64933333 49.9771183,8.64933333 L44.6059355,8.64933333 C43.3341935,8.64933333 42.3060645,8.28266667 42.3060645,6.63066667 L42.3060645,3.06666667 C42.3060645,1.41533333 43.3341935,1.048 44.6059355,1.048 L49.9771183,1.048 C51.2488602,1.048 52.2769893,1.416 52.2769893,3.06666667 L52.2769893,6.63066667 L52.2769893,6.63066667 Z M28.4517849,7.3 C28.4517849,9.37 30.1570753,9.69866667 32.0915269,9.69866667 L35.7711828,9.69866667 C37.7331613,9.69866667 39.7082151,9.528 39.7082151,7.19533333 L39.7082151,6.57933333 C39.7082151,4.96733333 38.6264086,4.246 36.0423226,4.246 L32.1183656,4.246 C30.0483441,4.246 29.6836129,3.866 29.6836129,2.738 C29.6836129,1.17866667 30.5899355,1.04733333 33.1464946,1.04733333 L34.5538065,1.04733333 C38.0311398,1.04733333 38.1935484,1.32266667 38.2203871,2.83066667 L39.4652903,2.83066667 L39.4652903,2.50333333 C39.4652903,0.812666667 38.6394839,0 35.352086,0 L32.4975484,0 C29.7648172,0 28.4387097,0.484666667 28.4387097,2.64733333 C28.4387097,5.164 29.7648172,5.39933333 33.8098925,5.39933333 L36.3265377,5.39933333 C37.9767742,5.39933333 38.464,5.70133333 38.464,6.894 C38.464,8.25666667 37.8955699,8.65 35.9741935,8.65 L31.8616774,8.65 C30.2107527,8.65 29.6966882,8.20466667 29.6966882,7.27466667 L29.6966882,6.60533333 L28.4517849,6.60533333 L28.4517849,7.3 L28.4517849,7.3 Z M14.0972043,6.264 C14.0972043,9.04266667 15.7075269,9.698 18.4134193,9.698 L22.0256344,9.698 C25.408,9.698 26.8689893,9.56666667 26.8689893,6.84066667 L26.8689893,4.14066667 L20.1317849,4.14066667 L20.1317849,6.10666667 L23.8658065,6.10666667 L23.8658065,6.382 C23.8658065,7.29933333 23.0812903,7.41733333 22.296086,7.41733333 L19.0898925,7.41733333 C17.5745377,7.41733333 17.1822796,7.06333333 17.1822796,5.438 L17.1822796,4.258 C17.1822796,2.63266667 17.5745377,2.27866667 19.0898925,2.27866667 L22.3504516,2.27866667 C23.3111398,2.27866667 23.8658065,2.39666667 23.8658065,3.34066667 L26.8153118,3.34066667 L26.8153118,3.04066667 C26.8153118,1.19266667 26.3418495,0 22.931957,0 L18.4134193,0 C15.7075269,0 14.0972043,0.654666667 14.0972043,3.43266667 L14.0972043,6.264 L14.0972043,6.264 Z M0,6.264 C0,9.04266667 1.61032258,9.698 4.31552688,9.698 L9.15956987,9.698 C12.1765161,9.698 12.7717849,8.44 12.7717849,6.84066667 L12.7717849,5.95 L9.767914,5.95 C9.767914,7.13 9.36258067,7.26066667 8.0096344,7.26066667 L4.80275269,7.26066667 C3.38236559,7.26066667 3.0843871,6.73666667 3.0843871,5.36 L3.0843871,4.338 C3.0843871,3.158 3.38236559,2.43666667 4.96516129,2.43666667 L8.23948387,2.43666667 C9.132043,2.43666667 9.64610753,2.634 9.64610753,3.31533333 L9.64610753,3.578 L12.6499785,3.578 C12.6768172,0.890666667 12.1221505,0 7.8472258,0 L4.31552688,0 C1.61032258,0 0,0.654666667 0,3.43266667 L0,6.264 L0,6.264 Z" id="Shape"></path>
            </g>
        </g>
    </g>
</svg>