<?xml version="1.0" encoding="UTF-8" standalone="no"?>
<svg width="160px" height="56px" viewBox="0 0 160 56" version="1.1" xmlns="http://www.w3.org/2000/svg" xmlns:xlink="http://www.w3.org/1999/xlink" xmlns:sketch="http://www.bohemiancoding.com/sketch/ns">
    <title>yahoomovies</title>
    <description>Created with Sketch (http://www.bohemiancoding.com/sketch)</description>
    <defs></defs>
    <g id="Page-1" stroke="none" stroke-width="1" fill="none" fill-rule="evenodd" sketch:type="MSPage">
        <g id="yahoo-movies" sketch:type="MSLayerGroup" fill="#999999">
            <g id="Group" sketch:type="MSShapeGroup">
                <g>
                    <path d="M158.117818,0.40775 C159.347782,0.61425 160.169891,1.3685 160.169891,2.66875 C160.169891,3.09925 159.9936,3.70416667 159.874327,4.21633333 C159.050473,7.85983333 155.831273,20.73225 154.475636,29.3265 L153.227636,28.0758333 L157.197382,1.64383333 L158.117818,0.40775 L158.117818,0.40775 Z" id="path3223"></path>
                    <path d="M77.8897455,3.906 C76.2280727,4.305 74.5966545,4.29275 72.9931636,3.906 L75.5392,6.55725 L77.8897455,3.906 L77.8897455,3.906 Z" id="path3201"></path>
                    <path d="M52.4357818,3.906 C54.0968727,4.305 55.7288727,4.29275 57.3317818,3.906 L54.7863273,6.55725 L52.4357818,3.906 L52.4357818,3.906 Z" id="path3193"></path>
                    <path d="M38.0631273,3.89491667 C41.8181818,13.4225 47.7282909,27.84425 50.6711273,33.3555833 L46.3133091,32.0203333 L35.5269818,4.97758333 L38.0631273,3.89491667 L38.0631273,3.89491667 Z" id="path3181"></path>
                    <path d="M34.6496,3.89316667 C35.8487273,4.29683333 36.8436364,4.32133333 38.0631273,3.89316667 L35.6369455,5.38941667 L34.6496,3.89316667 L34.6496,3.89316667 Z" id="path3175"></path>
                    <path d="M36.3741091,4.93383333 L47.3634909,31.9579167 C46.7147636,32.6643333 46.4244364,33.03475 45.7914182,33.3643333 C42.6053818,25.13875 39.1842909,16.912 36.2862545,8.792 L34.8561455,6.3595 L36.3741091,4.93383333 L36.3741091,4.93383333 Z" id="path3177"></path>
                    <path d="M26.9213091,33.355 L23.6765091,32.20175 L35.1016727,5.32933333 L36.3752727,4.935 L36.3752727,8.91333333 C34.5984,14.0525 30.0910545,25.3271667 26.9213091,33.355 L26.9213091,33.355 L26.9213091,33.355 Z" id="path3173"></path>
                    <path d="M24.2309818,-0.0215833333 L25.3073455,2.43366667 L28.0500364,1.15675 L29.1659636,-0.0215833333 C27.4013091,0.378583333 25.8106182,0.392583333 24.2309818,-0.0215833333 L24.2309818,-0.0215833333 Z" id="path3167"></path>
                    <path d="M16.4939636,21.38325 L14.6333091,22.071 L13.4574545,20.0083333 L25.1130182,1.35158333 L25.9456,1.06633333 C27.0970182,0.80675 28.3496727,0.525583333 29.1677091,-0.0215833333 C27.3157818,2.485 20.5771636,14.20125 16.4939636,21.38325 L16.4939636,21.38325 L16.4939636,21.38325 Z" id="path3165"></path>
                    <path d="M13.9479273,21.08925 L14.4372364,20.5986667 L25.9665455,1.06341667 L24.2309818,-0.021 C22.8386909,2.57833333 17.7053091,10.9894167 14.4372364,16.3753333 L12.8704,19.3223333 L13.9479273,21.08925 L13.9479273,21.08925 Z" id="path3163"></path>
                    <path d="M4.64407273,-0.0215833333 C7.2,4.51908333 11.1237818,10.87275 14.4372364,16.37475 L14.4372364,20.5975 L13.6546909,21.3826667 L2.19636364,0.959583333 L4.64407273,-0.0215833333 L4.64407273,-0.0215833333 Z" id="path3161"></path>
                    <path d="M2.75490909,1.21333333 L4.64407273,-0.0215833333 C2.61818182,0.41125 1.76930909,0.439833333 -0.252509091,-0.0215833333 L0.530618182,0.861 L2.75490909,1.21333333 L2.75490909,1.21333333 Z" id="path3159"></path>
                    <path d="M14.4366545,20.5986667 L13.5557818,21.8744167 L12.3805091,21.3838333 C10.1922909,17.5921667 3.75970909,6.04275 -0.253090909,-0.021 C0.560290909,0.5705 1.65992727,0.894833333 2.92945455,1.10016667 L14.4366545,20.5986667 L14.4366545,20.5986667 Z" id="path3157"></path>
                    <path d="M16.7889455,37.191 L13.4574545,35.6200833 L13.7512727,21.6778333 L14.4366545,20.5980833 L16.4939636,21.3826667 L16.7889455,37.191 L16.7889455,37.191 Z" id="path3155"></path>
                    <path d="M14.4366545,36.1106667 L12.0866909,37.191 L12.3805091,21.3826667 L14.4366545,20.5980833 L14.4366545,36.1106667 L14.4366545,36.1106667 Z" id="path3153"></path>
                    <path d="M22.0753455,33.362 C26.1620364,25.0121667 30.7054545,13.8145 34.6496,3.89316667 L36.3746909,4.935 L25.2194909,32.2921667 L22.9568,33.0674167 L22.0753455,33.362 L22.0753455,33.362 Z" id="path3171"></path>
                    <path d="M47.2471273,31.9095 L50.6757818,33.35675 C49.3602909,33.02425 47.5810909,32.8970833 45.7908364,33.3655 L46.4593455,31.7123333 L47.2471273,31.9095 L47.2471273,31.9095 Z" id="path3179"></path>
                    <path d="M28.7365818,23.7014167 L31.1488,22.66425 C34.6205091,22.7879167 38.0939636,22.785 41.5656727,22.66425 L44.0110545,23.73175 L41.7344,24.2310833 L30.4634182,24.2310833 L28.7365818,23.7014167 L28.7365818,23.7014167 Z" id="path3185"></path>
                    <path d="M30.3429818,24.72225 L28.7232,23.7014167 C33.8106182,23.6238333 38.9044364,23.6308333 44.0058182,23.7311667 L42.3877818,24.72225 C38.3726545,24.59275 34.3575273,24.6073333 30.3429818,24.72225 L30.3429818,24.72225 Z" id="path3183"></path>
                    <path d="M57.3317818,33.362 L53.9042909,32.1836667 L53.9042909,5.77091667 L54.8852364,5.28033333 L57.3323636,3.90658333 C56.8244364,13.7071667 56.8128,23.5264167 57.3317818,33.362 L57.3317818,33.362 Z" id="path3191"></path>
                    <path d="M54.8846545,31.9876667 L54.8846545,32.67425 L52.4357818,33.3614167 C52.8250182,23.5573333 52.8616727,13.7415833 52.4357818,3.90541667 L54.8846545,5.27916667 L54.8846545,31.9876667 L54.8846545,31.9876667 Z" id="path3189"></path>
                    <path d="M72.9931636,33.362 L76.4206545,32.1836667 L76.4206545,5.77091667 L75.4408727,5.28033333 L72.9931636,3.90658333 C73.5022545,13.7071667 73.5133091,23.5264167 72.9931636,33.362 L72.9931636,33.362 Z" id="path3199"></path>
                    <path d="M54.8939636,18.5739167 L56.9512727,17.65225 C62.4203636,17.7905 67.8964364,17.7805833 73.376,17.65225 L75.4408727,18.5739167 L72.8878545,19.1846667 L56.9349818,19.1846667 L54.8939636,18.5739167 L54.8939636,18.5739167 Z" id="path3205"></path>
                    <path d="M95.1744,3.89491667 C85.5552,3.89491667 80.7557818,9.92366667 80.7557818,18.69 C80.7557818,29.6695 88.0215273,33.4745833 95.0487273,33.4745833 C103.396655,33.4745833 109.380655,28.7659167 109.380655,18.7174167 C109.380655,9.0475 103.715491,3.89491667 95.1744,3.89491667 L95.1744,3.89491667 L95.1744,3.89491667 Z M94.8864,5.29433333 C94.9771636,5.29258333 95.0679273,5.29433333 95.1581091,5.29433333 C101.5104,5.29433333 106.176582,9.632 106.176582,18.6964167 C106.176582,27.7509167 101.515636,32.0874167 95.1703273,32.0874167 C88.2461091,32.0874167 84.1774545,27.11275 84.1774545,18.7215 C84.1780364,9.23066667 89.1921455,5.411 94.8864,5.29433333 L94.8864,5.29433333 Z" id="path3207"></path>
                    <path d="M95.1412364,3.50758333 C84.7522909,3.50758333 79.3029818,10.1115 79.3029818,18.6713333 C79.3029818,28.0408333 85.2526545,33.7563333 95.1255273,33.7563333 C105.798982,33.7563333 111.010909,27.31575 111.010909,18.7699167 C111.010909,9.24175 104.786036,3.50758333 95.1412364,3.50758333 L95.1412364,3.50758333 Z M95.1709091,4.48408333 C103.372218,4.48408333 108.811636,9.43075 108.811636,18.7156667 C108.811636,28.3616667 103.065018,32.8854167 95.0487273,32.8854167 C88.3008,32.8854167 81.3259636,29.2331667 81.3259636,18.6905833 C81.3259636,10.2730833 85.9362909,4.48408333 95.1709091,4.48408333 L95.1709091,4.48408333 L95.1709091,4.48408333 Z" id="path3209"></path>
                    <path d="M131.066764,2.38816667 C121.304436,2.38816667 114.617018,7.92108333 114.617018,18.7045833 C114.617018,29.2856667 120.839564,35.1948333 131.106327,35.1948333 C138.883491,35.1948333 147.403636,31.1908333 147.403636,18.8556667 C147.403636,5.544 138.095709,2.38816667 131.066764,2.38816667 L131.066764,2.38816667 Z M131.015564,3.56591667 C138.783418,3.56591667 144.505018,8.29733333 144.505018,18.7325833 C144.505018,30.07725 137.583709,33.75575 131.0272,33.75575 C124.023273,33.75575 117.640145,29.6345 117.640145,18.5085833 C117.640145,6.97841667 124.713309,3.56591667 131.015564,3.56591667 L131.015564,3.56591667 Z" id="path3213"></path>
                    <path d="M131.004509,1.73483333 C120.657455,1.73483333 112.751127,7.62358333 112.751127,18.5750833 C112.751127,27.5963333 118.010182,35.5360833 131.088291,35.5360833 C142.160291,35.5360833 149.3888,29.4326667 149.3888,18.7331667 C149.3888,8.64383333 142.646109,1.73483333 131.004509,1.73483333 L131.004509,1.73483333 L131.004509,1.73483333 Z M131.066764,2.83266667 C137.905455,2.83266667 146.959709,5.90566667 146.959709,18.8556667 C146.959709,30.85425 138.668218,34.7503333 131.102836,34.7503333 C121.114764,34.7503333 115.064436,29.001 115.064436,18.7080833 C115.063855,8.21858333 121.570327,2.83266667 131.066764,2.83266667 L131.066764,2.83266667 Z" id="path3215"></path>
                    <path d="M150.188218,35.0478333 C150.188218,33.78025 150.956218,32.6030833 152.496291,32.6030833 C153.9712,32.6030833 155.075491,33.4868333 155.075491,34.8990833 C155.075491,36.6584167 153.914182,37.3059167 152.849455,37.3059167 C151.378036,37.3065 150.188218,36.54175 150.188218,35.0478333 L150.188218,35.0478333 L150.188218,35.0478333 Z" id="path3217"></path>
                    <path d="M152.648145,29.0441667 C153.841455,20.5840833 154.568727,11.69 155.265745,2.82275 C155.265745,1.05583333 156.430545,0.365166667 157.6064,0.365166667 C157.812945,0.365166667 158.116073,0.40775 158.116073,0.40775 L157.797236,2.527 L153.607564,28.81025 L152.648145,29.0441667 L152.648145,29.0441667 Z" id="path3221"></path>
                    <path d="M12.0866909,37.191 L14.4413091,35.4614167 L16.7889455,37.191 C16.7889455,37.191 15.488,36.95475 14.4413091,36.95475 C13.4987636,36.95475 12.0866909,37.191 12.0866909,37.191 L12.0866909,37.191 Z" id="path3151"></path>
                    <path d="M22.0753455,33.3655 L25.3602909,31.94275 C25.8618182,32.5441667 26.3074909,33.0545833 26.9230545,33.3573333 C25.7402182,33.0359167 23.9505455,32.8924167 22.0753455,33.3625833 L22.0753455,33.3655 L22.0753455,33.3655 Z" id="path3169"></path>
                    <path d="M52.4357818,33.362 C54.0258909,32.9781667 55.6544,32.9606667 57.3253818,33.362 L54.8846545,31.98825 L52.4357818,33.362 L52.4357818,33.362 Z" id="path3187"></path>
                    <path d="M56.9512727,19.6618333 L54.8898909,18.5739167 C61.7384727,18.6445 68.5905455,18.6561667 75.4402909,18.5739167 L73.3806545,19.6554167 C67.9034182,19.5819167 62.4279273,19.5865833 56.9512727,19.6618333 L56.9512727,19.6618333 L56.9512727,19.6618333 Z" id="path3203"></path>
                    <path d="M75.4408727,31.9876667 L75.4408727,32.67425 L77.8897455,33.3614167 C77.5016727,23.5573333 77.4638545,13.7415833 77.8897455,3.90541667 L75.4408727,5.27916667 L75.4408727,31.9876667 L75.4408727,31.9876667 Z" id="path3197"></path>
                    <path d="M77.8897455,33.362 C76.2996364,32.9781667 74.6711273,32.9606667 72.9989818,33.362 L75.4408727,31.98825 L77.8897455,33.362 L77.8897455,33.362 Z" id="path3195"></path>
                    <path d="M153.728,28.0525 L152.642909,29.0441667 C153.370182,28.917 153.9328,29.1089167 154.479127,29.3276667 L153.728,28.0525 L153.728,28.0525 Z" id="path3219"></path>
                    <path d="M160.110545,2.50716667 C160.110545,3.66275 159.042909,4.59841667 157.724509,4.59841667 C156.407273,4.59841667 155.337309,3.66275 155.337309,2.50716667 C155.337309,1.35275 156.407273,0.41825 157.724509,0.41825 C159.042909,0.41825 160.110545,1.35333333 160.110545,2.50716667 L160.110545,2.50716667 Z" id="path3507"></path>
                </g>
                <g transform="translate(39.563636, 40.833333)" id="Shape">
                    <path d="M-0.209454545,0.0624166667 L3.30181818,0.0624166667 L8.38283636,10.1371667 L13.4010182,0.0624166667 L16.8407273,0.0624166667 L16.8407273,14.8073333 L13.2369455,14.8073333 L13.2369455,5.19866667 L8.43461818,14.8073333 L7.04,14.8073333 L2.07301818,5.08491667 L2.07301818,14.8073333 L-0.209454545,14.8073333 L-0.209454545,0.0624166667 L-0.209454545,0.0624166667 Z"></path>
                    <path d="M28.0872727,15.1380833 C27.2954182,15.1380833 26.5378909,15.0505833 25.8152727,14.8744167 C25.0926545,14.69825 24.4212364,14.4485833 23.8016,14.1230833 C23.1819636,13.7981667 22.6176,13.405 22.1085091,12.9435833 C21.5988364,12.4804167 21.1648,11.9595 20.8075636,11.3796667 C20.4485818,10.7998333 20.1728,10.1698333 19.9761455,9.49083333 C19.7800727,8.81008333 19.6811636,8.09025 19.6811636,7.33133333 C19.6811636,6.58525 19.7794909,5.88 19.9761455,5.21383333 C20.1722182,4.54766667 20.4485818,3.93458333 20.8075636,3.37575 C21.1648,2.81633333 21.5988364,2.31 22.1085091,1.85908333 C22.6176,1.407 23.1813818,1.0255 23.8016,0.71575 C24.4212364,0.404833333 25.0932364,0.165083333 25.8152727,-0.00408333333 C26.5378909,-0.173833333 27.2954182,-0.257833333 28.0872727,-0.257833333 C28.8791273,-0.257833333 29.6360727,-0.173833333 30.3592727,-0.00408333333 C31.0818909,0.165083333 31.7533091,0.406583333 32.3723636,0.721 C32.992,1.03483333 33.5569455,1.41575 34.0660364,1.86433333 C34.5757091,2.31291667 35.0097455,2.81633333 35.3669818,3.37575 C35.7253818,3.93458333 36.0023273,4.54591667 36.1984,5.208 C36.3944727,5.87125 36.4928,6.57183333 36.4928,7.31091667 C36.4928,8.09025 36.3944727,8.82583333 36.1984,9.51591667 C36.0023273,10.2071667 35.7253818,10.8418333 35.3669818,11.4210833 C35.0097455,12.0009167 34.5757091,12.5206667 34.0660364,12.9785833 C33.5569455,13.43825 32.992,13.8279167 32.3723636,14.1493333 C31.7527273,14.47075 31.0813091,14.71575 30.3592727,14.8849167 C29.6360727,15.0540833 28.8791273,15.1380833 28.0872727,15.1380833 L28.0872727,15.1380833 Z M28.0872727,13.8850833 C28.8029091,13.8850833 29.4353455,13.72175 29.9816727,13.3939167 C30.5291636,13.0655 30.9893818,12.6099167 31.3605818,12.0265833 C31.7335273,11.4438333 32.0128,10.752 32.2030545,9.9505 C32.3915636,9.14958333 32.4864,8.2775 32.4864,7.33133333 C32.4864,6.39975 32.3909818,5.54516667 32.2030545,4.76816667 C32.0128,3.99291667 31.7329455,3.32441667 31.3605818,2.765 C30.9893818,2.20558333 30.5291636,1.77041667 29.9816727,1.46066667 C29.4359273,1.14975 28.8029091,0.994 28.0872727,0.994 C27.3646545,0.994 26.7281455,1.14975 26.176,1.46066667 C25.6261818,1.771 25.1665455,2.20558333 24.7988364,2.765 C24.4305455,3.32441667 24.1506909,3.99291667 23.9616,4.76816667 C23.7719273,5.54516667 23.6776727,6.39975 23.6776727,7.33133333 C23.6776727,8.2775 23.7719273,9.14958333 23.9616,9.9505 C24.1506909,10.7525833 24.4305455,11.4438333 24.7988364,12.0265833 C25.1665455,12.6099167 25.6261818,13.0655 26.176,13.3939167 C26.7275636,13.72175 27.3646545,13.8850833 28.0872727,13.8850833 L28.0872727,13.8850833 Z"></path>
                    <path d="M40.5928727,0.0624166667 L45.4580364,10.2503333 L49.9601455,0.0624166667 L52.2833455,0.0624166667 L45.6645818,15.0348333 L43.9697455,15.0348333 L36.8657455,0.0624166667 L40.5928727,0.0624166667 L40.5928727,0.0624166667 Z"></path>
                    <path d="M54.2452364,0.0624166667 L57.8501818,0.0624166667 L57.8501818,14.8073333 L54.2452364,14.8073333 L54.2452364,0.0624166667 L54.2452364,0.0624166667 Z"></path>
                    <path d="M72.5975273,0.0624166667 L72.5975273,1.31541667 L65.2241455,1.31541667 L65.2241455,6.18158333 L71.3477818,6.18158333 L71.3477818,7.44566667 L65.2241455,7.44566667 L65.2241455,13.2959167 L72.5975273,13.2959167 L72.5975273,14.8073333 L61.6192,14.8073333 L61.6192,0.0624166667 L72.5975273,0.0624166667 L72.5975273,0.0624166667 Z"></path>
                    <path d="M80.6429091,15.0348333 C79.7608727,15.0348333 78.9893818,14.931 78.3284364,14.7239167 C77.6686545,14.5168333 77.1054545,14.2304167 76.6411636,13.8646667 C76.1757091,13.4989167 75.808,13.06375 75.5357091,12.5603333 C75.264,12.05575 75.0760727,11.5039167 74.9725091,10.9036667 L77.4725818,10.9036667 C77.5616,11.2688333 77.6890182,11.6135833 77.8542545,11.9344167 C78.0189091,12.2546667 78.2289455,12.5329167 78.4843636,12.7668333 C78.7397818,13.0025 79.0423273,13.1868333 79.3931636,13.3221667 C79.7445818,13.4563333 80.1506909,13.524 80.6120727,13.524 C80.9216,13.524 81.2270545,13.49075 81.5261091,13.4254167 C81.8257455,13.3600833 82.0945455,13.2545 82.3313455,13.10925 C82.5687273,12.9645833 82.7607273,12.77325 82.9050182,12.53525 C83.0498909,12.29725 83.1220364,12.005 83.1220364,11.66025 C83.1220364,11.2186667 83.0097455,10.82725 82.7869091,10.4895 C82.5634909,10.1511667 82.2667636,9.84258333 81.8990545,9.56316667 C81.5296,9.28316667 81.1106909,9.02241667 80.6382545,8.7815 C80.1669818,8.54 79.6869818,8.29675 79.1970909,8.05175 C78.7089455,7.80616667 78.2283636,7.55066667 77.7570909,7.28466667 C77.2846545,7.01983333 76.8657455,6.72116667 76.4962909,6.38925 C76.1285818,6.0585 75.8318545,5.68516667 75.6084364,5.271 C75.3856,4.85683333 75.2733091,4.38083333 75.2733091,3.843 C75.2733091,3.25558333 75.4007273,2.7125 75.6555636,2.21141667 C75.9104,1.7115 76.2804364,1.27808333 76.7645091,0.912916667 C77.2503273,0.547166667 77.8443636,0.26075 78.5472,0.0536666667 C79.2488727,-0.154 80.0471273,-0.25725 80.9425455,-0.25725 C81.6866909,-0.25725 82.3569455,-0.154 82.9568,0.0536666667 C83.5549091,0.26075 84.0837818,0.54075 84.5416727,0.896583333 C85.0001455,1.25241667 85.3853091,1.67183333 85.6977455,2.15483333 C86.0113455,2.63841667 86.2504727,3.1605 86.4157091,3.71875 L84.1437091,3.71875 C84.0133818,3.36641667 83.8621091,3.031 83.6893091,2.71425 C83.5170909,2.3975 83.3035636,2.11691667 83.0493091,1.87541667 C82.7938909,1.63391667 82.4878545,1.442 82.1294545,1.30025 C81.7722182,1.1585 81.3416727,1.08791667 80.8389818,1.08791667 C80.3712,1.08791667 79.9749818,1.14975 79.6509091,1.27458333 C79.328,1.39883333 79.0667636,1.55516667 78.8666182,1.74533333 C78.6664727,1.9355 78.5239273,2.14725 78.4378182,2.38291667 C78.3517091,2.61683333 78.3086545,2.849 78.3086545,3.0765 C78.3086545,3.46908333 78.4244364,3.82666667 78.6548364,4.14808333 C78.8852364,4.46833333 79.1918545,4.76525 79.5746909,5.03825 C79.9557818,5.31125 80.3880727,5.57316667 80.8709818,5.82516667 C81.3527273,6.07716667 81.8461091,6.33033333 82.3528727,6.58583333 C82.8584727,6.84191667 83.3541818,7.10791667 83.8388364,7.38325 C84.3246545,7.66033333 84.7575273,7.96483333 85.1397818,8.29908333 C85.5232,8.6345 85.8292364,9.0055 86.0596364,9.41266667 C86.2900364,9.81983333 86.4058182,10.2789167 86.4058182,10.7893333 C86.4058182,11.3901667 86.2818909,11.9478333 86.0340364,12.4623333 C85.7861818,12.97625 85.4190545,13.4248333 84.9344,13.8080833 C84.4485818,14.1913333 83.8464,14.4911667 83.1266909,14.70875 C82.4069818,14.92575 81.5790545,15.0348333 80.6429091,15.0348333 L80.6429091,15.0348333 Z"></path>
                </g>
            </g>
        </g>
    </g>
</svg>