<?xml version="1.0" encoding="UTF-8" standalone="no"?>
<svg width="196px" height="42px" viewBox="0 0 196 42" version="1.1" xmlns="http://www.w3.org/2000/svg" xmlns:xlink="http://www.w3.org/1999/xlink" xmlns:sketch="http://www.bohemiancoding.com/sketch/ns">
    <title>featuredon-</title>
    <description>Created with Sketch (http://www.bohemiancoding.com/sketch)</description>
    <defs></defs>
    <g id="Page-1" stroke="none" stroke-width="1" fill="none" fill-rule="evenodd" sketch:type="MSPage">
        <g id="cinemania" sketch:type="MSLayerGroup" transform="translate(14.000000, 4.000000)" fill="#999999">
            <path d="M98.5569647,27.9577203 C101.634155,20.6104568 104.711736,13.2635724 107.861014,5.74493977 C108.117804,6.00464747 108.334848,6.13127866 108.409274,6.31326362 C111.893276,14.7967957 115.365977,23.2848774 118.832833,31.7752339 C118.921288,31.9909619 118.933757,32.2362625 119,32.5573901 L113.212294,32.5573901 C112.71625,31.2918364 112.258003,30.1233413 111.779493,28.9040421 L103.86733,28.9040421 C103.415318,30.0164251 102.924339,31.2247294 102.443491,32.408769 C100.813519,32.8603192 95.9349038,32.9824008 92.3445234,32.6457286 C91.6462423,28.9749404 90.9362713,25.2408365 90.2259106,21.5059744 C90.0938139,21.4836055 89.9621068,21.4616156 89.8300101,21.4388675 C87.5321511,25.5452822 85.2339024,29.6520761 82.8004397,34 C80.0260194,29.7142543 77.7269913,25.3659512 75.0001103,20.9888339 C74.7893011,21.5446462 74.5878439,21.9086162 74.5145867,22.2953342 C73.9647683,25.2074726 73.4480715,28.124919 72.9005911,31.0374366 C72.798109,31.5837706 72.6052245,32.11456 72.4388372,32.7067694 L66,32.7067694 C68.0917259,22.8628998 70.04551,13.1020608 72.1902304,3.05421635 C75.8994589,9.10900752 79.1410884,14.9738519 82.7774494,20.7897878 C86.2139118,14.8187855 89.5245122,9.06578609 93.0159175,3 C94.8227977,11.58969 96.544341,19.7744634 98.2654947,27.9584786 C98.3636905,27.9580994 98.4603276,27.9580994 98.5569647,27.9577203 L98.5569647,27.9577203 Z M107.0459,18 C106.300631,20.1813218 105.691661,21.9631188 105,23.986823 C106.461107,23.910849 107.687807,24.1523781 109,23.8121963 C108.37246,21.9457317 107.782411,20.1919052 107.0459,18 L107.0459,18 Z" id="Shape" sketch:type="MSShapeGroup"></path>
            <path d="M36.4717989,19.0286566 L36.4717989,32.515338 L31.291321,32.515338 C31.2717956,32.4972594 31.2210296,32.4564862 31.1772927,32.4095586 C31.1355084,32.3641696 31.068341,32.3118569 31.068341,32.2626214 C31.0410055,23.5529378 31.0179655,14.8440235 31.0000021,6.13472449 C30.9996116,5.82661794 31.0531112,5.51889605 31.1007532,5 C35.8477673,9.79853832 40.4565416,14.4566785 45.3433575,19.3967689 L45.3433575,5.45042793 C47.1920219,5.29464372 48.9122092,5.36734301 50.6175573,5.40311568 C51.0100177,6.78132513 51.1552866,29.422733 50.7893807,33 C46.0970377,28.2560823 41.4878729,23.5960188 36.8787081,18.93634 C36.7435924,18.9667276 36.6076956,18.9978844 36.4717989,19.0286566 L36.4717989,19.0286566 Z" id="Shape" sketch:type="MSShapeGroup"></path>
            <path d="M139.869269,33 C135.097779,28.3073547 130.487849,23.7739595 125.659773,19.0259879 L125.659773,32.2859912 C124.705631,32.8388807 123.777636,32.5274832 122.899591,32.5858001 C122.065253,32.6411265 121.224281,32.5977626 120.418431,32.5977626 C119.989165,31.169745 119.8358,10.1476061 120.219018,6 C122.048083,7.3618503 123.388954,8.99921081 124.922216,10.4317143 C126.504257,11.9094509 127.964543,13.5075596 129.558292,14.9722122 C131.145016,16.4305098 132.832033,17.7893695 134.432026,19.1553319 C134.673976,17.2447041 134.473782,15.0447346 134.512025,12.8567275 C134.549879,10.6870379 134.52022,8.51622684 134.52022,6.23177249 L139.701075,6.23177249 C139.710831,6.2403705 139.759611,6.28149143 139.803708,6.32672445 C139.847025,6.37120981 139.920781,6.41980727 139.921171,6.46690942 C139.95239,15.0009969 139.978537,23.5350843 140,32.0691718 C140,32.2923462 139.939122,32.5158946 139.869269,33 L139.869269,33 Z" id="Shape" sketch:type="MSShapeGroup"></path>
            <path d="M22.9387702,9.95836772 C21.4719508,11.3935265 20.0898518,12.7468026 18.7073678,14.0993411 C15.1610459,10.7229743 10.9284883,11.4684011 8.40959466,13.7699664 C5.57415455,16.3614404 5.41742168,20.7133906 7.99369417,23.6176414 C10.5865256,26.5403343 14.8186982,26.6771742 18.7732187,23.8850509 C20.4148704,24.9978429 21.6490936,26.5362771 23,27.9467235 C19.8460879,31.9394229 10.4559791,34.2837737 4.1597078,28.6718641 C-1.35520972,23.7559567 -1.35983084,14.3280222 3.9875712,9.4611706 C9.26180557,4.66071027 18.4959517,4.8790639 22.9387702,9.95836772 L22.9387702,9.95836772 Z" id="Shape" sketch:type="MSShapeGroup"></path>
            <path d="M52,31.9996306 L52,6.31002945 C53.3987188,5.97538611 63.6649479,5.87861287 66.8532937,6.18481522 C67.0996474,7.78452856 66.9648655,9.40307945 66.9489848,11.1449977 L58.2142204,11.1449977 C57.8583309,12.8171063 58.045234,14.3824689 58.0888039,16.1495039 L65.5922073,16.1495039 L65.5922073,21.3944657 L58.0932831,21.3944657 C57.9662379,23.2335266 58.0326109,24.9255808 58.045234,26.8252173 L66.9123372,26.8252173 L66.9123372,32 C61.9050462,31.9996306 57.0056622,31.9996306 52,31.9996306 L52,31.9996306 Z" id="Shape" sketch:type="MSShapeGroup"></path>
            <path d="M158.097234,5 C161.809606,14.1730842 165.379925,22.9949864 169,31.9394462 L163.146956,31.9394462 C162.710922,30.7607189 162.282483,29.6033549 161.809606,28.3268064 L154.00808,28.3268064 C153.619903,29.3529925 153.182349,30.5069833 152.694658,31.7959001 C150.938745,32.1680705 149.112945,31.9147098 147,31.9285771 C150.715031,22.9125317 154.340044,14.1172399 158.097234,5 L158.097234,5 Z M159,23 C158.366309,21.2704511 157.770639,19.6447096 157.175321,18.0196579 C157.069354,18.0127604 156.963739,18.0065526 156.858476,18 C156.249428,19.638157 155.64038,21.2766588 155,23 L159,23 L159,23 Z" id="Shape" sketch:type="MSShapeGroup"></path>
            <path d="M145.513482,0 C146.070229,1.11629782 146.491229,1.96075109 147,2.98103573 C145.572243,3.8806291 144.173123,4.7624851 142.453418,5.84600734 L145.732908,5.84600734 C145.927788,6.07042369 145.970557,6.11708069 146.010351,6.16566568 C146.049774,6.21309387 146.120808,6.26245005 146.12118,6.31103503 C146.151305,14.7208642 146.177338,23.1306934 146.197793,31.5401369 C146.198909,31.9804866 146.147958,32.4204506 146.112998,33 L141.229096,33 C141.178516,32.6456381 141.067687,32.2264962 141.066944,31.8073544 C141.056902,23.7164123 141.057646,15.6250847 141.062109,7.53414269 C141.062853,6.84662663 140.898097,6.07852118 141.776545,5.70642191 C141.527738,5.16967353 141.292692,4.66223038 141,4.02985441 C142.437054,2.7473651 143.873737,1.4641046 145.513482,0 L145.513482,0 Z" id="Shape" sketch:type="MSShapeGroup"></path>
            <path d="M24,31.993836 L24,6 L28.7014605,6 C29.0092335,7.43572652 29.1210517,28.2848758 28.8340397,31.8649318 C28.0545908,31.9067886 27.2456395,31.9660549 26.4355955,31.9890206 C25.6688946,32.0105047 24.9011011,31.993836 24,31.993836 L24,31.993836 Z" id="Shape" sketch:type="MSShapeGroup"></path>
        </g>
    </g>
</svg>