<?xml version="1.0" encoding="UTF-8" standalone="no"?>
<svg width="70px" height="56px" viewBox="0 0 70 56" version="1.1" xmlns="http://www.w3.org/2000/svg" xmlns:xlink="http://www.w3.org/1999/xlink" xmlns:sketch="http://www.bohemiancoding.com/sketch/ns">
    <!-- Generator: Sketch 3.3.3 (12081) - http://www.bohemiancoding.com/sketch -->
    <title>Slice 1</title>
    <desc>Created with Sketch.</desc>
    <defs></defs>
    <g id="Page-1" stroke="none" stroke-width="1" fill="none" fill-rule="evenodd" sketch:type="MSPage">
        <g id="foxnews" sketch:type="MSLayerGroup" fill="#999999">
            <path d="M69.9738725,39.4366719 L69.9738725,56.0065319 C69.8420373,56.0037014 69.7104199,55.9984759 69.5786936,55.9984759 C46.6971851,55.9981493 23.8156765,55.9981493 0.934276827,55.9981493 L0.54377916,55.9981493 C0.643934681,55.8345257 0.71088647,55.7222862 0.78066874,55.6118974 C3.83225505,50.7867963 6.88286159,45.961042 9.93978227,41.1392068 C10.0829393,40.9135303 10.1447745,40.6914463 10.1431415,40.4262519 C10.1350855,39.1635303 10.1418351,37.9006998 10.1432504,36.6377605 C10.1433593,36.5377138 10.1432504,36.4374495 10.1432504,36.3108398 C10.9827061,36.3108398 11.782535,36.2950544 12.5811664,36.3187869 C12.884028,36.3278227 13.0495023,36.2288647 13.2099689,35.974339 C16.4899533,30.7700622 19.7807154,25.5724261 23.062986,20.3695645 C23.147465,20.2357698 23.1996112,20.0571229 23.2008087,19.8988336 C23.2111509,18.4475583 23.2069051,16.996283 23.2069051,15.5450078 L23.2069051,15.1866252 L23.5493935,15.1866252 C24.3692535,15.1866252 25.1893313,15.1773717 26.0089736,15.1922862 C26.2531571,15.1968585 26.3952255,15.126423 26.5291291,14.9131571 C28.2475583,12.1765163 29.9780715,9.44749611 31.7012908,6.71390358 C31.8058009,6.54810264 31.8881026,6.45611198 32.1204199,6.51674961 C36.3408865,7.61944012 40.3791135,9.1881804 44.2330327,11.2303733 C46.4004199,12.3790047 48.4833281,13.6655677 50.4787092,15.0923484 C50.7440124,15.2819907 51.0102955,15.2134059 51.2895334,15.1641991 C48.4259565,13.0300156 45.3814463,11.2178538 42.1662364,9.69091757 C38.9459098,8.16158631 35.6068118,6.95482115 32.1319596,6.05265941 C32.1960809,5.94608087 32.2330949,5.88174184 32.2727216,5.81914463 C33.1231726,4.47314152 33.9758009,3.12855365 34.8235303,1.78069984 C35.1787558,1.2159098 35.5233126,0.644587869 35.8727683,0.0762052877 L69.9738725,0.0762052877 L69.9738725,38.3056765 C69.4136547,37.1565008 68.85507,36.006563 68.2919129,34.8589114 C68.1361275,34.5415708 68.0149611,34.504339 67.6695334,34.6439036 C67.6832504,34.678196 67.6951166,34.7134681 67.7110109,34.7466719 C68.4325661,36.2678383 69.1541213,37.7886781 69.8775272,39.3088647 C69.8998445,39.356112 69.9413219,39.3942146 69.9738725,39.4366719 L69.9738725,39.4366719 Z M44.4893002,15.8661586 C39.3901866,15.8590824 35.25507,19.9277916 35.2410264,24.9659409 C35.2270918,29.969689 39.3711353,34.0646345 44.4548989,34.0704044 C49.562395,34.076283 53.706112,30.0161742 53.7258165,24.9864075 C53.7453033,19.9824417 49.5837325,15.873126 44.4893002,15.8661586 L44.4893002,15.8661586 Z M43.4754432,46.3815863 C43.456283,46.383437 43.437014,46.3852877 43.4179627,46.3871384 C43.3985848,46.3073406 43.3768118,46.2279782 43.3602644,46.1475272 C42.7472473,43.1866252 42.1313997,40.2261586 41.5276361,37.2635148 C41.4751633,37.005832 41.3897045,36.9115552 41.1112286,36.9158009 C39.9239502,36.9337636 38.7362364,36.9230949 37.5486314,36.9240747 C37.4478227,36.9240747 37.347014,36.9327838 37.2258476,36.9383359 C37.2452255,37.0407776 37.2563297,37.1136081 37.272986,37.1852411 C37.5024728,38.176563 37.7321773,39.1679938 37.9629705,40.1589891 C38.9689891,44.4798289 39.9770762,48.8002333 40.9771073,53.1224883 C41.0297978,53.3506687 41.1236392,53.419689 41.356283,53.4168585 C42.4400311,53.4039036 43.5241058,53.4047745 44.6078538,53.4162053 C44.8371229,53.4186003 44.934339,53.3606843 44.981804,53.1215086 C45.5593313,50.2014308 46.1488336,47.2837481 46.7363764,44.3657387 C46.7493313,44.301182 46.7762208,44.2396734 46.817916,44.1111042 C46.8494868,44.2470762 46.8654899,44.3102177 46.8787714,44.3740124 C47.4850389,47.2883204 48.0935925,50.2019751 48.6922395,53.1176983 C48.7391602,53.3462053 48.8232037,53.4203421 49.0607465,53.4171851 C50.0972473,53.4028149 51.1344012,53.4022706 52.170902,53.4169673 C52.4392535,53.4207776 52.5578072,53.3552411 52.623126,53.0734992 C53.8215086,47.917014 55.0324106,42.763577 56.2400467,37.6092691 C56.2905599,37.3938258 56.3356299,37.1768585 56.3876672,36.9404044 C56.2656299,36.9332193 56.1825661,36.9240747 56.0996112,36.9239658 C55.1570607,36.922986 54.2145101,36.9320218 53.2720684,36.917325 C53.0347434,36.9136236 52.9497201,36.9901555 52.9017107,37.2171384 C52.3174339,39.972395 51.723577,42.7255832 51.1309176,45.479098 C51.0719129,45.7532193 51.00507,46.0257076 50.9418196,46.2988491 C50.8783515,46.2456143 50.8662675,46.2013064 50.8566874,46.1564541 C50.2235303,43.1708398 49.5884137,40.185661 48.9624417,37.1985226 C48.919549,36.9942924 48.8486781,36.916563 48.6332348,36.9188491 C47.6248212,36.9291913 46.6161897,36.9287558 45.607776,36.918958 C45.4043079,36.9169984 45.3341991,36.9883048 45.2966407,37.1826283 C44.9700467,38.8660031 44.6324572,40.5472006 44.2986781,42.2290513 C44.0237947,43.6131571 43.7497823,44.9973717 43.4754432,46.3815863 L43.4754432,46.3815863 Z M24.6563297,53.3662364 C24.6622084,53.2576983 24.6704821,53.1746345 24.6704821,53.0917885 C24.6710264,47.8145723 24.6696112,42.5375739 24.6755988,37.2603577 C24.6758165,37.0281493 24.6136547,36.9540124 24.376112,36.9560809 C23.2171384,36.9669673 22.0577294,36.9739347 20.8991913,36.9507465 C20.5950233,36.9446501 20.5450544,37.039689 20.5460342,37.3126128 C20.5553966,39.8097512 20.5514774,42.3069984 20.5514774,44.8042457 L20.5514774,45.1128771 C20.4344479,45.0371073 20.3833904,44.9592691 20.3355988,44.8794712 C18.8060498,42.3257232 17.2743235,39.7733904 15.7522862,37.2151788 C15.6338414,37.0159565 15.5014619,36.9557543 15.2797045,36.9572784 C13.9133437,36.966423 12.546874,36.9693624 11.1806221,36.9555365 C10.9024728,36.9528149 10.8151633,37.0151944 10.8149456,37.3109798 C10.8117885,42.5597823 10.7957854,47.8085848 10.7834837,53.0572784 C10.7832659,53.1567807 10.7930638,53.256283 10.7994868,53.3806065 C10.9314308,53.3806065 11.0333281,53.381042 11.1352255,53.3806065 C12.3131415,53.3763608 13.4911664,53.3635148 14.6688647,53.3738569 C14.9428771,53.3762519 15.0148367,53.2968896 15.0138569,53.0257076 C15.0043857,50.1044323 15.0078694,47.1831571 15.0078694,44.2618818 L15.0078694,43.973717 C15.1130327,44.0475272 15.1637636,44.1248212 15.210902,44.2039658 C16.9833281,47.1831571 18.7570607,50.1614774 20.523717,53.1440435 C20.6284448,53.3208398 20.7418818,53.3887714 20.9475272,53.3870295 C22.078196,53.3774495 23.2090824,53.3828927 24.3399689,53.3816952 C24.4411042,53.3816952 24.5419129,53.3721151 24.6563297,53.3662364 L24.6563297,53.3662364 Z M51.1055521,33.8421151 C51.2194246,33.8540902 51.291493,33.8684603 51.3634526,33.8684603 C53.0972317,33.867154 54.8310109,33.861493 56.5645723,33.8659565 C56.7481182,33.8665008 56.8296579,33.7819129 56.9113064,33.6407154 C57.6710731,32.3283515 58.4357387,31.0187092 59.1997512,29.7087403 C59.2486314,29.6249145 59.3029549,29.5443546 59.3692535,29.4393002 C59.4314152,29.5386936 59.4721306,29.6010731 59.5102333,29.6649767 C60.2972162,30.9833281 61.0879005,32.2992846 61.8657387,33.6228616 C61.9767807,33.8115241 62.0990358,33.875972 62.3141524,33.8748834 C64.0384603,33.8663919 65.7627683,33.870311 67.4870762,33.8694401 C67.5858165,33.8693313 67.6845568,33.8597512 67.8200933,33.8527838 C67.7460653,33.7232348 67.6968585,33.6336392 67.6444946,33.5460031 C65.8950389,30.6192846 64.1469984,27.6916952 62.3906843,24.7691135 C62.2730016,24.5731571 62.2719129,24.4327216 62.3878538,24.2353499 C63.966283,21.5469362 65.5357854,18.8531882 67.106703,16.160311 C67.15493,16.0775739 67.1946656,15.9899378 67.2449611,15.8917418 C67.1724572,15.8766096 67.1451322,15.8660498 67.117916,15.8660498 C65.3088025,15.8649611 63.499689,15.861042 61.6906843,15.8736703 C61.5833437,15.8744323 61.436703,15.9852566 61.3765008,16.0857387 C60.9218818,16.8453966 60.4851166,17.615832 60.0411664,18.3819129 C59.8085226,18.7834059 59.5728305,19.1829393 59.3228771,19.6102333 C59.257014,19.5059409 59.2156454,19.4435614 59.1772162,19.3793313 C58.52479,18.2880715 57.8687714,17.1986625 57.2242924,16.1027216 C57.1207621,15.9266874 57.0056921,15.8585381 56.7998289,15.8595179 C55.0661586,15.867465 53.3323795,15.8637636 51.5987092,15.8647434 C51.510311,15.8647434 51.4220218,15.8757387 51.2910575,15.8844479 C51.4026439,16.0731104 51.4876672,16.2177916 51.5736703,16.3617107 C53.1569984,19.0146345 54.7385848,21.668647 56.3277916,24.3179782 C56.4323017,24.4920529 56.4450389,24.6155054 56.3388958,24.7980715 C54.8412442,27.3702177 53.3526283,29.9475894 51.8624883,32.5240902 C51.6142768,32.9527994 51.3690047,33.3829238 51.1055521,33.8421151 L51.1055521,33.8421151 Z M34.3006532,23.1279782 L29.2218974,23.1279782 L29.2218974,20.7686625 L35.4954432,20.7686625 C35.378958,19.1146812 35.2644323,17.4881337 35.150451,15.86986 L23.8792535,15.86986 L23.8792535,16.1735925 C23.8792535,21.9780404 23.8808865,27.7825972 23.8738103,33.587154 C23.8734837,33.8388491 23.9451166,33.90493 24.1921306,33.9031882 C25.7373561,33.8925194 27.2829082,33.8925194 28.8281337,33.9031882 C29.0735148,33.9048212 29.148958,33.842224 29.147325,33.5887869 C29.1365474,31.864479 29.1424261,30.1400622 29.1427527,28.4156454 L29.1427527,28.065972 L29.4907932,28.065972 C31.0079316,28.065972 32.5249611,28.06521 34.0420995,28.0670607 C34.2011509,28.0671695 34.3344012,28.0800156 34.3330949,27.8442146 C34.3250389,26.3270762 34.3284137,24.8100467 34.3269984,23.2930171 C34.3271073,23.2566563 34.3158942,23.2202955 34.3006532,23.1279782 L34.3006532,23.1279782 Z M67.980451,40.516283 C67.3220373,38.66014 66.2306687,37.2849611 64.3384914,36.6791291 C63.2953499,36.3451322 62.2280404,36.324339 61.1506065,36.4752255 C58.3869673,36.8619129 56.3253966,38.7454899 56.2476672,41.7357854 C56.2037947,43.4268896 56.8312908,44.7792068 58.3048834,45.6911664 C59.0484292,46.1514463 59.8501089,46.474339 60.6802022,46.7309331 C61.5075739,46.9865474 62.3471384,47.2035148 63.1683048,47.4765474 C63.6921617,47.6507309 63.9094557,48.0248989 63.8983515,48.5624728 C63.8885537,49.0362519 63.6194401,49.387776 63.1272628,49.5681649 C62.5949145,49.7632504 62.0503733,49.7280871 61.5092068,49.6313064 C60.5891913,49.4669207 59.9960964,48.9172628 59.6945412,48.0412286 C59.6523017,47.9188647 59.6128927,47.7956299 59.5641213,47.6480093 C58.2345568,47.9421617 56.9250233,48.2318507 55.592846,48.5265474 C56.0384292,50.5002644 57.0413997,52.0085848 58.8734837,52.8727527 C60.3051633,53.5480404 61.8226283,53.6877138 63.3768896,53.4669362 C65.7554743,53.1290202 67.9779471,51.4208243 68.3121617,48.7083515 C68.5945568,46.4176205 67.8028927,44.4068896 65.3976361,43.4576983 C64.4462675,43.082224 63.4372006,42.8536081 62.456874,42.5502022 C62.0083515,42.4113997 61.5528616,42.2827216 61.1241524,42.0953655 C60.7098134,41.9144323 60.5605599,41.5674806 60.6267496,41.1195023 C60.6971851,40.6414774 60.9944946,40.3471073 61.4284292,40.1813064 C62.3664075,39.8225972 63.5288647,40.223437 64.0458631,41.0844479 C64.1653966,41.2833437 64.2613064,41.4963919 64.3781182,41.7228305 C65.5763919,41.3212286 66.7609487,40.9246345 67.980451,40.516283 L67.980451,40.516283 Z M29.8958787,43.1955521 L29.8958787,40.7659098 L36.4001089,40.7659098 L36.4001089,40.4204821 C36.4001089,39.3742924 36.3905288,38.3278849 36.4065319,37.2820218 C36.4107776,37.0032193 36.3465474,36.9152566 36.0509798,36.9162364 C32.7240747,36.9275583 29.3970607,36.9269051 26.0701555,36.9168896 C25.788196,36.9161275 25.7050233,36.9818818 25.7055677,37.2734215 C25.7146034,42.5325661 25.7120995,47.7916019 25.7128616,53.0507465 C25.7128616,53.1612442 25.7220062,53.2714152 25.7272317,53.3892068 C25.8181337,53.3981337 25.8824728,53.41 25.946703,53.41 C29.3773561,53.4109798 32.8080093,53.4094557 36.2386625,53.4142457 C36.4359253,53.4145723 36.4971073,53.3527372 36.4956921,53.1555832 C36.4877449,52.0623639 36.4821928,50.968818 36.4987403,49.8758165 C36.5028771,49.6044168 36.4112131,49.549549 36.1627838,49.5506376 C34.1741524,49.5590202 32.185521,49.5553188 30.1967807,49.5553188 L29.8902177,49.5553188 L29.8902177,46.7544479 L30.2373872,46.7544479 C31.811353,46.7544479 33.3854277,46.7504199 34.9592846,46.7590202 C35.1821306,46.7602177 35.2504977,46.6939191 35.2482115,46.4712908 C35.2379782,45.4628771 35.2441835,44.4543546 35.2428771,43.4459409 C35.2427683,43.373437 35.2298134,43.301042 35.2195801,43.1954432 C33.43986,43.1955521 31.6730949,43.1955521 29.8958787,43.1955521 L29.8958787,43.1955521 Z" id="Shape" sketch:type="MSShapeGroup"></path>
            <path d="M0.0185069984,7.82388802 C3.40757387,6.64248834 6.87926905,5.80510109 10.4635303,5.30279938 C10.4567807,5.39424572 10.4595023,5.46566096 10.4452411,5.53359253 C8.88586314,12.9630638 7.32496112,20.3922084 5.76460342,27.8214619 C4.43286159,34.1625039 3.10122862,40.5035459 1.7703577,46.8446967 C1.21906687,49.4716019 0.670062208,52.0990513 0.118009331,54.7259565 C0.0951477449,54.8346034 0.0521461897,54.9388958 0.0183981337,55.0453655 C0.0185069984,39.3047278 0.0185069984,23.5643079 0.0185069984,7.82388802 L0.0185069984,7.82388802 Z" id="Shape" sketch:type="MSShapeGroup"></path>
            <path d="M11.5552255,0.0762052877 C11.4809798,0.482161742 11.4141369,0.889533437 11.3312908,1.29374806 C11.1063764,2.39143079 10.8783048,3.48867807 10.6384759,4.58320373 C10.6189891,4.67225505 10.5076205,4.79646967 10.42521,4.80833593 C6.92945568,5.31031104 3.50413686,6.10676516 0.156982893,7.23601866 C0.113328149,7.25082426 0.0648833593,7.25125972 0.0186158631,7.25844479 L0.0186158631,0.0763141524 C3.86404355,0.0762052877 7.70958009,0.0762052877 11.5552255,0.0762052877 L11.5552255,0.0762052877 Z" id="Shape" sketch:type="MSShapeGroup"></path>
            <path d="M26.9373717,0.0762052877 C26.6332037,0.732877138 26.3326283,1.39118196 26.0237792,2.04567652 C25.6460187,2.8462675 25.2587869,3.64239502 24.8818974,4.44342146 C24.8110264,4.5940902 24.742224,4.67650078 24.5471384,4.65320373 C22.44986,4.40281493 20.3441991,4.2881804 18.232224,4.28578538 C18.195972,4.28578538 18.1597201,4.27805599 18.0816641,4.26923795 C18.5682893,2.85965785 19.0487092,1.46793157 19.5291291,0.0762052877 L26.9373717,0.0762052877 L26.9373717,0.0762052877 Z" id="Shape" sketch:type="MSShapeGroup"></path>
            <path d="M69.9738725,39.4366719 C69.9413219,39.3942146 69.8998445,39.356112 69.8775272,39.3088647 C69.1540124,37.7886781 68.4325661,36.2677294 67.7110109,34.7466719 C67.6951166,34.7133593 67.6832504,34.678196 67.6695334,34.6439036 C68.0149611,34.504339 68.1361275,34.5415708 68.2919129,34.8589114 C68.85507,36.006563 69.4136547,37.1565008 69.9738725,38.3056765 C69.9738725,38.682675 69.9738725,39.0595645 69.9738725,39.4366719 L69.9738725,39.4366719 Z" id="Shape" sketch:type="MSShapeGroup"></path>
            <path d="M0.151321928,55.9716952 C0.180824261,55.8760031 0.207604977,55.7793313 0.24037325,55.6847278 C2.71584759,48.5472317 5.19175739,41.4097356 7.66766719,34.2723484 C10.9429705,24.8300778 14.2183826,15.3875894 17.4937947,5.94520995 C17.6079938,5.61600311 17.7117418,5.28233281 17.8456454,4.96129082 C17.8808087,4.87692068 18.0104666,4.77774495 18.0975583,4.77709176 C20.2381649,4.75912908 22.3715863,4.88073095 24.5497512,5.12622084 C16.4317107,22.0982271 8.32575428,39.0449767 0.219906687,55.9916174 C0.197045101,55.9849767 0.174183515,55.9782271 0.151321928,55.9716952 L0.151321928,55.9716952 Z" id="Shape" sketch:type="MSShapeGroup"></path>
            <path d="M46.0752411,24.8191913 C46.0752411,26.0809331 46.0769829,27.3425661 46.074479,28.6043079 C46.0730638,29.2936392 45.7645412,29.8061742 45.1333437,30.0812753 C44.5136858,30.3513686 43.9143857,30.2740747 43.3886781,29.8332815 C43.0124417,29.5176827 42.8457698,29.0923484 42.8452255,28.6085537 C42.8421773,26.0945412 42.8382582,23.580311 42.8491446,21.0664075 C42.8521928,20.3366874 43.1770451,19.7677605 43.8663764,19.4782893 C44.9087558,19.0405443 46.0995179,19.8575739 46.1070295,21.0059876 C46.1153033,22.2770918 46.1089891,23.5483048 46.1089891,24.819409 C46.0976672,24.8191913 46.0864541,24.8191913 46.0752411,24.8191913 L46.0752411,24.8191913 Z" id="Shape" sketch:type="MSShapeGroup"></path>
        </g>
    </g>
</svg>