<?xml version="1.0" encoding="UTF-8" standalone="no"?>
<svg width="192px" height="58px" viewBox="0 0 192 58" version="1.1" xmlns="http://www.w3.org/2000/svg" xmlns:xlink="http://www.w3.org/1999/xlink" xmlns:sketch="http://www.bohemiancoding.com/sketch/ns">
    <!-- Generator: Sketch 3.3.3 (12081) - http://www.bohemiancoding.com/sketch -->
    <title>Slice 1</title>
    <desc>Created with Sketch.</desc>
    <defs></defs>
    <g id="Page-1" stroke="none" stroke-width="1" fill="none" fill-rule="evenodd" sketch:type="MSPage">
        <g id="Time_Magazine_logo" sketch:type="MSLayerGroup" fill="#999999">
            <g id="Group" sketch:type="MSShapeGroup">
                <g transform="translate(0.650886, 0.974211)" id="Shape">
                    <path d="M0.531360857,0.917502857 L49.3234586,0.917502857 L49.3234586,11.9951743 L48.5230114,11.9951743 L48.553008,4.88190857 L29.3416414,4.88190857 L29.3416414,55.1663914 L34.9414174,55.1663914 L34.9414174,56.79336 L15.7962506,56.79336 L15.8024571,55.1663914 L20.9419886,55.1663914 L20.9419886,4.88190857 L1.418466,4.88190857 L1.418466,11.9951743 L0.531360857,11.9951743 L0.531360857,0.917502857 L0.531360857,0.917502857 Z"></path>
                    <path d="M51.7028931,0.87126 L70.88589,0.87126 L70.88589,2.46045429 L65.3996263,2.46045429 L65.3996263,55.2041657 L70.88589,55.2041657 L70.88589,56.79336 L51.7032386,56.79336 L51.740868,55.2041657 L57.264828,55.2041657 L57.264828,2.46045429 L51.7028931,2.46045429 L51.7028931,0.87126 L51.7028931,0.87126 Z"></path>
                    <path d="M87.7816149,0.784791429 L91.5238431,0.784791429 L109.485661,43.8741086 L127.206815,0.784791429 L130.864313,0.784791429 L140.854486,55.1660571 L145.914658,55.1660571 L145.914658,56.8500771 L125.989202,56.8500771 L125.999375,55.1660571 L131.189796,55.1660571 L124.897035,20.4322114 L109.090101,56.8500771 L105.447489,56.8500771 L89.7056297,20.4322114 L83.130642,55.1660571 L87.9684471,55.1660571 L87.8568737,56.8500771 L73.2722666,56.8500771 L73.3093611,55.1660571 L77.7840763,55.1660571 L87.7816149,0.784791429 L87.7816149,0.784791429 Z"></path>
                    <path d="M147.52703,0.906025714 L189.752018,0.906025714 L189.851847,11.9434714 L189.114167,11.9157257 L188.756147,5.17062 L161.104701,4.84636286 L161.104701,26.8868229 L184.596296,26.8868229 L185.232943,21.7294629 L186.261384,21.7294629 C185.943746,26.3658943 185.954086,31.0022143 186.261384,35.6386457 L185.232943,35.6386457 L184.596296,30.3250629 L161.104701,30.3250629 L161.104701,53.1152143 L189.721074,53.1282514 L189.843021,45.60816 L190.689355,45.6213086 L190.689355,56.8196571 L147.52703,56.8196571 L147.52703,55.2222171 L153.117836,55.18344 L153.117836,2.61054857 L147.52703,2.45343429 L147.52703,0.906025714 L147.52703,0.906025714 Z"></path>
                </g>
            </g>
        </g>
    </g>
</svg>