<?xml version="1.0" encoding="UTF-8" standalone="no"?>
<svg width="160px" height="50px" viewBox="0 0 160 50" version="1.1" xmlns="http://www.w3.org/2000/svg" xmlns:xlink="http://www.w3.org/1999/xlink" xmlns:sketch="http://www.bohemiancoding.com/sketch/ns">
    <title>popular-mechanics</title>
    <description>Created with Sketch (http://www.bohemiancoding.com/sketch)</description>
    <defs></defs>
    <g id="Page-1" stroke="none" stroke-width="1" fill="none" fill-rule="evenodd" sketch:type="MSPage">
        <g id="Popular-Mechanics" sketch:type="MSLayerGroup" transform="translate(0.000000, 1.000000)" fill="#999999">
            <g id="Group" sketch:type="MSShapeGroup">
                <g id="Shape">
                    <path d="M111.813333,5.62421053 L112.261705,7.94147368 C113.327132,6.24063158 115.131783,5.22694737 116.864496,5.22694737 C118.186047,5.22694737 118.739225,5.42273684 119.410233,5.81368421 L119.410233,11.7884211 L115.28186,11.7884211 L115.28186,9.90884211 C115.28186,9.90884211 114.992868,9.83810526 114.545736,9.83810526 C113.580775,9.83810526 112.904806,10.3509474 112.344806,10.9926316 L112.344806,19.3736842 L113.823256,19.3736842 L113.823256,22.6389474 L105.562171,22.6389474 L105.562171,19.3736842 L106.670388,19.3736842 L106.670388,9.32210526 L105.369302,9.32210526 L105.369302,5.62421053 L111.813333,5.62421053 L111.813333,5.62421053 Z"></path>
                    <path d="M7.67317829,3.59747368 L7.67317829,11.4543158 L10.0328682,11.4543158 C12.1742636,11.4543158 13.0548837,10.3269474 13.0548837,8.45810526 L13.0548837,6.52421053 C13.0548837,4.65536842 12.187907,3.59684211 10.2232558,3.59684211 L7.67317829,3.59684211 L7.67317829,3.59747368 Z M10.8341085,-0.0745263158 C16.0378295,-0.0745263158 18.9184496,1.91368421 18.9184496,6.44526316 L18.9184496,8.076 C18.9184496,12.8968421 15.9224806,14.94 10.5928682,14.94 L7.67317829,14.94 L7.67317829,19.3743158 L9.56031008,19.3743158 L9.56031008,22.6389474 L0.23875969,22.6389474 L0.23875969,19.3743158 L1.79472868,19.3743158 L1.79472868,3.54378947 L0.23875969,3.54378947 L0.23875969,-0.0745263158 L10.8341085,-0.0745263158 L10.8341085,-0.0745263158 Z"></path>
                    <path d="M31.0734884,16.1450526 L31.0734884,12.3151579 C31.0734884,9.86273684 30.2182946,8.76378947 28.4607752,8.76378947 C26.6995349,8.76378947 25.8071318,9.86273684 25.8071318,12.3151579 L25.8071318,16.1450526 C25.8071318,18.636 26.6995349,19.4835789 28.4607752,19.4835789 C30.2182946,19.4835789 31.0734884,18.5172632 31.0734884,16.1450526 M36.7844961,12.7124211 L36.7844961,15.4294737 C36.7844961,20.8477895 33.4195349,23.0336842 28.460155,23.0336842 C23.7283721,23.0336842 20.0948837,20.8477895 20.0948837,15.7471579 L20.0948837,12.7534737 C20.0948837,7.38505263 23.7277519,5.22631579 28.460155,5.22631579 C33.4195349,5.22631579 36.7844961,7.35978947 36.7844961,12.7124211"></path>
                    <path d="M50.0117829,15.7061053 L50.0117829,12.78 C50.0117829,10.1425263 49.3103876,9.37326316 47.8189147,9.37326316 C46.6071318,9.37326316 45.6595349,10.0875789 44.8217054,11.0829474 L44.8217054,18.3555789 C45.7345736,18.9738947 46.3262016,19.3768421 47.4344186,19.3768421 C49.0306977,19.3762105 50.0117829,18.2892632 50.0117829,15.7061053 L50.0117829,15.7061053 Z M44.8223256,24.8046316 L46.2244961,24.8046316 L46.2244961,28.0850526 L38.063876,28.0850526 L38.063876,24.8046316 L39.147907,24.8046316 L39.147907,9.32210526 L37.8976744,9.32210526 L37.8976744,5.62421053 L44.2009302,5.62421053 L44.6449612,8.24210526 C45.9863566,6.71431579 47.4474419,5.22757895 50.2145736,5.22757895 C53.936124,5.22757895 55.7618605,7.224 55.7618605,11.9431579 L55.7618605,16.176 C55.7618605,21.0107368 52.9178295,23.0343158 49.4244961,23.0343158 C47.5044961,23.0343158 45.8604651,21.9631579 44.8223256,21.0467368 L44.8223256,24.8046316 L44.8223256,24.8046316 Z"></path>
                    <path d="M69.0734884,20.2307368 C67.5665116,21.7901053 65.9379845,23.0349474 63.5026357,23.0349474 C60.1110078,23.0349474 58.2629457,21.408 58.2629457,17.3557895 L58.2629457,9.32147368 L57.1913178,9.32147368 L57.1913178,5.62421053 L63.9355039,5.62421053 L63.9355039,16.6623158 C63.9355039,18.1863158 64.5103876,18.9151579 65.7854264,18.9151579 C67.1348837,18.9151579 68.0396899,17.9981053 68.896124,17.2023158 L68.896124,9.32147368 L67.5820155,9.32147368 L67.5820155,5.62421053 L74.5432558,5.62421053 L74.568062,19.3755789 L75.8325581,19.3755789 L75.8325581,22.6383158 L69.5175194,22.6383158 L69.0734884,20.2307368 L69.0734884,20.2307368 Z"></path>
                </g>
                <path d="M84.3237209,-0.0745263158 L84.3237209,19.3743158 L85.3575194,19.3743158 L85.3575194,22.6389474 L77.503876,22.6389474 L77.503876,19.3743158 L78.6102326,19.3743158 L78.6102326,3.54378947 L77.1578295,3.54378947 L77.1578295,-0.0745263158 L84.3237209,-0.0745263158 Z" id="Shape"></path>
                <path d="M96.8713178,18.5962105 L96.8713178,14.6671579 L95.3134884,14.9437895 C92.855814,15.3795789 92.4570543,15.9347368 92.4570543,17.5092632 C92.4570543,18.7957895 92.8564341,19.5581053 94.4353488,19.5581053 C95.467907,19.5581053 96.3336434,19.0875789 96.8713178,18.5962105 M102.568682,11.0955789 L102.568682,19.3743158 L103.908837,19.3743158 L103.908837,22.6383158 L97.4914729,22.6383158 L97.0486822,20.8850526 C96.0737984,22.0035789 94.4979845,23.0336842 92.2294574,23.0336842 C88.9885271,23.0336842 87.0648062,21.1566316 87.0648062,18.1351579 L87.0648062,17.7126316 C87.0648062,14.2256842 89.3593798,13.1785263 95.0716279,12.1635789 L96.8706977,11.8446316 L96.8706977,11.0696842 C96.8706977,9.39852632 96.1934884,8.75052632 94.2437209,8.75052632 C93.2737984,8.75052632 92.7782946,8.89705263 92.3162791,9.06821053 L92.3162791,10.8682105 L87.9689922,10.8682105 L87.9689922,6.78757895 C89.7686822,5.90210526 92.1910078,5.22631579 95.147907,5.22631579 C100.632558,5.22694737 102.568682,7.29410526 102.568682,11.0955789" id="Shape"></path>
            </g>
            <g id="Group" transform="translate(0.000000, 24.631579)" sketch:type="MSShapeGroup">
                <path d="M152.251783,5.71642105 C155.535504,5.71642105 157.342636,6.18 158.656744,6.78315789 L158.656744,11.124 L154.572403,11.124 L154.572403,9.39347368 C154.071938,9.11494737 153.43876,8.94315789 152.288992,8.94315789 C150.503566,8.94315789 150.072558,9.456 150.072558,10.4349474 C150.072558,11.34 150.537674,11.7025263 152.177984,11.94 L153.592558,12.1661053 C158.285891,12.8873684 159.683721,13.7949474 159.683721,17.7555789 C159.683721,21.66 157.224806,23.5509474 152.313178,23.5509474 C149.564651,23.5509474 147.293643,22.9263158 145.684341,22.1153684 L145.684341,17.7757895 L149.856124,17.7757895 L149.856124,19.7671579 C150.378295,20.0084211 151.181395,20.0873684 152.328062,20.0873684 C153.96093,20.0873684 154.929612,19.7153684 154.929612,18.5437895 C154.929612,17.4277895 154.493643,17.364 152.527752,17.0538947 L151.099535,16.8309474 C146.843411,16.1671579 145.454884,14.9185263 145.454884,11.2332632 C145.455504,6.87852632 148.437209,5.71642105 152.251783,5.71642105" id="Shape"></path>
                <path d="M128.340465,13.2543158 C128.340465,7.78294737 132.049612,5.71578947 136.448992,5.71578947 C139.737674,5.71578947 141.616744,6.38147368 143.284961,7.39768421 L143.284961,12.3397895 L138.910388,12.3397895 L138.910388,9.71747368 C138.565581,9.47936842 137.926822,9.25578947 136.831008,9.25578947 C134.597829,9.25578947 134.053333,10.6313684 134.053333,13.2183158 L134.053333,15.9991579 C134.053333,18.9258947 134.779535,20.1075789 136.753488,20.1075789 C137.44124,20.1075789 138.564961,20.0261053 139.061705,19.7501053 L139.061705,17.7757895 L143.397209,17.7757895 L143.397209,22.1153684 C141.652093,23.0772632 139.725891,23.5509474 136.486822,23.5509474 C131.350078,23.5509474 128.339845,21.1376842 128.339845,15.9315789 L128.339845,13.2543158 L128.340465,13.2543158 Z" id="Shape"></path>
                <path d="M90.2431008,19.1109474 L90.2431008,15.1844211 L88.6877519,15.4597895 C86.2282171,15.8968421 85.8313178,16.4526316 85.8313178,18.0246316 C85.8313178,19.3092632 86.2288372,20.0418947 87.8102326,20.0418947 C88.8409302,20.0418947 89.7103876,19.6010526 90.2431008,19.1109474 M95.9429457,11.6128421 L95.9429457,19.8903158 L97.2837209,19.8903158 L97.2837209,23.1530526 L90.8644961,23.1530526 L90.4217054,21.4016842 C89.4449612,22.5202105 87.8728682,23.5509474 85.6037209,23.5509474 C82.3627907,23.5509474 80.4384496,21.6713684 80.4384496,18.6498947 L80.4384496,18.2261053 C80.4384496,14.7416842 82.7336434,13.6945263 88.4446512,12.6795789 L90.2424806,12.3593684 L90.2424806,11.5837895 C90.2424806,9.91578947 89.5671318,9.26778947 87.6173643,9.26778947 C86.6486822,9.26778947 86.1531783,9.41178947 85.6911628,9.58357895 L85.6911628,11.3861053 L81.3426357,11.3861053 L81.3426357,7.30547368 C83.1410853,6.41936842 85.5646512,5.71705263 88.5221705,5.71705263 C94.0062016,5.71642105 95.9429457,7.81010526 95.9429457,11.6128421" id="Shape"></path>
                <path d="M24.4781395,0.442736842 L24.4781395,4.05978947 L22.9085271,4.05978947 L22.9085271,19.8896842 L24.4781395,19.8896842 L24.4781395,23.1543158 L15.3351938,23.1543158 L15.3351938,19.8896842 L17.0443411,19.8896842 L17.0443411,7.75578947 L13.2316279,18.66 L10.1593798,18.66 L6.16620155,7.75578947 L6.16620155,19.8896842 L7.79968992,19.8896842 L7.79968992,23.1543158 L0.23875969,23.1543158 L0.23875969,19.8896842 L1.80775194,19.8896842 L1.80775194,4.05978947 L0.23875969,4.05978947 L0.23875969,0.442736842 L8.68589147,0.442736842 L12.3144186,10.7141053 L16.0235659,0.442736842 L24.4781395,0.442736842 Z" id="Shape"></path>
                <path d="M31.3289922,12.8842105 L36.2871318,12.8842105 L36.2871318,12.1578947 C36.2871318,9.79642105 35.5857364,9.18315789 33.903876,9.18315789 C32.3218605,9.18315789 31.3289922,9.95621053 31.3289922,12.3018947 L31.3289922,12.8842105 L31.3289922,12.8842105 Z M41.4015504,12.5810526 L41.4015504,15.8911579 L31.3289922,15.8911579 L31.3289922,16.3945263 C31.3289922,19.1513684 32.3987597,19.9875789 34.6431008,19.9875789 C35.6632558,19.9875789 36.5792248,19.8448421 37.1150388,19.6061053 L37.1150388,17.7757895 L41.4015504,17.7757895 L41.4015504,21.7130526 C40.0657364,22.6073684 37.895814,23.5509474 34.4917829,23.5509474 C28.8669767,23.5509474 25.6663566,21.2305263 25.6663566,16.0648421 L25.6663566,13.2037895 C25.6663566,8.74926316 28.2170543,5.71578947 33.7996899,5.71578947 C39.1820155,5.71578947 41.4015504,7.87389474 41.4015504,12.5810526 L41.4015504,12.5810526 Z" id="Shape"></path>
                <path d="M43.6688372,13.2543158 C43.6688372,7.78294737 47.3773643,5.71578947 51.7767442,5.71578947 C55.067907,5.71578947 56.6995349,6.36442105 58.6127132,7.39768421 L58.6127132,12.3397895 L54.2368992,12.3397895 L54.2368992,9.71747368 C53.8927132,9.47936842 53.255814,9.25578947 52.1593798,9.25578947 C49.9268217,9.25578947 49.3792248,10.6313684 49.3792248,13.2183158 L49.3792248,15.9991579 C49.3792248,18.9258947 50.107907,20.1075789 52.0831008,20.1075789 C52.7696124,20.1075789 53.8927132,20.0261053 54.3894574,19.7501053 L54.3894574,17.7757895 L58.7262016,17.7757895 L58.7262016,21.8425263 C57.0065116,22.8890526 55.0542636,23.5509474 51.8151938,23.5509474 C46.6772093,23.5509474 43.6675969,21.1376842 43.6675969,15.9315789 L43.6675969,13.2543158 L43.6688372,13.2543158 Z" id="Shape"></path>
                <path d="M67.3829457,0.442736842 L67.3829457,8.62294737 C68.7906977,6.96757895 70.5451163,5.71705263 72.9178295,5.71705263 C76.0806202,5.71705263 77.8660465,7.28968421 77.8660465,11.2616842 L77.8660465,19.8890526 L78.8967442,19.8890526 L78.8967442,23.1536842 L70.7113178,23.1536842 L70.7113178,19.8890526 L72.1897674,19.8890526 L72.1897674,12.1705263 C72.1897674,10.6578947 71.6886822,10.0616842 70.5835659,10.0616842 C69.2843411,10.0616842 68.2015504,10.9111579 67.3835659,11.7555789 L67.3835659,19.8890526 L68.8620155,19.8890526 L68.8620155,23.1536842 L60.6003101,23.1536842 L60.6003101,19.8890526 L61.7072868,19.8890526 L61.7072868,4.05915789 L60.4086822,4.05915789 L60.4086822,0.442105263 L67.3829457,0.442105263 L67.3829457,0.442736842 Z" id="Shape"></path>
                <path d="M105.151628,6.13957895 L105.60186,8.70631579 C107.010233,7.05221053 108.847132,5.71642105 111.216744,5.71642105 C114.379535,5.71642105 116.164961,7.28968421 116.164961,11.2629474 L116.164961,19.8890526 L117.19814,19.8890526 L117.19814,23.1530526 L109.012713,23.1530526 L109.012713,19.8890526 L110.491163,19.8890526 L110.491163,12.1705263 C110.491163,10.6597895 109.987597,10.0616842 108.884961,10.0616842 C107.586357,10.0616842 106.500465,10.9111579 105.685581,11.7555789 L105.685581,19.8890526 L107.163411,19.8890526 L107.163411,23.1530526 L98.9023256,23.1530526 L98.9023256,19.8890526 L100.010543,19.8890526 L100.010543,9.83684211 L98.7113178,9.83684211 L98.7113178,6.13957895 L105.151628,6.13957895 L105.151628,6.13957895 Z" id="Shape"></path>
                <path d="M125.687442,6.13957895 L125.687442,19.8896842 L126.875039,19.8896842 L126.875039,23.1536842 L118.904186,23.1536842 L118.904186,19.8896842 L120.011783,19.8896842 L120.011783,9.83747368 L118.713178,9.83747368 L118.713178,6.13957895 L125.687442,6.13957895 Z" id="Shape"></path>
                <rect id="Rectangle" x="120.310078" y="0" width="5.39472868" height="4.90231579"></rect>
            </g>
        </g>
    </g>
</svg>