<?xml version="1.0" encoding="UTF-8" standalone="no"?>
<svg width="196px" height="42px" viewBox="0 0 196 42" version="1.1" xmlns="http://www.w3.org/2000/svg" xmlns:xlink="http://www.w3.org/1999/xlink" xmlns:sketch="http://www.bohemiancoding.com/sketch/ns">
    <title>forbes</title>
    <description>Created with Sketch (http://www.bohemiancoding.com/sketch)</description>
    <defs></defs>
    <g id="Page-1" stroke="none" stroke-width="1" fill="none" fill-rule="evenodd" sketch:type="MSPage">
        <g id="forbes" sketch:type="MSLayerGroup" transform="translate(27.000000, 3.000000)" fill="#999999">
            <path d="M80.6190687,0 L80.6190687,11.9472212 C80.8130247,11.8587978 80.9770001,11.7930762 81.1328176,11.7113908 C83.0320976,10.7148906 85.0666982,10.3220127 87.1726811,10.5213542 C90.0864062,10.7969907 92.2821269,12.3418614 93.8805814,14.7906624 C95.0915318,16.6458963 95.7182687,18.7072097 95.9131425,20.918418 C96.1638985,23.7619628 95.8932574,26.5390604 94.8185453,29.1885504 C93.1390209,33.3294217 90.0497973,35.7519963 85.7728735,36.6500178 C83.5495176,37.1167029 81.3032174,37.0721284 79.0676245,36.7767961 C77.3779026,36.5535087 75.7042927,36.206242 74.017732,35.9551733 C73.4862395,35.876183 73.3603007,35.6494748 73.367133,35.1262941 C73.4499365,28.7609458 73.5273354,22.3953902 73.56527,16.0295236 C73.581382,13.3165926 73.5223386,10.6024177 73.4539135,7.89000494 C73.4327028,7.04474722 73.326853,6.19088559 73.1578808,5.36252474 C72.8517525,3.8619176 72.1191658,3.23424585 70.6132024,3.04454489 C70.0419397,2.97239633 69.9419025,2.87101516 70.0261337,2.29932074 C70.0481602,2.14932222 70.227024,1.93038866 70.36418,1.90385126 C73.6321654,1.2686122 76.9041279,0.654623798 80.1759883,0.0398061027 C80.3193648,0.0127503923 80.4677381,0.0129577157 80.6190687,0 L80.6190687,0 Z M88,22.7478307 C87.9675829,22.2185681 87.9486813,21.4522959 87.8684007,20.6926447 C87.6780643,18.8910206 87.2919041,17.1410192 86.3719281,15.5596453 C84.9810398,13.1687562 82.9427234,12.4400372 80.3873588,13.4272838 C80.2508817,13.4800445 80.0936738,13.6980188 80.087983,13.8449213 C80.0383919,15.0860401 79.9961175,16.3284004 80.000284,17.5703468 C80.0121737,21.1795953 80.0391033,24.7889472 80.0754836,28.3980923 C80.0948932,30.3384461 80.1449925,32.2783861 80.1834052,34.2186365 C80.189096,34.5090275 80.1700929,34.8065567 80.5665169,34.8817666 C82.5962971,35.2675407 84.2751795,34.7311398 85.4754266,32.9497924 C85.7579333,32.5300859 86.0331233,32.0986892 86.2529297,31.6433951 C87.571667,28.912975 87.9289668,25.9794778 88,22.7478307 L88,22.7478307 Z" id="Shape" sketch:type="MSShapeGroup"></path>
            <path d="M28.894196,1.00771456 C28.894196,2.9528498 28.8820478,4.795615 28.8982454,6.63817086 C28.9096667,7.94668593 28.9492262,9.25530567 28.9987534,10.563088 C29.0126666,10.9296523 28.9133008,11.1102129 28.5398223,11.2177119 C27.4126378,11.5426164 27.4206327,11.5599921 27.0195353,10.4700339 C26.4354884,8.88277506 25.7470918,7.3519349 24.6460725,6.04603665 C23.3150686,4.46767502 21.6389319,3.5804681 19.5710425,3.54571672 C17.6218315,3.51305879 15.6715821,3.54289055 13.7221634,3.51850178 C13.3285418,3.51358216 13.214432,3.66954468 13.2040489,4.02208277 C13.1797526,4.84857945 13.1275258,5.67423875 13.1108091,6.50094478 C13.0572325,9.15429639 13.015285,11.8080667 12.9674191,14.461523 C12.9488334,15.4948532 12.9199685,16.5277647 12.9076127,17.5610949 C12.9002407,18.1838982 12.9500794,18.2110085 13.5403561,18.173745 C14.5804268,18.1080104 15.6223664,17.9975806 16.6617103,18.0147469 C18.5303489,18.0457301 19.6678126,17.0708073 20.3360661,15.4310027 C20.5997957,14.78402 20.7797341,14.0964241 20.9338186,13.4127012 C21.0033851,13.1042304 21.1158336,13.0087687 21.4028212,13.0218529 C21.722204,13.0364024 22.0426251,13.0250977 22.3931571,13.0250977 L22.3931571,25.163692 C21.991229,25.163692 21.6154662,25.1942565 21.2501903,25.1455836 C21.1356652,25.130406 20.9917561,24.9149893 20.9588418,24.7687614 C20.681095,23.5365528 20.3403231,22.3355368 19.5072906,21.3445991 C18.9517971,20.6837995 18.2415961,20.2787156 17.3913276,20.2126671 C16.0974951,20.1120765 14.7982633,20.0836054 13.5030809,19.9980877 C13.0639815,19.969198 12.8843546,20.0911419 12.901902,20.5624837 C13.0054211,23.3332782 13.0957536,26.1045961 13.1763262,28.8763327 C13.2195197,30.3592327 13.3397555,31.8272691 13.8468639,33.2355374 C14.3120248,34.5274095 15.2137932,35.2453605 16.5818646,35.3814351 C17.0882462,35.4317828 17.5859061,35.5674388 18.0912494,35.6365228 C18.8110029,35.7349153 18.46099,36.2864364 18.5094789,36.6472437 C18.5656513,37.0655163 18.2138733,36.9832435 17.9754784,36.9834528 C14.2128666,36.9870117 10.4502549,36.9853369 6.68753928,36.9853369 C4.66938473,36.9853369 2.65123018,36.9909893 0.633075627,36.9803127 C0.397691753,36.9789519 0.063149696,37.1221443 0.0226557785,36.6557222 C-0.0455608979,35.8692105 0.017152759,35.6995359 0.535059581,35.5937116 C1.03531521,35.4914463 1.53525934,35.3850987 2.0393567,35.3064894 C3.18761884,35.1272895 3.89480877,34.4189685 4.31729531,33.3823934 C4.83727874,32.1067456 5.00454977,30.750395 5.02832697,29.3936258 C5.12333193,23.9828778 5.2316272,18.5712924 5.21439133,13.1604397 C5.20691553,10.8108486 4.92968794,8.46031552 4.72368811,6.11470203 C4.67696436,5.58212666 4.45393632,5.05311017 4.24835182,4.54900581 C3.75744094,3.34464021 2.77821495,2.79427046 1.55207989,2.62114159 C1.16396127,2.5663977 0.764836605,2.57466686 0.383986119,2.49228934 C0.245476155,2.46235291 0.144552853,2.25300724 0.0283664592,2.1237363 C0.0198523535,2.11421107 0.0268090008,2.09024099 0.0270166619,2.07307465 C0.0411376178,0.813755807 -0.115438863,1.01169213 1.03438073,1.01085475 C10.0305717,1.00499307 19.0266589,1.00771456 28.0228499,1.00771456 L28.894196,1.00771456 L28.894196,1.00771456 Z" id="Shape" sketch:type="MSShapeGroup"></path>
            <path d="M37.7869003,10 C40.7025005,10.0119715 43.3833623,10.7141231 45.6645063,12.619874 C47.724367,14.3405359 48.8999221,16.6016828 49.4896661,19.1867876 C50.2388005,22.4717538 50.2221369,25.7438117 49.0434768,28.9305079 C47.3798149,33.4285464 44.1480216,36.0924546 39.4377283,36.8125114 C36.8324216,37.2107963 34.23436,37.005512 31.7903067,35.8968515 C28.7674803,34.5258601 26.8356493,32.1502037 25.8755816,29.0015038 C24.6225049,24.8924853 24.6207454,20.7937727 26.4837487,16.8549571 C28.343854,12.9218669 31.5155137,10.7177666 35.8066313,10.155733 C36.4622015,10.0697467 37.1266726,10.0502801 37.7869003,10 L37.7869003,10 Z M33.0079295,24.1730227 C32.9601971,25.7887544 33.1264081,27.8773471 33.5487547,29.9429198 C33.8809638,31.5665712 34.3691556,33.1330949 35.3651435,34.4987741 C36.5976626,36.1886346 38.9035216,36.5292888 40.3604256,35.1232717 C40.978603,34.5266516 41.4726548,33.7263359 41.8033722,32.9288713 C42.7703797,30.5977235 42.8573209,28.1000501 42.9649319,25.6236015 C43.0646586,23.3298349 42.9586457,21.0398697 42.5570755,18.7736637 C42.237865,16.9720822 41.7682122,15.2184416 40.6854962,13.6906717 C39.0356381,11.3631142 36.1619978,11.446641 34.7060526,13.892889 C34.3460352,14.4978512 34.0727458,15.1729295 33.8728663,15.8486413 C33.1169256,18.4053432 33.0134698,21.0397641 33.0079295,24.1730227 L33.0079295,24.1730227 Z" id="Shape" sketch:type="MSShapeGroup"></path>
            <path d="M120.98023,31.4722018 C121.726313,32.1302382 121.742155,32.1698538 121.138658,32.8653166 C119.373178,34.9003088 117.12769,36.1412161 114.501764,36.6847842 C111.489944,37.3081048 108.55566,37.032255 105.797745,35.6309043 C102.313473,33.8607113 100.241837,30.9674153 99.4249336,27.2145644 C98.535321,23.128004 98.9990653,19.1910448 101.228815,15.5824782 C103.199938,12.3925862 106.116176,10.5836116 109.862013,10.1287617 C111.745423,9.90003356 113.616873,9.93256008 115.426105,10.5854882 C118.416311,11.6647012 120.172454,13.8822381 121.164888,16.7905463 C121.706483,18.3779862 121.870682,20.0273515 121.995641,21.6859952 C122.031104,22.1587765 121.851482,22.2558348 121.409246,22.2545837 C116.726583,22.2405098 112.043814,22.2461394 107.361046,22.2466606 C106.542779,22.2467649 106.523893,22.2482244 106.558097,23.0798398 C106.662072,25.6144059 107.101161,28.0572305 108.682298,30.1518547 C110.12683,32.0652894 112.087251,33.0263854 114.466931,33.2286336 C116.148686,33.3713541 117.775463,33.2144553 119.300888,32.4591521 C119.883296,32.1706878 120.424996,31.8015327 120.98023,31.4722018 L120.98023,31.4722018 Z M114.953589,20.78852 C114.974524,20.6598238 115.004417,20.5743464 114.999453,20.49111 C114.923696,19.2493941 114.904919,18.0001015 114.746824,16.7683098 C114.584088,15.5006626 114.285271,14.2508364 113.551449,13.1536102 C112.719641,11.9096533 111.324084,11.6420163 110.090723,12.4959361 C109.244778,13.081472 108.733045,13.920452 108.321889,14.8232465 C107.534865,16.5514684 107.146802,18.3761591 107.020002,20.2621033 C106.969714,21.0084561 106.956548,21.0114441 107.71368,20.9967177 C109.684855,20.9579807 111.656138,20.9190304 113.627098,20.8720765 C114.066743,20.8615119 114.50585,20.8176527 114.953589,20.78852 L114.953589,20.78852 Z" id="Shape" sketch:type="MSShapeGroup"></path>
            <path d="M124.013789,27.6751682 C124.448592,28.6435913 124.831427,29.5953193 125.294416,30.5046833 C125.985365,31.8617905 126.859479,33.0830408 128.199864,33.8575915 C129.66089,34.7017401 131.2156,34.9479936 132.814283,34.3503072 C134.262497,33.8088626 135.03852,32.6622187 135.236138,31.1338819 C135.419202,29.7169852 134.927615,28.5054389 133.751435,27.7541571 C132.647004,27.0486826 131.447659,26.4756215 130.241446,25.9621413 C128.81076,25.3530813 127.344199,24.836575 126.086122,23.8774385 C124.046999,22.3231199 123.319561,20.1877057 123.486225,17.6841633 C123.703114,14.4225568 125.860725,11.7305679 129.022011,10.6448613 C131.099366,9.93145661 133.219873,9.91684835 135.364775,10.0957995 C136.966943,10.2295694 138.523088,10.5659767 140.037414,11.1209862 C140.425067,11.2629993 140.580046,11.4506111 140.580866,11.8944934 C140.583941,13.6116941 140.640623,15.3284774 140.67004,17.0456781 C140.687055,18.0571956 140.680803,18.0573 139.628134,18.2863366 C139.4914,17.913826 139.357228,17.5310897 139.211167,17.1531532 C138.65234,15.7079791 138.014896,14.3031864 136.873361,13.225097 C135.650338,12.0703142 134.199357,11.5760334 132.54512,11.9172406 C131.140161,12.2071101 130.145097,13.4074915 129.925236,14.8447354 C129.680467,16.4455918 130.237346,17.6584945 131.495526,18.5916492 C132.899563,19.6331136 134.506343,20.2618948 136.080221,20.9638215 C136.942446,21.3485404 137.804363,21.7514153 138.614313,22.2363051 C140.505119,23.3679234 141.749051,24.9871444 141.952103,27.278554 C142.159561,29.6178578 141.715021,31.7873927 140.187678,33.6346069 C138.813777,35.2960875 137.002305,36.1926172 134.965643,36.6542381 C132.90233,37.1221198 130.817493,37.0539827 128.731938,36.8093987 C126.990371,36.6053005 125.279657,36.2693105 123.620909,35.6723545 C123.243506,35.5364977 123.10257,35.3553553 123.099905,34.9373505 C123.087297,32.9279846 123.035535,30.9187231 123.00335,28.9093573 C122.986745,27.8883444 122.992383,27.88824 124.013789,27.6751682 L124.013789,27.6751682 Z" id="Shape" sketch:type="MSShapeGroup"></path>
            <path d="M60.8643236,10.1537851 L60.8643236,15.6544744 C60.8895877,15.6678365 60.9148519,15.6811987 60.9400124,15.6947664 C61.1021585,15.392062 61.2611982,15.0878158 61.4268646,14.7870643 C62.5107372,12.8206676 63.9312232,11.2009676 66.115535,10.402013 C67.6280694,9.84892212 69.1401897,9.85159456 70.633776,10.5031543 C70.9388093,10.6361592 71.090187,10.7720421 70.9434686,11.1496775 C70.1492017,13.1944998 69.3815449,15.2493952 68.6038446,17.3003847 C68.5755778,17.3752128 68.538717,17.4467518 68.4998889,17.5329892 C67.8612449,17.2500196 67.2649493,16.92388 66.629308,16.7162525 C65.0120931,16.1882415 63.3932215,16.1594614 61.8078974,16.8733094 C61.1403653,17.1739581 60.7616104,17.586849 60.7688583,18.4137614 C60.794226,21.2726479 60.6809516,24.1329735 60.7261992,26.9910378 C60.7545696,28.7936966 60.9093642,30.6007752 61.1225561,32.3924359 C61.2997157,33.881495 62.1082713,34.5131142 63.6316776,34.6103497 C64.1234998,34.6418022 64.614183,34.6900087 65.192773,34.737907 C65.192773,35.092621 65.2102715,35.4400373 65.1794162,35.7830338 C65.1724789,35.8601232 65.0022566,35.9708236 64.8976797,35.9822329 C64.6280576,36.0117324 64.3532584,35.995595 64.0804265,35.995595 C59.6470896,35.996109 55.2137526,35.9964173 50.7803121,35.9963145 C50.1499514,35.9963145 49.8018448,35.4045762 50.1195102,34.852616 C50.1658968,34.7722374 50.3048495,34.7246476 50.4100477,34.7006985 C50.707626,34.6326542 51.0077928,34.5701604 51.3104446,34.5319241 C52.3056857,34.4062169 52.9767382,33.831541 53.1742954,32.9045152 C53.4080922,31.8068647 53.5480803,30.6737531 53.5780038,29.5521536 C53.6592839,26.5081497 53.706913,23.4613705 53.675747,20.4167499 C53.6589732,18.7666253 53.5579167,17.1025219 53.3045506,15.4739824 C53.0668193,13.9453507 52.3915216,13.5076884 50.6092615,13.3221599 C50.2720268,13.2870071 50.0790254,13.215057 50.0694996,12.8220038 C50.0601809,12.4365567 50.1672428,12.2441416 50.5710547,12.1643797 C53.9152385,11.5036721 57.2557983,10.8259019 60.5980148,10.155738 C60.6776383,10.1398062 60.7632671,10.1537851 60.8643236,10.1537851 L60.8643236,10.1537851 Z" id="Shape" sketch:type="MSShapeGroup"></path>
        </g>
    </g>
</svg>