<?xml version="1.0" encoding="UTF-8" standalone="no"?>
<svg width="160px" height="59px" viewBox="0 0 160 59" version="1.1" xmlns="http://www.w3.org/2000/svg" xmlns:xlink="http://www.w3.org/1999/xlink" xmlns:sketch="http://www.bohemiancoding.com/sketch/ns">
    <title>polygon</title>
    <description>Created with Sketch (http://www.bohemiancoding.com/sketch)</description>
    <defs></defs>
    <g id="Page-1" stroke="none" stroke-width="1" fill="none" fill-rule="evenodd" sketch:type="MSPage">
        <g id="polygon" sketch:type="MSLayerGroup" fill="#999999">
            <path d="M16.8595041,-0.150852273 C19.802314,2.8651875 22.7408264,5.88525 25.6892562,8.89525568 C27.785124,11.0356818 29.8961983,13.1606875 31.9960331,15.2970909 C32.3791736,15.6869602 32.7408264,16.0982841 33.2743802,16.6742045 C27.7047934,22.3231193 22.1920661,27.9137045 16.5719008,33.6139091 L16.5719008,50.2623011 C15.8730579,49.6079375 15.4287603,49.2190739 15.0145455,48.7993693 C10.4538843,44.1819489 5.89983471,39.5578239 1.33818182,34.9410739 C0.911735537,34.5096364 0.446942149,34.1174205 0,33.706767 L0,16.2749489 C0.447603306,15.8673125 0.914710744,15.4794545 1.33983471,15.049358 C5.89454545,10.4403182 10.4446281,5.82625 14.9897521,1.20748864 C15.4142149,0.776386364 15.7966942,0.302710227 16.1986777,-0.1511875 C16.418843,-0.150852273 16.6390083,-0.150852273 16.8595041,-0.150852273 L16.8595041,-0.150852273 Z" id="Shape" sketch:type="MSShapeGroup"></path>
            <path d="M106.449917,58.4871023 C105.452893,58.0405795 104.392727,57.6979773 103.472066,57.1254091 C101.629091,55.979267 100.333554,54.3919659 100.046281,52.0396761 C100.046612,51.6524886 101.188099,51.7486989 101.728926,51.7537273 C102.288264,51.7594261 102.820496,51.7409886 103.340496,51.7466875 C104.381157,51.7584205 105.424132,51.7349545 106.357686,51.7349545 C108.248595,53.6594943 109.810579,54.0349489 111.759339,53.1164261 C113.410248,52.3380284 114.113058,51.0155568 113.898512,49.091017 C108.419504,53.567642 100.042645,49.1181705 99.673719,41.9406193 C99.4747107,38.0734375 100.413554,34.7744659 103.55438,32.3447386 C106.168595,30.322983 110.89686,29.6206818 114.071736,32.3239545 C114.185124,32.010517 114.286942,31.7279205 114.436364,31.3145852 L119.915041,31.3145852 C119.96,31.789267 120.043306,32.2679716 120.043967,32.7463409 C120.052893,38.1056193 120.069752,43.4655682 120.033058,48.8245114 C120.025455,49.933108 119.895537,51.0588011 119.666777,52.1429261 C119.227438,54.2263636 117.927273,55.7010284 116.160661,56.7797898 C114.877025,57.5635511 113.472066,58.122375 112.070413,58.4864318 C111.581488,58.6600795 110.382479,58.921892 109.215537,58.921892 C108.039669,58.9225625 106.921653,58.6292386 106.449917,58.4871023 L106.449917,58.4871023 Z M109.831736,36.1214091 C107.334545,36.1338125 105.468099,38.1545625 105.50281,40.8075511 C105.53719,43.4035511 107.401322,45.3730114 109.810579,45.3582614 C112.271736,45.3431761 114.159008,43.3710341 114.146777,40.8263239 C114.133554,38.0865114 112.319669,36.1086705 109.831736,36.1214091 L109.831736,36.1214091 Z" id="Shape" sketch:type="MSShapeGroup"></path>
            <path d="M16.1983471,-0.150852273 C15.7963636,0.303045455 15.4138843,0.776721591 14.9894215,1.20782386 C10.4442975,5.82658523 5.89421488,10.4406534 1.33950413,15.0496932 C0.914380165,15.4797898 0.447272727,15.8676477 -0.000330578512,16.2752841 L-0.000330578512,-0.150852273 C5.39933884,-0.150852273 10.7986777,-0.150852273 16.1983471,-0.150852273 L16.1983471,-0.150852273 Z" id="Shape" sketch:type="MSShapeGroup"></path>
            <path d="M33.1309091,24.9130852 C35.2476033,24.9130852 37.2214876,24.8768807 39.1933884,24.9228068 C41.225124,24.9704091 43.2585124,25.0508636 45.2852893,25.2007102 C48.5828099,25.4450909 51.2558678,28.209375 51.8842975,32.118125 C52.4836364,35.8478636 50.7771901,39.637608 47.7857851,41.3003352 C46.1438017,42.2131591 44.3338843,42.3804375 42.513719,42.4598864 C41.6456198,42.4981023 40.7742149,42.4665909 39.6654545,42.4665909 L39.6654545,50.1657557 L33.1312397,50.1657557 C33.1309091,41.7766932 33.1309091,33.4858523 33.1309091,24.9130852 L33.1309091,24.9130852 Z M39.7722314,36.6386648 C41.2310744,36.4918352 42.597686,36.4666932 43.911405,36.1874489 C45.0261157,35.9504432 45.5907438,34.8783864 45.568595,33.5941307 C45.5464463,32.3209375 44.96,31.3725795 43.762314,31.1214943 C42.498843,30.8566648 41.1894215,30.8177784 39.7722314,30.6665909 L39.7722314,36.6386648 L39.7722314,36.6386648 Z" id="Shape" sketch:type="MSShapeGroup"></path>
            <path d="M131.740165,30.6119489 C136.776198,30.3575114 141.766942,34.2910682 141.770909,40.7103352 C141.774545,46.6760398 137.377521,50.9384545 131.591736,50.8660455 C125.70314,50.7926307 121.534215,46.5744659 121.491901,40.6379261 C121.454876,35.4720739 125.455207,30.3192955 131.740165,30.6119489 L131.740165,30.6119489 Z M135.864463,40.6811705 C135.871405,38.0999205 134.008926,36.0935852 131.61719,36.1069943 C129.219504,36.1207386 127.338843,38.125733 127.32595,40.6825114 C127.313388,43.1903466 129.27438,45.2938977 131.61157,45.2798182 C134.032727,45.2654034 135.857521,43.2929261 135.864463,40.6811705 L135.864463,40.6811705 Z" id="Shape" sketch:type="MSShapeGroup"></path>
            <path d="M62.0882645,30.6119489 C68.4684298,30.3913693 72.2201653,35.8428352 72.1616529,40.6600511 C72.0899174,46.5634034 67.8961983,50.8512955 62.0261157,50.850625 C56.1728926,50.8502898 51.8555372,46.5335682 51.8538843,40.6855284 C51.852562,35.2508239 56.1276033,30.2881193 62.0882645,30.6119489 L62.0882645,30.6119489 Z M61.9216529,36.1059886 C59.6555372,36.1442045 57.7054545,38.2189261 57.6866116,40.611108 C57.6661157,43.1759318 59.7315702,45.3475341 62.1183471,45.2704318 C64.4687603,45.1946705 66.4396694,43.0170341 66.3603306,40.5836193 C66.2786777,38.0784659 64.2839669,36.0664318 61.9216529,36.1059886 L61.9216529,36.1059886 Z" id="Shape" sketch:type="MSShapeGroup"></path>
            <path d="M148.476364,50.1982727 L142.920331,50.1982727 C142.928595,49.614642 142.920331,31.7533977 142.920331,31.3504545 L147.94314,31.3504545 C148.050579,31.6752898 148.164959,32.0209091 148.279008,32.364517 C148.390083,32.3269716 148.52,32.321608 148.589091,32.2535568 C150.774215,30.0950284 153.384463,30.2224148 155.992727,31.0212614 C158.566612,31.8090455 159.835702,33.9669034 159.955702,36.473733 C160.170579,40.9718125 160.016198,45.4879943 160.016198,50.1392727 L154.38843,50.1392727 C154.360992,49.6324091 154.309091,49.098392 154.307438,48.5637045 C154.299174,45.773608 154.316694,42.9835114 154.293554,40.1934148 C154.287934,39.5303352 154.227107,38.8531761 154.077686,38.2095398 C153.751405,36.8052727 153.010248,36.2005227 151.673719,36.1261023 C150.185785,36.0436364 149.17157,36.664142 148.755702,38.037233 C148.56595,38.6637727 148.49686,39.3483068 148.489587,40.0076989 C148.461157,42.7418125 148.477025,45.4762614 148.476694,48.2107102 C148.476364,48.812108 148.476364,49.4135057 148.476364,50.1982727 L148.476364,50.1982727 Z" id="Shape" sketch:type="MSShapeGroup"></path>
            <path d="M100.075041,31.3276591 C96.9378512,39.7938239 93.8760331,48.0558352 90.7771901,56.4194205 L84.5980165,56.4194205 C85.5847934,53.9239886 86.5292562,51.5361648 87.471405,49.1530341 C85.2049587,43.26175 82.9520661,37.4063352 80.6238017,31.3544773 L86.8489256,31.3544773 C87.9990083,34.6343409 89.1705785,37.9785682 90.465124,41.671767 C91.6555372,38.0570114 92.7507438,34.7308864 93.8717355,31.3276591 L100.075041,31.3276591 L100.075041,31.3276591 Z" id="Shape" sketch:type="MSShapeGroup"></path>
            <path d="M79.3444628,50.0487614 L73.7765289,50.0487614 L73.7765289,24.9251534 C75.5735537,24.9177784 77.4122314,24.9251534 79.3444628,24.9251534 L79.3444628,50.0487614 L79.3444628,50.0487614 Z" id="Shape" sketch:type="MSShapeGroup"></path>
        </g>
    </g>
</svg>