<?xml version="1.0" encoding="UTF-8" standalone="no"?>
<svg width="160px" height="36px" viewBox="0 0 160 36" version="1.1" xmlns="http://www.w3.org/2000/svg" xmlns:xlink="http://www.w3.org/1999/xlink" xmlns:sketch="http://www.bohemiancoding.com/sketch/ns">
    <title>dailymail</title>
    <description>Created with Sketch (http://www.bohemiancoding.com/sketch)</description>
    <defs></defs>
    <g id="Page-1" stroke="none" stroke-width="1" fill="none" fill-rule="evenodd" sketch:type="MSPage">
        <g id="dailymail" sketch:type="MSLayerGroup" transform="translate(0.000000, 2.000000)" fill="#999999">
            <path d="M98.8035398,-0.0751578947 C98.9150442,0.0218315789 99.0152212,0.139578947 99.140531,0.213663158 C101.166372,1.41404211 103.191504,2.61549474 105.227611,3.79869474 C105.620885,4.02738947 105.786903,4.27433684 105.784779,4.77181053 C105.760354,10.6692 105.760354,16.5665895 105.775929,22.4636211 C105.779115,23.7108842 106.417699,24.6575158 107.36,25.4105263 C107.525664,25.5429474 107.716814,25.6424421 107.888142,25.7687789 C108.335221,26.0976842 108.32885,26.3682526 107.87823,26.6914316 C106.355398,27.7848 104.835398,28.8821053 103.306549,29.9668842 C103.187611,30.0509895 102.985133,30.124 102.863717,30.0806947 C100.658761,29.2947579 99.0460177,27.8871579 98.3373451,25.568 C98.2513274,25.2863368 98.2159292,24.9781895 98.2155752,24.6818526 C98.2084956,19.1280421 98.2063717,13.5745895 98.2159292,8.02077895 C98.2169912,7.44313684 98.1065487,7.06197895 97.4874336,6.8068 C96.5090265,6.40416842 95.5922124,5.84728421 94.6488496,5.35732632 C94.5522124,5.30686316 94.4495575,5.26785263 94.3238938,5.21202105 L94.3238938,12.8376842 L97.9975221,12.8376842 C97.5228319,13.5359368 97.1054867,14.1504421 96.6867257,14.7645895 C95.9716814,15.8128632 95.2488496,16.8554105 94.5476106,17.9129895 C94.4304425,18.0897895 94.3518584,18.3302947 94.3500885,18.5421684 C94.3345133,20.4025053 94.3469027,22.2635579 94.3334513,24.1242526 C94.3313274,24.4456421 94.4272566,24.6489263 94.6976991,24.8257263 C95.3628319,25.2605684 96.0095575,25.7244 96.659469,26.1825053 C97.1313274,26.5153474 97.1097345,26.5933684 96.6233628,26.8943579 C94.9943363,27.9025474 93.3709735,28.9207579 91.7585841,29.9561474 C91.4920354,30.1275789 91.3012389,30.1218526 91.0350442,29.9776211 C88.6410619,28.6824 86.240354,27.4007789 83.8417699,26.1137895 C83.7047788,26.0404211 83.5635398,25.9699158 83.439292,25.8772211 C83.0633628,25.5969895 83.0704425,25.3364421 83.4569912,25.0855579 C83.7900885,24.8693895 84.1115044,24.6228 84.4686726,24.4578105 C84.9532743,24.2341263 85.0661947,23.8919789 85.0555752,23.3769684 C85.0215929,21.7757474 85.0431858,20.1738105 85.0431858,18.5450316 L81.3490265,18.5450316 C81.3490265,19.8796211 81.3461947,21.1930947 81.3500885,22.5069263 C81.3529204,23.4367368 81.3762832,24.3665474 81.3667257,25.2967158 C81.3638938,25.5719368 81.4290265,25.7498105 81.680708,25.8800842 C81.9568142,26.0232421 82.2148673,26.2032632 82.4725664,26.3797053 C82.8778761,26.6574316 82.8725664,26.9927789 82.4417699,27.2400842 C80.7936283,28.1870737 79.140885,29.1254737 77.4835398,30.0549263 C77.3851327,30.1096842 77.2056637,30.1050316 77.1030088,30.0517053 C74.9033628,28.9057263 72.7072566,27.7522316 70.5150442,26.5912211 C70.0481416,26.3439158 70.0520354,26.0572421 70.5104425,25.7816632 C71.0456637,25.4606316 71.5971681,25.1660842 72.120354,24.8264421 C72.2541593,24.7398316 72.3869027,24.5268842 72.3872566,24.3715579 C72.4010619,19.2042737 72.400708,14.0369895 72.3883186,8.86970526 C72.3879646,8.71938947 72.2761062,8.51825263 72.1532743,8.42698947 C71.0481416,7.60347368 69.9309735,6.79713684 68.8134513,5.99115789 C68.5734513,5.81829474 68.300177,5.68981053 68.0736283,5.50191579 C67.8336283,5.30292632 67.8658407,5.09105263 68.1359292,4.91675789 C69.9253097,3.76326316 71.7132743,2.60762105 73.500531,1.45018947 C73.6948673,1.32421053 73.8474336,1.30166316 74.0750442,1.44016842 C75.6743363,2.41328421 77.2849558,3.36743158 78.9030088,4.30869474 C79.0095575,4.37061053 79.2265487,4.31907368 79.3550442,4.25 C81.5529204,3.06930526 83.7490265,1.88503158 85.9341593,0.680715789 C86.2757522,0.492821053 86.5334513,0.497115789 86.8722124,0.690736842 C88.5585841,1.65562105 90.2651327,2.58364211 91.9515044,3.54781053 C92.2573451,3.72246316 92.4665487,3.70242105 92.7529204,3.51703158 C94.6219469,2.30842105 96.5030088,1.11877895 98.380177,-0.0769473684 C98.520354,-0.0751578947 98.6619469,-0.0751578947 98.8035398,-0.0751578947 L98.8035398,-0.0751578947 Z M85.039646,12.8806316 C85.039646,11.0933053 85.0492035,9.39151579 85.0265487,7.6908 C85.0240708,7.49574737 84.8899115,7.21658947 84.7323894,7.12461053 C84.2371681,6.83614737 83.6962832,6.62856842 83.1826549,6.37016842 C82.5684956,6.06130526 81.9635398,5.7324 81.3539823,5.41208421 L81.3539823,17.4155158 C81.4817699,17.2430105 81.5430088,17.1678526 81.5964602,17.0873263 C82.4010619,15.8769263 83.2120354,14.6708211 84.0046018,13.4521895 C84.2442478,13.0839158 84.4495575,12.7074105 85.039646,12.8806316 L85.039646,12.8806316 Z M80.8092035,25.2548421 L80.8092035,5.27787368 C80.0336283,5.37414737 79.8449558,5.57707368 79.8421239,6.25671579 C79.8322124,8.47387368 79.820885,10.6913895 79.8138053,12.9081895 C79.8028319,16.2985263 79.7953982,19.6888632 79.7854867,23.0792 C79.7840708,23.5652211 79.7699115,24.0519579 79.7784071,24.5379789 C79.780531,24.6557263 79.8159292,24.8386105 79.8927434,24.8776211 C80.1943363,25.0315158 80.5185841,25.1396 80.8092035,25.2548421 L80.8092035,25.2548421 Z M93.8035398,4.97473684 C93.1015929,4.73637895 92.9380531,4.84088421 92.9419469,5.51229474 C92.9525664,7.28244211 92.9695575,9.05294737 92.9812389,10.8234526 C92.9854867,11.4894947 92.9819469,12.1558947 92.9819469,12.8226526 L93.8035398,12.8226526 L93.8035398,4.97473684 L93.8035398,4.97473684 Z M93.0148673,18.5482526 C93.0148673,20.2342947 93.0099115,21.9053053 93.0244248,23.5759579 C93.0254867,23.7026526 93.1362832,23.8776632 93.2467257,23.9435158 C93.4176991,24.0458737 93.6318584,24.0734316 93.8446018,24.1382105 L93.8446018,18.5482526 L93.0148673,18.5482526 L93.0148673,18.5482526 Z" id="Shape" sketch:type="MSShapeGroup"></path>
            <path d="M0.0849557522,3.44652632 C2.81486726,3.44795789 5.55185841,3.32663158 8.2739823,3.47873684 C12.7182301,3.72675789 15.780177,6.16545263 16.8987611,10.9909474 C17.459823,13.4131789 17.4145133,15.8740632 17.2743363,18.3324421 C17.1670796,20.2146105 16.7922124,22.0420211 15.9483186,23.7441684 C14.6948673,26.2719789 12.640354,27.7042737 9.91681416,28.1727579 C9.15469027,28.3037474 8.37097345,28.3542105 7.59681416,28.3599368 C5.09309735,28.3789053 2.58902655,28.3602947 0.0849557522,28.3556421 L0.0849557522,3.44652632 L0.0849557522,3.44652632 Z M2.10088496,26.7422526 C2.21557522,26.7540632 2.28460177,26.7676632 2.35327434,26.7676632 C4.26442478,26.7687368 6.17699115,26.8066737 8.08707965,26.7601474 C11.2757522,26.6817684 13.3904425,25.1506947 14.4300885,22.2453053 C15.0541593,20.5012842 15.2414159,18.6849684 15.2860177,16.8478947 C15.340531,14.6228632 15.2584071,12.4085684 14.5189381,10.2805263 C13.4945133,7.33362105 11.5153982,5.45646316 8.38513274,5.17408421 C6.33451327,4.98869474 4.25734513,5.09821053 2.19185841,5.07745263 C2.16884956,5.07709474 2.14548673,5.10429474 2.10053097,5.13185263 C2.10088496,12.3137263 2.10088496,19.5084842 2.10088496,26.7422526 L2.10088496,26.7422526 Z" id="Shape" sketch:type="MSShapeGroup"></path>
            <path d="M53.0123894,34.0246947 C53.3136283,33.3028211 53.6084956,32.5780842 53.9175221,31.8597895 C54.3854867,30.7721474 54.8520354,29.6834316 55.3437168,28.6068842 C55.4750442,28.3198526 55.4729204,28.0915158 55.3504425,27.8030526 C52.820531,21.8573474 50.300531,15.9069895 47.779469,9.95734737 C47.720354,9.81812632 47.6729204,9.67389474 47.5989381,9.47526316 C48.2661947,9.47526316 48.8722124,9.45808421 49.4750442,9.49065263 C49.5858407,9.49673684 49.7263717,9.68677895 49.7844248,9.82242105 C50.7830088,12.1573263 51.7706195,14.4972421 52.7614159,16.8353684 C54.0081416,19.7779789 55.2552212,22.7195158 56.5033628,25.6614105 C56.5352212,25.7369263 56.5766372,25.8077895 56.6438938,25.9402105 C57.0492035,25.0007368 57.4343363,24.1135158 57.8148673,23.2245053 C59.7284956,18.7529684 61.6424779,14.2817895 63.5479646,9.80667368 C63.6527434,9.56044211 63.7769912,9.45629474 64.0477876,9.46774737 C64.5550442,9.48922105 65.0637168,9.47418947 65.6339823,9.47418947 C65.5727434,9.6492 65.5362832,9.78126316 65.4817699,9.90545263 C61.9975221,17.8782737 58.5122124,25.8500211 55.0276106,33.8228421 C54.999646,33.8869053 54.9869027,33.9574105 54.9667257,34.0243368 C54.3150442,34.0246947 53.6637168,34.0246947 53.0123894,34.0246947 L53.0123894,34.0246947 Z" id="Shape" sketch:type="MSShapeGroup"></path>
            <path d="M108.742655,22.8286737 C108.733097,20.9737053 108.919646,19.3828632 109.452743,17.8338947 C109.894513,16.5508421 110.84,15.6568211 111.72177,14.7205684 C113.618053,12.7070526 115.92354,11.2507789 118.330619,9.96128421 C119.76531,9.19252632 121.246372,8.51145263 122.718938,7.81677895 C122.911858,7.72587368 123.219115,7.70332632 123.401062,7.79566316 C125.43469,8.82818947 127.456991,9.88469474 129.476106,10.9462105 C130.065487,11.2561474 130.644248,11.5889895 131.210973,11.9390105 C131.394336,12.0521053 131.558584,12.2328421 131.670088,12.4200211 C131.824779,12.6798526 131.780885,12.9343158 131.517876,13.1358105 C131.168496,13.4035158 130.819115,13.6744421 130.496283,13.9729263 C130.368496,14.0910316 130.233628,14.2864421 130.232566,14.4478526 C130.216637,17.3532421 130.217345,20.2582737 130.231858,23.1633053 C130.232566,23.3111158 130.35469,23.5090316 130.479646,23.5970737 C131.385133,24.2344842 132.306549,24.8486316 133.220885,25.4731579 C133.763894,25.8442947 133.783717,26.3031158 133.27823,26.7036 C131.909027,27.7898105 130.537345,28.8731579 129.173097,29.9658105 C128.999646,30.1046737 128.872566,30.1490526 128.652389,30.0398947 C126.178053,28.8108842 123.698761,27.5936842 121.213097,26.3886526 C121.086726,26.3270947 120.843894,26.3449895 120.737699,26.4301684 C119.275398,27.6044211 117.829027,28.7987158 116.373451,29.9812 C116.272212,30.0631579 116.118584,30.1508421 116.003894,30.1343789 C113.938761,29.8358947 112.049204,29.1315579 110.589735,27.5521684 C109.310088,26.1664 108.613451,24.5354737 108.742655,22.8286737 L108.742655,22.8286737 Z M121.671858,19.9383158 L121.729204,19.9383158 C121.729204,18.3363789 121.72177,16.7348 121.735929,15.1328632 C121.738407,14.8569263 121.658761,14.6926526 121.429381,14.5409053 C120.329204,13.8129474 119.228319,13.0842737 118.155044,12.3169474 C117.820531,12.0778737 117.573805,12.0950526 117.246018,12.2876 C115.816637,13.1265053 114.958584,14.3215158 114.655929,16.0004 C114.329912,17.8088421 114.498053,19.5364 115.363894,21.1154316 C116.413451,23.0290947 118.060531,24.3644 119.972743,25.3554105 C120.232566,25.4899789 120.575575,25.5182526 120.875752,25.5042947 C121.410265,25.4792421 121.671858,25.1539158 121.672212,24.6149263 C121.672566,23.0559368 121.671858,21.4969474 121.671858,19.9383158 L121.671858,19.9383158 Z" id="Shape" sketch:type="MSShapeGroup"></path>
            <path d="M156.92531,12.6834316 C156.92531,16.3325263 156.92354,19.9816211 156.92708,23.6307158 C156.927434,24.1303368 157.020177,24.5122105 157.580531,24.7745474 C158.342655,25.1320842 159.029735,25.6606947 159.731327,26.1413474 C159.992566,26.3206526 159.980885,26.6001684 159.738053,26.7937895 C158.393982,27.8664 157.042478,28.9286316 155.683186,29.9812 C155.600708,30.0449053 155.410973,30.0366737 155.304071,29.9883579 C152.969204,28.9314947 150.630088,27.8825053 148.312212,26.7880632 C147.470088,26.3908 147.244248,26.1438526 148.103717,25.4022947 C148.658053,24.9237895 148.981239,24.4188 148.970265,23.5917053 C148.928496,20.4447368 149.008496,17.2966947 149.007788,14.1490105 C149.00708,11.6169053 148.931681,9.0848 148.938761,6.55269474 C148.941947,5.49404211 148.468319,4.83122105 147.567434,4.39458947 C147.449558,4.33732632 147.328142,4.19309474 147.303363,4.06962105 C147.288496,3.99589474 147.442124,3.83090526 147.547965,3.79726316 C150.390088,2.89214737 153.236106,1.99848421 156.082124,1.10517895 C156.189027,1.07189474 156.302655,1.05185263 156.414159,1.04505263 C156.919292,1.01391579 157.009558,1.10016842 157.009912,1.60981053 C157.010265,5.30077895 157.010265,8.99210526 157.010265,12.6830737 C156.981947,12.6834316 156.953982,12.6834316 156.92531,12.6834316 L156.92531,12.6834316 Z" id="Shape" sketch:type="MSShapeGroup"></path>
            <path d="M134.08531,26.2848632 C134.241416,26.0436421 134.32177,25.8553895 134.456991,25.7258316 C134.713628,25.4810316 134.983009,25.2408842 135.281062,25.0533474 C135.597876,24.8543579 135.645664,24.5787789 135.638584,24.2513053 C135.60708,22.8222316 135.572389,21.3928 135.551858,19.9637263 C135.52708,18.2333053 135.521416,16.5028842 135.485664,14.7728211 C135.482832,14.6285895 135.348673,14.4321053 135.219823,14.3551579 C134.478938,13.9113684 133.717168,13.5037263 132.970973,13.0685263 C132.442124,12.7600211 132.400708,12.3663368 132.854513,11.9476 C133.093805,11.7271368 133.356106,11.5267158 133.627965,11.3474105 C134.977699,10.4576842 136.32885,9.56867368 137.696283,8.70686316 C137.851681,8.6088 138.156814,8.59985263 138.318584,8.68825263 C140.531681,9.89543158 142.732035,11.1273053 144.935929,12.3523789 C145.059823,12.4210947 145.187257,12.4830105 145.31115,12.5520842 C145.726018,12.7836421 145.748319,13.0670947 145.331681,13.3126105 C144.993274,13.5119579 144.626195,13.6909053 144.24885,13.7828842 C143.991858,13.8455158 143.865841,13.9593263 143.833982,14.1822947 C143.781947,14.5480632 143.733097,14.9195579 143.736283,15.2881895 C143.76177,18.2483368 143.793628,21.2084842 143.849912,24.1682737 C143.853097,24.3418526 144.04885,24.5691158 144.215221,24.6725474 C144.901239,25.0988 145.613451,25.4824632 146.310796,25.8908211 C146.752566,26.1495789 146.743009,26.3328211 146.335575,26.6177053 C144.765664,27.7153684 143.2,28.8198316 141.642478,29.9361053 C141.408142,30.1043158 141.235044,30.1329474 140.970265,29.9965895 C138.843186,28.8989263 136.705487,27.8223789 134.577345,26.7265053 C134.399646,26.6348842 134.267611,26.452 134.08531,26.2848632 L134.08531,26.2848632 Z" id="Shape" sketch:type="MSShapeGroup"></path>
            <path d="M32.0442478,18.2469053 C32.0442478,17.4369895 32.0453097,16.6270737 32.0438938,15.8171579 C32.0428319,15.3021474 32.0513274,14.7864211 32.0318584,14.2721263 C31.9660177,12.5288211 31.0555752,11.3481263 29.3985841,10.8467158 C28.2106195,10.4870316 26.9950442,10.5006316 25.779823,10.6194526 C24.2247788,10.7712 22.7288496,11.1666737 21.2576991,11.8810316 C21.2576991,11.3413263 21.239646,10.8599579 21.2711504,10.3821684 C21.2785841,10.2715789 21.4371681,10.1123158 21.5561062,10.0772421 C22.6640708,9.74905263 23.7624779,9.34964211 24.8948673,9.1528 C26.4729204,8.87865263 28.079646,8.82532632 29.659115,9.21042105 C31.660531,9.69787368 33.1660177,10.7826526 33.7461947,12.8824211 C33.8736283,13.3441053 33.9281416,13.8405053 33.9295575,14.3215158 C33.9437168,18.9150947 33.939115,23.5083158 33.939469,28.1018947 C33.939469,28.1709684 33.9284956,28.2407579 33.92,28.3395368 L32.1557522,28.3395368 L32.1557522,25.1979368 C32.0307965,25.2577053 31.980531,25.2648632 31.9677876,25.2902737 C31.079292,27.0929895 29.5288496,27.9938105 27.6750442,28.3982316 C25.6584071,28.8380842 23.6707965,28.7178316 21.8244248,27.6813684 C20.0325664,26.6756842 19.1635398,25.0519158 18.9575221,23.0419789 C18.8297345,21.7961474 18.8615929,20.5503158 19.3168142,19.3603158 C20.1681416,17.1356421 21.8417699,15.8955368 24.0938053,15.4295579 C26.1185841,15.0104632 28.0927434,15.1650737 29.9284956,16.2312421 C30.7270796,16.6943579 31.1660177,17.1445895 32.0442478,18.2469053 L32.0442478,18.2469053 Z M26.2474336,27.1828211 C27.2453097,27.1087368 28.1968142,26.9437474 29.1083186,26.5443368 C32.5362832,25.0415368 32.9433628,20.3395158 30.5366372,18.2361684 C29.2817699,17.1399368 27.8184071,16.6818316 26.1971681,16.7033053 C24.8219469,16.7212 23.5362832,17.0790947 22.4584071,17.9913684 C20.9384071,19.278 20.6704425,20.9844421 20.8870796,22.8548 C21.1118584,24.7963789 22.3111504,26.2784211 24.1720354,26.7966526 C24.8477876,26.9841895 25.5546903,27.0575579 26.2474336,27.1828211 L26.2474336,27.1828211 Z" id="Shape" sketch:type="MSShapeGroup"></path>
            <path d="M45.3376991,28.3517053 L43.4307965,28.3517053 L43.4307965,3.46728421 L45.3376991,3.46728421 L45.3376991,28.3517053 L45.3376991,28.3517053 Z" id="Shape" sketch:type="MSShapeGroup"></path>
            <path d="M37.9047788,9.39223158 L39.8290265,9.39223158 L39.8290265,28.3409684 L37.9047788,28.3409684 L37.9047788,9.39223158 L37.9047788,9.39223158 Z" id="Shape" sketch:type="MSShapeGroup"></path>
            <path d="M143.784779,3.05427368 C143.779823,3.6924 143.661947,4.29366316 143.321416,4.85054737 C142.499823,6.19444211 141.446726,7.27886316 140.010265,7.94311579 C139.435752,8.20867368 139.129204,8.09808421 138.812743,7.55587368 C138.124248,6.37553684 137.835752,5.10823158 137.964956,3.73928421 C138.086018,2.45229474 139.700531,0.327473684 141.334867,0.483515789 C142.607434,0.604842105 143.840708,1.41654737 143.784779,3.05427368 L143.784779,3.05427368 Z" id="Shape" sketch:type="MSShapeGroup"></path>
            <path d="M40.0757522,4.40282105 L40.0757522,7.26132632 C39.3044248,7.26132632 38.5313274,7.26669474 37.7589381,7.25130526 C37.6938053,7.25023158 37.5773451,7.10993684 37.5762832,7.03298947 C37.5631858,6.16473684 37.5681416,5.29576842 37.5681416,4.40282105 C38.4290265,4.40282105 39.2410619,4.40282105 40.0757522,4.40282105 L40.0757522,4.40282105 Z" id="Shape" sketch:type="MSShapeGroup"></path>
        </g>
    </g>
</svg>