<?xml version="1.0" encoding="UTF-8" standalone="no"?>
<svg width="196px" height="42px" viewBox="0 0 196 42" version="1.1" xmlns="http://www.w3.org/2000/svg" xmlns:xlink="http://www.w3.org/1999/xlink" xmlns:sketch="http://www.bohemiancoding.com/sketch/ns">
    <title>cinemania</title>
    <description>Created with Sketch (http://www.bohemiancoding.com/sketch)</description>
    <defs></defs>
    <g id="Page-1" stroke="none" stroke-width="1" fill="none" fill-rule="evenodd" sketch:type="MSPage">
        <g id="diario-sur" sketch:type="MSLayerGroup" transform="translate(32.000000, 7.000000)" fill="#999999">
            <path d="M22.9065377,0.00130855052 C23.2786824,0.0457992681 23.650173,0.110572519 24.0236258,0.131509327 C28.0021077,0.359197117 31.9446178,0.821769725 35.7837907,1.94450607 C37.4345696,2.42736121 37.4312995,2.43979244 37.4312995,4.12520551 L37.4312995,7.98477526 L37.4312995,8.74373456 C36.5568575,8.74373456 35.7739802,8.76859702 34.994373,8.72606913 C34.8060115,8.71560072 34.5797162,8.51931814 34.4554499,8.34658948 C31.9354613,4.85537669 28.4200347,3.23473688 24.2316083,2.84675165 C21.3538637,2.58046162 18.4761191,2.39464745 15.6441568,3.1627666 C14.8253077,3.38522019 14.0182311,3.70843217 13.2641312,4.0990345 C12.343907,4.57534688 11.7722823,5.33038053 11.8317993,6.45442543 C11.8913162,7.5765075 12.5185338,8.32368984 13.5021992,8.63970479 C15.0359062,9.13171979 16.5996988,9.58644109 18.1857285,9.84357127 C21.6148228,10.3997052 25.0740026,10.7693708 28.505713,11.3104564 C31.4285859,11.7710662 34.2965199,12.4770292 36.9034949,13.962234 C38.6733079,14.9704722 40.1265689,16.2979967 40.6916533,18.3255957 C41.4575257,21.0742061 40.805455,23.474742 38.637336,25.3747574 C36.5136913,27.2355162 33.918489,28.1220592 31.2264897,28.7174497 C24.1197686,30.2890188 16.9705354,30.3570635 9.79121673,29.2447955 C7.22152162,28.8463419 4.68583622,28.3301187 2.23648315,27.437033 C1.85452796,27.2976723 1.59226079,27.1354121 1.53405186,26.6656424 C1.28617341,24.6570174 0.995782818,22.6542808 0.726975312,20.6482729 C0.702776096,20.4670386 0.723705148,20.2792616 0.723705148,20.0025032 C1.68251732,20.0025032 2.60404962,19.9750236 3.52100369,20.0247486 C3.71917565,20.0358712 3.94547102,20.2956185 4.08412599,20.4932097 C5.11488177,21.9679461 6.31241594,23.2732252 7.75586647,24.361285 C9.95864914,26.0218356 12.4805999,26.7866834 15.1719451,27.0765273 C18.4074456,27.4246017 21.6462164,27.4501185 24.8313564,26.7134045 C25.7999791,26.4896424 26.7888767,26.0440809 27.5874509,25.4539247 C29.163016,24.289969 28.8765496,22.1989053 27.1211254,21.3293734 C25.1845341,20.3702059 23.0733161,20.1484066 20.9732165,19.8526742 C17.1333896,19.3128971 13.2817901,18.8293877 9.47270272,18.119499 C6.96579477,17.6523465 4.5700724,16.7226213 2.54845683,15.0594536 C-0.649109827,12.4292671 -0.868864868,8.04889423 2.06578058,5.1275552 C3.99844768,3.20464022 6.44256848,2.2107961 8.9946047,1.44791115 C11.4217206,0.723628436 13.9037754,0.293115316 16.4361906,0.158988888 C16.7847901,0.140669181 17.1294654,0.0549591217 17.4754488,0 C19.2858118,0.00130855052 21.0961747,0.00130855052 22.9065377,0.00130855052 L22.9065377,0.00130855052 Z" id="Shape" sketch:type="MSShapeGroup"></path>
            <path d="M105.730925,16.6757208 L105.730925,21.2637708 C105.730925,22.4270853 105.724445,23.5903999 105.733517,24.7537144 C105.740645,25.6653253 106.164426,26.099612 107.079378,26.1178703 C107.947027,26.1348244 108.815325,26.1211307 109.736757,26.1211307 L109.736757,28.9870317 L89,28.9870317 L89,26.0852662 C89.8721853,26.0852662 90.7139154,26.1093932 91.5537016,26.0793974 C92.7621902,26.0370121 93.0045359,25.7755272 93.0045359,24.5893897 C93.0064798,18.1083453 93.0058318,11.627953 93.0038879,5.14690855 C93.0038879,4.20986651 92.7531184,3.91382122 91.807063,3.87143588 C90.8940548,3.8303547 89.9778066,3.86230673 89.0077758,3.86230673 L89.0077758,1.0368348 C89.2773368,1.02379316 89.5261623,1.00162237 89.7749879,1.00162237 C97.9136562,1.01270776 106.052325,0.965105767 114.189697,1.06813475 C117.530698,1.11052008 120.815325,1.74760434 123.818079,3.33998893 C127.072898,5.06605037 128.131055,8.62446262 126.365948,11.6820758 C125.67779,12.874734 124.643609,13.6813596 123.437065,14.2806231 C121.636967,15.1739757 119.699498,15.5691374 117.727037,15.8280141 C117.333711,15.8801806 116.941682,15.9440847 116.374048,16.0282033 C120.767374,21.5050412 125.577353,26.0148413 133,26.3826156 L133,28.9942046 C131.858902,28.9942046 130.756682,29.0092025 129.655111,28.9909442 C127.368378,28.9518193 125.08035,28.9381255 122.796209,28.8357487 C118.731411,28.6531657 115.531022,26.7595191 112.912522,23.7045143 C111.210271,21.7189241 109.662239,19.6342175 108.482909,17.2925906 C108.2451,16.8204831 107.971651,16.6235543 107.450024,16.6652875 C106.91479,16.708977 106.372428,16.6757208 105.730925,16.6757208 L105.730925,16.6757208 Z M106.079048,3.00752488 C106.079048,3.37057564 106.080319,3.63522947 106.079048,3.89988329 C106.071428,5.1084691 106.065077,6.31705491 106.056186,7.52564072 C106.039039,9.79487763 106.021257,12.0641145 106.0003,14.3326729 C105.997125,14.6787586 106.011096,14.9637704 106.453104,14.978021 C108.098566,15.032309 109.745933,15.0343448 111.305661,14.3930682 C113.323273,13.563141 114.678509,12.0837939 114.950953,9.70123089 C115.197995,7.53989131 114.512756,5.68324293 112.873645,4.44751314 C110.871909,2.93898632 108.500564,2.9817381 106.079048,3.00752488 L106.079048,3.00752488 Z" id="Shape" sketch:type="MSShapeGroup"></path>
            <path d="M41,3.92434408 L41,1.01715158 L62.3158173,1.01715158 L62.3158173,3.99558909 C61.3876074,3.99558909 60.4768742,3.99361007 59.5667883,3.99624877 C58.5142992,3.99954715 58.2366129,4.28386754 58.2385548,5.36771535 C58.2476168,9.90760615 58.2618571,14.4468373 58.2689773,18.9867281 C58.2748029,22.8755186 60.0658468,25.2688234 63.8052254,26.0380057 C66.7581499,26.6455674 69.7266094,26.5809192 72.5267742,25.241117 C74.8408262,24.1335209 76.131517,22.2204602 76.2007767,19.6180381 C76.2985171,15.897465 76.2693892,12.1735935 76.2894551,8.45170104 C76.2946334,7.39489995 76.2790985,6.33809887 76.2732729,5.28129778 C76.2674473,4.36896576 76.0428386,4.04968253 75.1353419,3.98371492 C74.0796163,3.90653282 73.0167706,3.9375376 71.9565141,3.92500375 C71.582382,3.92038602 71.20825,3.92434408 70.7797458,3.92434408 L70.7797458,1 L85,1 L85,3.99624877 C84.0361892,3.99624877 83.0989173,3.99163104 82.1622926,3.99756812 C81.1525244,4.00416488 80.9324467,4.23637086 80.9317995,5.27404134 C80.9317995,9.76643547 80.854125,14.2601489 80.9551018,18.7492447 C81.0444274,22.7369866 79.2546781,25.4660666 75.9418618,27.3263531 C73.2083677,28.8614194 70.2379663,29.6134501 67.1633518,29.8410384 C62.9443333,30.1524055 58.7304931,30.0673073 54.58656,29.0316158 C52.6790044,28.55467 50.8504178,27.8811407 49.1461104,26.8619412 C46.3686007,25.2008768 45.0604331,22.738306 45.0779099,19.4722497 C45.1038013,14.7166448 45.08503,9.96038024 45.08503,5.20411568 C45.08503,4.09783889 44.9264446,3.93621825 43.8079322,3.92698278 C42.8933153,3.91840699 41.9799929,3.92434408 41,3.92434408 L41,3.92434408 Z" id="Shape" sketch:type="MSShapeGroup"></path>
        </g>
    </g>
</svg>