<?xml version="1.0" encoding="UTF-8" standalone="no"?>
<svg width="112px" height="50px" viewBox="0 0 112 50" version="1.1" xmlns="http://www.w3.org/2000/svg" xmlns:xlink="http://www.w3.org/1999/xlink" xmlns:sketch="http://www.bohemiancoding.com/sketch/ns">
    <!-- Generator: Sketch 3.3.3 (12081) - http://www.bohemiancoding.com/sketch -->
    <title>Slice 1</title>
    <desc>Created with Sketch.</desc>
    <defs></defs>
    <g id="Page-1" stroke="none" stroke-width="1" fill="none" fill-rule="evenodd" sketch:type="MSPage">
        <g id="tnw-logo-mono" sketch:type="MSLayerGroup" transform="translate(0.059701, 0.000000)" fill="#999999">
            <path d="M99.9597015,0.000995024876 L94.4825871,16.1512438 L91.1074627,2.98631841 C90.4238806,0.31840796 89.5659204,0.034079602 88.9910448,0.00373134328 C88.3462687,0.0450248756 87.8696517,1.45074627 87.7059701,2.20099502 L84.6368159,16.2711443 L88.8044776,34.8268657 L99.0034826,34.8268657 L111.9,0.000995024876 L99.9597015,0.000995024876 L99.9597015,0.000995024876 Z" id="Shape" sketch:type="MSShapeGroup"></path>
            <path d="M30.6850746,0.264179104 C30.3069652,0.0156716418 29.9537313,0.000746268657 29.9492537,0.000746268657 L0,0.000746268657 L3.68457711,9.95099502 L12.8067164,9.95099502 L12.8067164,34.8266169 L22.7569652,34.8266169 L22.7569652,9.95099502 L31.3343284,9.95099502 L31.3343284,1.99154229 C31.3345771,1.15547264 31.1557214,0.574378109 30.6850746,0.264179104 L30.6850746,0.264179104 Z" id="Shape" sketch:type="MSShapeGroup"></path>
            <path d="M54.5942786,2.98606965 L54.5942786,15.5420398 L43.9226368,1.97313433 C42.9460199,0.683084577 41.4057214,0.00646766169 39.9902985,0.00646766169 L31.6925373,0.00199004975 C32.0171642,0.442288557 32.2059701,1.07587065 32.2059701,1.99154229 L32.2059701,2.98656716 L32.2059701,34.8268657 L42.1562189,34.8268657 L42.1562189,15.8532338 L55.7577114,32.9763682 C56.7475124,34.2032338 58.2310945,34.8328358 59.6940299,34.8236318 L59.6532338,34.8276119 L64.5442786,34.8271144 L64.5442786,1.99104478 C64.5442786,1.19626866 64.8945274,0.498507463 65.2731343,0.000995024876 L57.6997512,0.000995024876 C56.0512438,0.000995024876 54.5942786,1.33756219 54.5942786,2.98606965 L54.5942786,2.98606965 Z" id="Shape" sketch:type="MSShapeGroup"></path>
            <path d="M87.4947761,0 L79.5380597,0.00199004975 C78.8457711,0.00199004975 77.0154229,-0.000248756219 76.5106965,2.9840796 L74.2383085,16.4144279 L74.2106965,16.1910448 L70.0211443,3.01368159 C69.1256219,0.197512438 67.7803483,0 67.00199,0 C66.1221393,0 65.4228856,0.837562189 65.4228856,1.99104478 L65.4228856,24.3293532 L69.5233831,34.8268657 L79.5363184,34.8268657 L86.7186567,1.98905473 C86.918408,1.07363184 87.2064677,0.440298507 87.4947761,0 L87.4947761,0 Z" id="Shape" sketch:type="MSShapeGroup"></path>
            <g id="Group" transform="translate(3.731343, 41.791045)" sketch:type="MSShapeGroup">
                <path d="M2.30845771,7.96119403 L2.30845771,1.65074627 L0.00995024876,1.65074627 L0.00995024876,0.229850746 L6.32039801,0.229850746 L6.32039801,1.65074627 L4.01144279,1.65074627 L4.01144279,7.96119403 L2.30845771,7.96119403 L2.30845771,7.96119403 Z" id="Shape"></path>
                <path d="M9.62164179,7.96119403 L9.62164179,0.229850746 L11.3246269,0.229850746 L11.3246269,3.22835821 L14.3649254,3.22835821 L14.3649254,0.229850746 L16.0679104,0.229850746 L16.0679104,7.96119403 L14.3649254,7.96119403 L14.3649254,4.65970149 L11.3246269,4.65970149 L11.3246269,7.96119403 L9.62164179,7.96119403 L9.62164179,7.96119403 Z" id="Shape"></path>
                <path d="M19.9335821,7.96119403 L19.9335821,0.229850746 L25.1992537,0.229850746 L25.1992537,1.65074627 L21.6365672,1.65074627 L21.6365672,3.3119403 L24.2171642,3.3119403 L24.2171642,4.65970149 L21.6365672,4.65970149 L21.6365672,6.58233831 L25.3873134,6.58233831 L25.3873134,7.96144279 L19.9335821,7.96144279 L19.9335821,7.96119403 Z" id="Shape"></path>
                <path d="M33.9126866,7.96119403 L33.9126866,0.229850746 L35.6156716,0.229850746 L38.8544776,5.16119403 L38.8753731,5.16119403 L38.8753731,0.229850746 L40.4425373,0.229850746 L40.4425373,7.96119403 L38.8753731,7.96119403 L35.5007463,2.9880597 L35.4798507,2.9880597 L35.4798507,7.96119403 L33.9126866,7.96119403 L33.9126866,7.96119403 Z" id="Shape"></path>
                <path d="M44.308209,7.96119403 L44.308209,0.229850746 L49.5738806,0.229850746 L49.5738806,1.65074627 L46.011194,1.65074627 L46.011194,3.3119403 L48.591791,3.3119403 L48.591791,4.65970149 L46.011194,4.65970149 L46.011194,6.58233831 L49.7619403,6.58233831 L49.7619403,7.96144279 L44.308209,7.96144279 L44.308209,7.96119403 Z" id="Shape"></path>
                <path d="M52.7395522,7.96119403 L55.2156716,3.8761194 L52.9589552,0.229850746 L54.9022388,0.229850746 L56.2810945,2.54925373 L57.5870647,0.229850746 L59.3425373,0.229850746 L57.1380597,3.88656716 L59.6455224,7.96119403 L57.7542289,7.96119403 L56.1139303,5.25522388 L54.5258706,7.96119403 L52.7395522,7.96119403 L52.7395522,7.96119403 Z" id="Shape"></path>
                <path d="M64.7855721,7.96119403 L64.7855721,1.65074627 L62.4870647,1.65074627 L62.4870647,0.229850746 L68.7975124,0.229850746 L68.7975124,1.65074627 L66.4885572,1.65074627 L66.4885572,7.96119403 L64.7855721,7.96119403 L64.7855721,7.96119403 Z" id="Shape"></path>
                <path d="M78.6706468,7.96119403 L76.6126866,0.229850746 L78.3261194,0.229850746 L79.1410448,3.75074627 C79.3291045,4.46094527 79.4544776,5.02537313 79.5171642,5.44328358 L79.5380597,5.44328358 C79.5937811,5.05348259 79.7119403,4.49253731 79.8932836,3.76119403 L80.6768657,0.229850746 L82.2440299,0.229850746 L83.079602,3.78208955 C83.2885572,4.66666667 83.4104478,5.22039801 83.4455224,5.44328358 L83.4664179,5.44328358 C83.508209,5.14402985 83.6233831,4.59701493 83.8114428,3.80298507 L84.5945274,0.229850746 L86.1619403,0.229850746 L84.1457711,7.96119403 L82.6935323,7.96119403 L81.4708955,2.58059701 L81.45,2.58059701 L80.1440299,7.96119403 L78.6706468,7.96119403 L78.6706468,7.96119403 Z" id="Shape"></path>
                <path d="M89.4527363,7.96119403 L89.4527363,0.229850746 L94.718408,0.229850746 L94.718408,1.65074627 L91.1557214,1.65074627 L91.1557214,3.3119403 L93.7363184,3.3119403 L93.7363184,4.65970149 L91.1557214,4.65970149 L91.1557214,6.58233831 L94.9064677,6.58233831 L94.9064677,7.96144279 L89.4527363,7.96144279 L89.4527363,7.96119403 Z" id="Shape"></path>
                <path d="M98.3437811,7.96119403 L98.3437811,0.229850746 L101.436318,0.229850746 C103.275124,0.229850746 104.194527,0.867164179 104.194527,2.1420398 C104.194527,2.65746269 104.056965,3.06119403 103.781841,3.35373134 C103.506716,3.64651741 103.153234,3.83457711 102.721393,3.9181592 L102.721393,3.93905473 C103.842786,4.14104478 104.403483,4.77139303 104.403483,5.8300995 C104.403483,6.55472637 104.135323,7.09079602 103.599254,7.43930348 C103.062687,7.78756219 102.39403,7.96169154 101.593284,7.96169154 L98.3437811,7.96169154 L98.3437811,7.96119403 Z M100.015423,3.41641791 L101.269154,3.41641791 C102.132836,3.41641791 102.564677,3.10646766 102.564677,2.48656716 C102.564677,1.85945274 102.139801,1.54626866 101.29005,1.54626866 L100.015423,1.54626866 L100.015423,3.41641791 L100.015423,3.41641791 Z M100.015423,6.66567164 L101.38408,6.66567164 C102.289552,6.66567164 102.742289,6.32089552 102.742289,5.63134328 C102.742289,4.95572139 102.265174,4.61791045 101.310945,4.61791045 L100.015423,4.61791045 L100.015423,6.66567164 L100.015423,6.66567164 Z" id="Shape"></path>
            </g>
        </g>
    </g>
</svg>