<?xml version="1.0" encoding="UTF-8" standalone="no"?>
<svg width="196px" height="42px" viewBox="0 0 196 42" version="1.1" xmlns="http://www.w3.org/2000/svg" xmlns:xlink="http://www.w3.org/1999/xlink" xmlns:sketch="http://www.bohemiancoding.com/sketch/ns">
    <title>featuredon-</title>
    <description>Created with Sketch (http://www.bohemiancoding.com/sketch)</description>
    <defs></defs>
    <g id="Page-1" stroke="none" stroke-width="1" fill="none" fill-rule="evenodd" sketch:type="MSPage">
        <g id="Group" sketch:type="MSLayerGroup" transform="translate(32.000000, 2.000000)" fill="#999999">
            <g transform="translate(66.289845, 18.880188) scale(1, -1) translate(-66.289845, -18.880188) translate(46.273123, -0.119812)" id="Shape" sketch:type="MSShapeGroup">
                <path d="M25.6265569,13.4554627 C25.6265569,9.3642747 20.5012455,9.60683669 20.5012455,9.60683669 L15.3759341,9.60683669 L15.3759341,17.0011589 L20.5012455,17.0011589 C25.7792179,17.0313428 25.6265569,13.4554627 25.6265569,13.4554627 L25.6265569,13.4554627 Z M15.3759341,28.2746547 L19.2810553,28.2746547 C23.3384714,28.0622766 23.1858104,25.0624357 23.1858104,25.0624357 C23.1858104,21.3349089 18.7011629,21.2741775 18.7011629,21.2741775 L15.3759341,21.2741775 L15.3759341,28.2746547 L15.3759341,28.2746547 Z M24.6809369,19.8195329 C24.6809369,19.8195329 28.1892125,21.3043613 28.1588268,25.2442663 C28.1588268,25.2442663 28.6922252,31.6988881 20.0817021,32.4869418 L10.525193,32.4869418 L10.525193,5.42473342 L21.4776173,5.42473342 C21.4776173,5.42473342 30.629959,5.39418589 30.629959,13.0616176 C30.629959,13.0616176 30.8433916,18.273973 24.6809369,19.8195329 L24.6809369,19.8195329 Z M-0.0468599897,37.7900669 L40.1787802,37.7900669 L40.1787802,0.135136485 L-0.0468599897,0.135136485 L-0.0468599897,37.7900669 L-0.0468599897,37.7900669 Z"></path>
            </g>
            <g transform="translate(19.902648, 18.880188) scale(1, -1) translate(-19.902648, -18.880188) translate(-0.114075, -0.119812)" id="Shape" sketch:type="MSShapeGroup">
                <path d="M25.6265569,13.4554627 C25.6265569,9.3642747 20.5012455,9.60683669 20.5012455,9.60683669 L15.3759341,9.60683669 L15.3759341,17.0011589 L20.5012455,17.0011589 C25.7792179,17.0313428 25.6265569,13.4554627 25.6265569,13.4554627 L25.6265569,13.4554627 Z M15.3759341,28.2746547 L19.2810553,28.2746547 C23.3384714,28.0622766 23.1858104,25.0624357 23.1858104,25.0624357 C23.1858104,21.3349089 18.7011629,21.2741775 18.7011629,21.2741775 L15.3759341,21.2741775 L15.3759341,28.2746547 L15.3759341,28.2746547 Z M24.6809369,19.8195329 C24.6809369,19.8195329 28.1892125,21.3043613 28.1588268,25.2442663 C28.1588268,25.2442663 28.6922252,31.6988881 20.0817021,32.4869418 L10.525193,32.4869418 L10.525193,5.42473342 L21.4776173,5.42473342 C21.4776173,5.42473342 30.629959,5.39418589 30.629959,13.0616176 C30.629959,13.0616176 30.8433916,18.273973 24.6809369,19.8195329 L24.6809369,19.8195329 Z M-0.0468599897,37.7900669 L40.1787802,37.7900669 L40.1787802,0.135136485 L-0.0468599897,0.135136485 L-0.0468599897,37.7900669 L-0.0468599897,37.7900669 Z"></path>
            </g>
            <g transform="translate(112.798916, 18.880697) scale(1, -1) translate(-112.798916, -18.880697) translate(92.782194, -0.119303)" id="Shape" sketch:type="MSShapeGroup">
                <path d="M31.8501492,30.5475369 L31.8501492,25.547196 C31.8501492,25.547196 26.9382705,28.5474005 21.5080031,28.6081319 C21.5080031,28.6081319 11.3796556,28.804509 10.9220385,18.9631108 C10.9220385,18.9631108 10.5559449,9.90976643 21.3860939,9.39445857 C21.3860939,9.39445857 25.931879,8.84896684 32.0943337,12.7583242 L32.0943337,7.57615281 C32.0943337,7.57615281 23.8268404,2.69727477 14.2472673,6.45498547 C14.2472673,6.45498547 6.1932066,9.37882114 5.88788448,18.9631108 C5.88788448,18.9631108 5.55217659,28.8201464 16.2911683,32.0930968 C16.2911683,32.0930968 19.1591461,33.1840802 24.3148432,32.6993199 C24.3148432,32.6993199 27.3958876,32.3960265 31.8501492,30.5475369 L31.8501492,30.5475369 Z M-0.168769182,0.13564561 L40.056871,0.13564561 L40.056871,37.7905761 L-0.168769182,37.7905761 L-0.168769182,0.13564561 L-0.168769182,0.13564561 Z"></path>
            </g>
        </g>
    </g>
</svg>