<?xml version="1.0" encoding="UTF-8" standalone="no"?>
<svg width="134px" height="50px" viewBox="0 0 134 50" version="1.1" xmlns="http://www.w3.org/2000/svg" xmlns:xlink="http://www.w3.org/1999/xlink" xmlns:sketch="http://www.bohemiancoding.com/sketch/ns">
    <!-- Generator: Sketch 3.3.3 (12081) - http://www.bohemiancoding.com/sketch -->
    <title>Slice 1</title>
    <desc>Created with Sketch.</desc>
    <defs></defs>
    <g id="Page-1" stroke="none" stroke-width="1" fill="none" fill-rule="evenodd" sketch:type="MSPage">
        <g id="popsci" sketch:type="MSLayerGroup" transform="translate(0.699301, 0.000000)" fill="#999999">
            <path d="M132.167832,24.0354895 C131.647203,24.0354895 131.166608,24.0374126 130.686364,24.0353147 C129.217832,24.0284965 127.749476,24.0157343 126.281119,24.0164336 C126.016434,24.0166084 125.816434,23.9248252 125.672203,23.716958 C125.561538,23.5575175 125.453147,23.3910839 125.377797,23.2132867 C124.366259,20.8291958 123.360839,18.4424825 122.352448,16.056993 C122.292832,15.9159091 122.229196,15.775 122.151224,15.6435315 C122.021503,15.4248252 121.823601,15.2945804 121.566608,15.2926573 C120.783916,15.2868881 120.001399,15.2905594 119.18514,15.2905594 L119.18514,24.0318182 C118.818182,24.0318182 118.484091,24.0312937 118.150175,24.0318182 C114.863462,24.0384615 111.576923,24.0451049 108.290559,24.0515734 C108.220804,24.0517483 108.150524,24.052972 108.080944,24.0498252 C107.480594,24.0230769 107.261014,23.8265734 107.097028,23.2454545 C106.904021,22.561014 106.696678,21.8798951 106.470105,21.2059441 C106.327273,20.7802448 106.00472,20.573951 105.56014,20.5736014 C103.399825,20.572028 101.239161,20.5725524 99.0788462,20.5741259 C98.6615385,20.5743007 98.3277972,20.7840909 98.1944056,21.1804196 C97.9653846,21.8611888 97.7505245,22.5473776 97.5585664,23.2393357 C97.3891608,23.8505245 97.1624126,24.0517483 96.5237762,24.0513986 C89.636014,24.0456294 82.7482517,24.0384615 75.8604895,24.0314685 C75.7986014,24.0314685 75.7367133,24.0263986 75.6622378,24.0230769 L75.6622378,0.556643357 L81.1673077,0.556643357 L81.1673077,18.8982517 L91.2557692,18.8982517 L91.2557692,19.1638112 L91.2557692,23.2756993 C91.2557692,23.3246503 91.2449301,23.3772727 91.2592657,23.4215035 C91.2737762,23.4664336 91.306993,23.5270979 91.3435315,23.5365385 C91.3774476,23.5452797 91.4479021,23.5059441 91.4653846,23.4699301 C91.5566434,23.2818182 91.65,23.0928322 91.718007,22.8956294 C94.1951049,15.7244755 96.6692308,8.55244755 99.1442308,1.38041958 C99.173951,1.29475524 99.2045455,1.20926573 99.2370629,1.12465035 C99.4152098,0.662937063 99.754021,0.458741259 100.245979,0.466258741 C101.168881,0.480594406 102.091958,0.483916084 103.01486,0.487062937 C103.700175,0.489335664 104.385664,0.490034965 105.070804,0.478146853 C105.236713,0.475174825 105.308042,0.519755245 105.36486,0.683216783 C107.357517,6.44143357 109.356818,12.1973776 111.354895,17.9538462 C111.977622,19.7473776 112.599476,21.5410839 113.221853,23.3346154 C113.23549,23.3741259 113.240385,23.4204545 113.264685,23.4517483 C113.297727,23.4945804 113.345629,23.526049 113.387063,23.5624126 C113.416259,23.5173077 113.46049,23.4756993 113.471329,23.4265734 C113.486014,23.359965 113.475175,23.2875874 113.475175,23.2176573 C113.475175,15.7912587 113.475175,8.36486014 113.47535,0.938286713 C113.47535,0.595979021 113.558741,0.516258741 113.909091,0.515734266 C116.391259,0.511363636 118.873601,0.491083916 121.355769,0.508391608 C122.543706,0.516783217 123.733042,0.568006993 124.918007,0.649475524 C127.74528,0.843706294 129.683741,2.27395105 130.642133,4.94475524 C131.482168,7.28583916 131.365385,9.58479021 130.133217,11.7823427 C129.601049,12.7311189 128.861189,13.4954545 127.973601,14.1202797 C127.836888,14.2164336 127.70472,14.3192308 127.556469,14.4291958 C129.08986,17.6230769 130.61993,20.8104895 132.167832,24.0354895 L132.167832,24.0354895 Z M119.197028,10.608042 C119.24965,10.6152098 119.28986,10.6256993 119.33007,10.6253497 C120.734441,10.6155594 122.138811,10.6087413 123.543182,10.5924825 C124.542133,10.5809441 125.061014,9.94388112 125.282168,9.29825175 C125.550524,8.51520979 125.554895,7.7215035 125.283916,6.93828671 C125.066783,6.31066434 124.66521,5.83758741 124.000874,5.66993007 C123.680245,5.58916084 123.338636,5.56625874 123.005944,5.56328671 C121.797028,5.55227273 120.587937,5.56031469 119.379021,5.56223776 C119.319231,5.56223776 119.259615,5.5708042 119.197203,5.5756993 C119.197028,7.26451049 119.197028,8.93234266 119.197028,10.608042 L119.197028,10.608042 Z M104.801748,15.6805944 C104.783741,15.6181818 104.765909,15.5517483 104.745629,15.486014 C104.263112,13.923951 103.780769,12.3617133 103.297378,10.8 C103.021678,9.90961538 102.744755,9.01940559 102.463287,8.13059441 C102.446678,8.07832168 102.373951,7.99685315 102.346853,8.00402098 C102.283916,8.02045455 102.225175,8.07604895 102.17972,8.12867133 C102.150524,8.16241259 102.148077,8.21940559 102.133741,8.26590909 C101.501049,10.3347902 100.868182,12.4036713 100.235315,14.4725524 C100.115734,14.8629371 99.9952797,15.252972 99.8638112,15.6804196 C101.526573,15.6805944 103.153322,15.6805944 104.801748,15.6805944 L104.801748,15.6805944 Z" id="Shape" sketch:type="MSShapeGroup"></path>
            <path d="M97.7003497,25.8608392 L97.7003497,49.3347902 C97.6347902,49.3396853 97.5685315,49.3493007 97.5024476,49.3487762 C96.104021,49.3395105 94.7057692,49.3351399 93.3075175,49.3103147 C93.1505245,49.3075175 92.9575175,49.2274476 92.8477273,49.1171329 C92.663986,48.9321678 92.5090909,48.7071678 92.384965,48.476049 C90.5793706,45.1174825 88.7814685,41.7548951 86.979021,38.3944056 C86.8835664,38.2166084 86.7762238,38.0431818 86.6548951,37.8823427 C86.5746503,37.7756993 86.4597902,37.6951049 86.3173077,37.5629371 L86.3173077,49.2667832 L80.9251748,49.2667832 C80.9134615,48.981993 80.891958,48.6984266 80.8917832,48.415035 C80.8902098,43.7087413 80.8947552,39.0024476 80.8907343,34.2963287 C80.8886364,31.841958 80.8711538,29.3875874 80.8655594,26.9332168 C80.865035,26.7181818 80.8877622,26.5 80.9272727,26.2886364 C80.9835664,25.9867133 81.1805944,25.8134615 81.4865385,25.7772727 C81.6316434,25.759965 81.7788462,25.7522727 81.925,25.752972 C82.9314685,25.7573427 83.938986,25.7945804 84.9440559,25.7611888 C85.5652098,25.7403846 85.9517483,25.9725524 86.2309441,26.5181818 C88.0410839,30.0550699 89.8657343,33.5846154 91.6856643,37.1166084 C91.8396853,37.4153846 92.0024476,37.706993 92.3475524,37.8947552 L92.3475524,25.8606643 C94.1428322,25.8608392 95.9092657,25.8608392 97.7003497,25.8608392 L97.7003497,25.8608392 Z" id="Shape" sketch:type="MSShapeGroup"></path>
            <path d="M36.861014,12.55 C36.7982517,13.8078671 36.7477273,15.0861888 36.6673077,16.3627622 C36.5786713,17.7746503 36.3132867,19.1465035 35.6372378,20.4118881 C34.7361888,22.0987762 33.3215035,23.1611888 31.5353147,23.7561189 C29.9293706,24.2912587 28.273951,24.4491259 26.5909091,24.3281469 C25.3583916,24.2398601 24.1520979,24.0155594 23.0075175,23.531993 C20.6921329,22.5534965 19.3398601,20.7816434 18.8444056,18.3524476 C18.3293706,15.8263986 18.2019231,13.2678322 18.3215035,10.6949301 C18.3856643,9.31818182 18.5162587,7.94807692 18.7575175,6.59125874 C19.0769231,4.79405594 19.7952797,3.2034965 21.2339161,2.00891608 C22.206993,1.20087413 23.3372378,0.715034965 24.5652098,0.46520979 C26.8403846,0.00262237762 29.1136364,0.00839160839 31.3461538,0.68479021 C34.1424825,1.53181818 35.7952797,3.45174825 36.4178322,6.28409091 C36.6423077,7.30524476 36.6991259,8.34597902 36.75,9.38601399 C36.7951049,10.3076923 36.825,11.2302448 36.859965,12.1522727 C36.8652098,12.2777972 36.861014,12.4036713 36.861014,12.55 L36.861014,12.55 Z M31.0954545,12.3024476 C31.0772727,12.3020979 31.0590909,12.3019231 31.0407343,12.3015734 C31.0407343,11.5748252 31.0512238,10.8479021 31.0377622,10.1213287 C31.0244755,9.39493007 31.0001748,8.66818182 30.9575175,7.94300699 C30.9075175,7.09213287 30.5743007,6.37045455 29.8681818,5.86660839 C29.0304196,5.26888112 28.0784965,5.08251748 27.0676573,5.18006993 C25.938986,5.28916084 25.1092657,5.85314685 24.5868881,6.86206294 C24.2484266,7.51573427 24.147028,8.22534965 24.1307692,8.9472028 C24.1045455,10.1166084 24.0942308,11.2863636 24.0856643,12.4561189 C24.0795455,13.266958 24.0674825,14.0784965 24.0961538,14.8884615 C24.118007,15.5073427 24.1491259,16.1337413 24.2653846,16.7396853 C24.4756993,17.836014 25.0730769,18.6587413 26.161014,19.051049 C26.872028,19.3075175 27.6062937,19.3199301 28.3501748,19.2381119 C29.8342657,19.0751748 30.8956294,17.9769231 30.9582168,16.4923077 C31.0176573,15.0961538 31.0508741,13.6991259 31.0954545,12.3024476 L31.0954545,12.3024476 Z" id="Shape" sketch:type="MSShapeGroup"></path>
            <path d="M56.4590909,0.526923077 L62.0909091,0.526923077 L62.0909091,0.790384615 C62.0909091,5.72674825 62.0921329,10.6631119 62.0893357,15.5994755 C62.088986,16.1690559 62.1281469,16.7302448 62.3256993,17.2702797 C62.9666084,19.0222028 64.7671329,19.8054196 66.5765734,19.1423077 C67.9173077,18.6508741 68.5475524,17.6777972 68.5954545,16.2854895 C68.6155594,15.6986014 68.636014,15.1113636 68.6363636,14.5243007 C68.6398601,9.95856643 68.6382867,5.39283217 68.6382867,0.826923077 L68.6382867,0.543531469 L74.2253497,0.543531469 C74.2412587,0.87027972 74.2701049,1.18951049 74.2702797,1.50874126 C74.2725524,6.43811189 74.273951,11.3673077 74.2683566,16.2966783 C74.266958,17.4947552 74.0737762,18.6634615 73.6174825,19.7769231 C72.7517483,21.8896853 71.1596154,23.1893357 69.0085664,23.8466783 C67.6089161,24.2743007 66.168007,24.365035 64.7155594,24.3311189 C63.3410839,24.2991259 62.0068182,24.0589161 60.7382867,23.5124126 C58.2456294,22.4386364 56.8146853,20.5531469 56.5692308,17.851049 C56.4468531,16.5041958 56.466958,15.1424825 56.4632867,13.7872378 C56.4515734,9.46625874 56.4589161,5.1451049 56.4589161,0.824125874 C56.4590909,0.729020979 56.4590909,0.633391608 56.4590909,0.526923077 L56.4590909,0.526923077 Z" id="Shape" sketch:type="MSShapeGroup"></path>
            <path d="M70.5354895,44.3837413 L79.5160839,44.3837413 C79.5160839,44.6424825 79.5171329,44.8786713 79.5159091,45.1148601 C79.5106643,46.2615385 79.509965,47.4082168 79.4968531,48.5547203 C79.4909091,49.0706294 79.2423077,49.3118881 78.7124126,49.3302448 C78.1956294,49.3480769 77.677972,49.3557692 77.1606643,49.3561189 C73.1333916,49.3582168 69.1061189,49.3571678 65.0788462,49.3571678 L64.8781469,49.3571678 L64.8781469,25.8494755 L79.4388112,25.8494755 L79.4388112,30.723951 L70.523951,30.723951 L70.523951,34.9118881 L78.4928322,34.9118881 L78.4928322,39.865035 L70.5356643,39.865035 C70.5354895,41.3736014 70.5354895,42.8596154 70.5354895,44.3837413 L70.5354895,44.3837413 Z" id="Shape" sketch:type="MSShapeGroup"></path>
            <path d="M43.7762238,16.0050699 L43.7762238,24.0173077 C43.6935315,24.0232517 43.6328671,24.0311189 43.572028,24.0314685 C41.9781469,24.0386364 40.3840909,24.0456294 38.7902098,24.0508741 C38.2798951,24.0526224 38.0972028,23.8706294 38.0972028,23.3526224 C38.0977273,18.8148601 38.1001748,14.2770979 38.1013986,9.73951049 C38.1022727,6.78199301 38.1022727,3.82447552 38.1026224,0.866783217 L38.1026224,0.583216783 C38.5064685,0.583216783 38.8886364,0.585839161 39.2708042,0.582692308 C41.5917832,0.563986014 43.9131119,0.51993007 46.2339161,0.534265734 C47.3851399,0.541433566 48.548951,0.567132867 49.6839161,0.738286713 C52.4886364,1.16083916 54.2342657,2.83146853 55.0033217,5.53898601 C55.3083916,6.61328671 55.3396853,7.71730769 55.2812937,8.825 C55.2251748,9.89213287 55.0475524,10.9365385 54.6148601,11.9216783 C53.7211538,13.9561189 52.1342657,15.1561189 50.0183566,15.7117133 C48.9805944,15.9842657 47.9197552,16.0183566 46.8557692,16.0173077 C45.9048951,16.0164336 44.9541958,16.0094406 44.0033217,16.0052448 C43.9354895,16.0048951 43.8673077,16.0050699 43.7762238,16.0050699 L43.7762238,16.0050699 Z M43.7727273,11.0253497 C43.8157343,11.0335664 43.8358392,11.0409091 43.8561189,11.0407343 C45.1833916,11.0309441 46.511014,11.0353147 47.8377622,11.0047203 C48.5611888,10.9879371 49.2262238,10.4552448 49.3692308,9.78618881 C49.5662587,8.86381119 49.6153846,7.92657343 49.3681818,7.00769231 C49.1916084,6.35157343 48.7237762,5.90909091 48.0837413,5.70874126 C47.7583916,5.60699301 47.3937063,5.60821678 47.0463287,5.6041958 C46.0965035,5.59335664 45.1463287,5.60454545 44.1963287,5.60699301 C44.0585664,5.60734266 43.9208042,5.60699301 43.7729021,5.60699301 C43.7727273,7.42902098 43.7727273,9.22185315 43.7727273,11.0253497 L43.7727273,11.0253497 Z" id="Shape" sketch:type="MSShapeGroup"></path>
            <path d="M117.08042,25.8321678 L131.652098,25.8321678 L131.652098,30.6798951 C131.370629,30.6951049 131.080594,30.7241259 130.790734,30.7243007 C128.441434,30.7253497 126.092133,30.7204545 123.743007,30.7187063 C123.540559,30.7185315 123.336713,30.715035 123.135664,30.7351399 C122.83549,30.7648601 122.672028,30.9393357 122.64528,31.2409091 C122.634441,31.3657343 122.64021,31.4923077 122.640385,31.618007 C122.641958,32.6388112 122.644056,33.6596154 122.645629,34.6804196 C122.645804,34.748951 122.645629,34.8174825 122.645629,34.9096154 L130.700699,34.9096154 L130.700699,39.8472028 C130.647552,39.8538462 130.595105,39.8662587 130.542657,39.8662587 C128.438112,39.8681818 126.333566,39.8692308 124.229196,39.8695804 C123.894056,39.8697552 123.556818,39.8412587 123.22465,39.8711538 C122.817308,39.908042 122.646329,40.1111888 122.641783,40.5244755 C122.637937,40.8736014 122.672552,41.2230769 122.670804,41.5723776 C122.667832,42.1804196 122.65,42.7882867 122.638112,43.3961538 C122.637413,43.4311189 122.634615,43.4659091 122.633392,43.501049 C122.609091,44.1888112 122.821678,44.4115385 123.515734,44.4106643 C126.137413,44.4068182 128.759091,44.4001748 131.380769,44.3949301 C131.46451,44.3947552 131.547902,44.3947552 131.648601,44.3947552 L131.648601,49.2767483 L117.08042,49.2767483 C117.08042,41.4648601 117.08042,33.6587413 117.08042,25.8321678 L117.08042,25.8321678 Z" id="Shape" sketch:type="MSShapeGroup"></path>
            <path d="M0.146678322,23.9645105 L0.146678322,23.7368881 L0.146678322,0.811888112 C0.146678322,0.542482517 0.168706294,0.519405594 0.428496503,0.518006993 C3.09195804,0.50541958 5.75559441,0.477972028 8.41905594,0.488636364 C9.42377622,0.492657343 10.438986,0.508916084 11.4304196,0.651398601 C14.3141608,1.06555944 16.1424825,2.74475524 16.9562937,5.51958042 C17.533042,7.48618881 17.5722028,9.46555944 16.8562937,11.4104895 C16.0258741,13.6666084 14.3951049,15.026049 12.0685315,15.5865385 C10.2438811,16.026049 8.3958042,16.1213287 6.53024476,16.0291958 C6.26695804,16.0162587 6.00244755,16.0274476 5.71800699,16.0274476 L5.71800699,23.9645105 L0.146678322,23.9645105 L0.146678322,23.9645105 Z M5.71486014,5.54020979 C5.71048951,5.61171329 5.70664336,5.64562937 5.70664336,5.67937063 C5.70961538,7.25891608 5.71118881,8.83828671 5.71748252,10.4178322 C5.71905594,10.7991259 5.98269231,11.0853147 6.36573427,11.0853147 C7.46905594,11.084965 8.5743007,11.1022727 9.67482517,11.0409091 C10.4506993,10.9977273 11.0454545,10.5837413 11.356993,9.84527972 C11.7965035,8.80332168 11.7891608,7.75699301 11.3300699,6.72062937 C11.070979,6.13583916 10.6358392,5.73653846 10.0034965,5.61241259 C9.66451049,5.5458042 9.30926573,5.54562937 8.96118881,5.54318182 C7.88583916,5.53513986 6.81066434,5.54020979 5.71486014,5.54020979 L5.71486014,5.54020979 Z" id="Shape" sketch:type="MSShapeGroup"></path>
            <path d="M37.9872378,28.1213287 C36.9354895,29.4038462 35.9052448,30.6564685 34.8814685,31.9143357 C34.7914336,32.0251748 34.7243007,32.0055944 34.6181818,31.9566434 C33.8384615,31.5973776 33.0552448,31.245979 32.275,30.8877622 C31.3945804,30.4833916 30.4886364,30.4882867 29.5687063,30.7115385 C28.6270979,30.9403846 28.077972,31.7277972 28.1335664,32.7496503 C28.1753497,33.5138112 28.5472028,34.0727273 29.2547203,34.3215035 C30.0816434,34.6118881 30.9307692,34.8547203 31.7868881,35.0433566 C32.8384615,35.2751748 33.8916084,35.4770979 34.8666084,35.9627622 C36.6756993,36.863986 37.7288462,38.3309441 38.0909091,40.297028 C38.3704545,41.8145105 38.3592657,43.3354895 37.9181818,44.8237762 C37.2814685,46.972028 35.8234266,48.3468531 33.7381119,49.0674825 C31.8590909,49.716958 29.9192308,49.988986 27.9365385,49.7711538 C25.4468531,49.4980769 23.2503497,48.5461538 21.4171329,46.8108392 C21.3924825,46.7875874 21.3715035,46.7606643 21.3372378,46.7225524 C22.4494755,45.3531469 23.5587413,43.9874126 24.659965,42.6314685 C25.0938811,42.931993 25.5008741,43.2388112 25.9316434,43.5073427 C27.0914336,44.2298951 28.3505245,44.6195804 29.7281469,44.5673077 C30.3382867,44.5442308 30.938986,44.4562937 31.5136364,44.2393357 C31.6762238,44.177972 31.8379371,44.1062937 31.9858392,44.0160839 C33.0388112,43.3711538 33.1395105,42.0318182 32.1954545,41.2356643 C31.7587413,40.8673077 31.2381119,40.6550699 30.6961538,40.5143357 C29.6562937,40.2444056 28.602972,40.026049 27.5655594,39.7484266 C25.5461538,39.2078671 23.9833916,38.0781469 23.0868881,36.1414336 C22.5171329,34.9106643 22.3818182,33.6071678 22.508042,32.2694056 C22.604021,31.2522727 22.8487762,30.2736014 23.3108392,29.358042 C24.3230769,27.3520979 25.958042,26.1171329 28.1365385,25.6832168 C30.3718531,25.2379371 32.6017483,25.3564685 34.7725524,26.1146853 C35.4354895,26.3461538 36.0520979,26.6756993 36.6202797,27.0884615 C37.0769231,27.4204545 37.5218531,27.7688811 37.9872378,28.1213287 L37.9872378,28.1213287 Z" id="Shape" sketch:type="MSShapeGroup"></path>
            <path d="M110.49528,41.7973776 C112.253322,42.3631119 113.998252,42.9246503 115.758916,43.4910839 C115.546154,44.2517483 115.266958,44.9692308 114.90542,45.6550699 C113.908042,47.5475524 112.372727,48.7814685 110.329371,49.3937063 C107.914685,50.1174825 105.546853,49.9611888 103.249825,48.9468531 C101.158392,48.0234266 99.9216783,46.3861888 99.4916084,44.1562937 C99.3585664,43.4674825 99.3201049,42.7559441 99.2863636,42.0527972 C99.1706294,39.6286713 99.1288462,37.2024476 99.2426573,34.7774476 C99.2982517,33.5916084 99.3442308,32.397028 99.5270979,31.2270979 C99.9751748,28.3568182 101.679545,26.5645105 104.457867,25.7837413 C105.780944,25.4120629 107.13479,25.3921329 108.494056,25.511014 C109.38986,25.5893357 110.260839,25.777972 111.091259,26.1309441 C112.357517,26.6688811 113.374825,27.5181818 114.099476,28.6797203 C114.645105,29.5547203 115.113462,30.477972 115.63549,31.4146853 C113.839685,31.9998252 112.08007,32.5729021 110.296853,33.1538462 C110.226573,32.9986014 110.169406,32.851049 110.094755,32.7125874 C109.873252,32.3019231 109.687063,31.863986 109.411538,31.4924825 C108.599825,30.3977273 107.319755,30.2783217 106.289685,30.7076923 C105.541084,31.0195804 105.156469,31.6517483 105.029021,32.4208042 C104.939161,32.9627622 104.905594,33.5190559 104.902797,34.0692308 C104.89021,36.4673077 104.891958,38.8653846 104.903322,41.2632867 C104.905769,41.7505245 104.933042,42.2449301 105.019056,42.7234266 C105.250699,44.0090909 106.063287,44.6867133 107.368357,44.7447552 C108.312937,44.7865385 109.073427,44.426049 109.586888,43.6437063 C109.890385,43.1811189 110.097727,42.6550699 110.34493,42.1557692 C110.400175,42.0444056 110.441783,41.9263986 110.49528,41.7973776 L110.49528,41.7973776 Z" id="Shape" sketch:type="MSShapeGroup"></path>
            <path d="M55.5431818,31.4683566 C55.1437063,31.5984266 54.7737762,31.7192308 54.4036713,31.8396853 C53.1361888,32.2526224 51.8674825,32.6618881 50.6026224,33.0825175 C50.4298951,33.1398601 50.3638112,33.1008741 50.291958,32.9410839 C50.1232517,32.5657343 49.9472028,32.1916084 49.7435315,31.8344406 C48.9924825,30.518007 47.7174825,30.2784965 46.4928322,30.663986 C45.9945804,30.8206294 45.6451049,31.1695804 45.4153846,31.6335664 C45.1449301,32.1800699 44.9933566,32.7678322 44.9907343,33.370979 C44.9783217,36.1328671 44.9795455,38.8949301 45.001049,41.6566434 C45.0047203,42.1466783 45.0683566,42.652972 45.2071678,43.1213287 C45.5270979,44.2008741 46.4374126,44.7634615 47.6473776,44.7283217 C48.7057692,44.6977273 49.4727273,44.2237762 49.933042,43.2701049 C50.1632867,42.793007 50.3753497,42.3066434 50.6061189,41.8013986 C52.348951,42.3645105 54.091958,42.9274476 55.8506993,43.4954545 C55.6416084,44.2354895 55.3702797,44.9340909 55.0241259,45.6045455 C54.0458042,47.5001748 52.5229021,48.7325175 50.4917832,49.3631119 C48.0199301,50.1304196 45.6059441,49.9699301 43.2596154,48.902972 C41.1805944,47.9575175 39.9447552,46.311014 39.5875874,44.0786713 C39.3898601,42.8428322 39.3480769,41.5741259 39.3288462,40.3187063 C39.2902098,37.8020979 39.1931818,35.2772727 39.3468531,32.7695804 C39.5174825,29.9856643 40.6132867,27.6232517 43.2604895,26.2676573 C44.1230769,25.8258741 45.0482517,25.5928322 46.0108392,25.5113636 C47.2557692,25.4059441 48.4991259,25.4078671 49.7255245,25.6793706 C52.2767483,26.2442308 54.0297203,27.7697552 55.0482517,30.1578671 C55.2281469,30.5805944 55.373951,31.0174825 55.5431818,31.4683566 L55.5431818,31.4683566 Z" id="Shape" sketch:type="MSShapeGroup"></path>
            <path d="M62.7788462,49.2729021 L57.1996503,49.2729021 L57.1996503,25.8015734 C57.2405594,25.7963287 57.2870629,25.784965 57.3335664,25.7851399 C58.9206294,25.7923077 60.5075175,25.7987762 62.0945804,25.809965 C62.4727273,25.8125874 62.8162587,26.1972028 62.8047203,26.5802448 C62.791958,26.9991259 62.7776224,27.4183566 62.7776224,27.8372378 C62.7769231,34.877972 62.7781469,41.9187063 62.779021,48.9594406 C62.7788462,49.0566434 62.7788462,49.1538462 62.7788462,49.2729021 L62.7788462,49.2729021 Z" id="Shape" sketch:type="MSShapeGroup"></path>
        </g>
    </g>
</svg>